<?xml version="1.0" encoding="UTF-8" standalone="no"?>
<!-- Created with Inkscape (http://www.inkscape.org/) -->

<svg
   version="1.1"
   id="svg1"
   width="793.33331"
   height="1122.6667"
   viewBox="0 0 793.33331 1122.6667"
   sodipodi:docname="ko-16-mh.svg"
   inkscape:version="1.4.2 (f4327f4, 2025-05-13)"
   xmlns:inkscape="http://www.inkscape.org/namespaces/inkscape"
   xmlns:sodipodi="http://sodipodi.sourceforge.net/DTD/sodipodi-0.dtd"
   xmlns="http://www.w3.org/2000/svg"
   xmlns:svg="http://www.w3.org/2000/svg">
  <defs
     id="defs1">
    <clipPath
       clipPathUnits="userSpaceOnUse"
       id="clipPath251">
      <path
         d="m 709,6781.67 h 654 v -384 H 709 Z"
         transform="matrix(0.00152672,0,0,-0.0025974,-1.0824366,17.614727)"
         id="path251" />
    </clipPath>
  </defs>
  <sodipodi:namedview
     id="namedview1"
     pagecolor="#ffffff"
     bordercolor="#000000"
     borderopacity="0.25"
     inkscape:showpageshadow="2"
     inkscape:pageopacity="0.0"
     inkscape:pagecheckerboard="0"
     inkscape:deskcolor="#d1d1d1"
     inkscape:zoom="1.6229214"
     inkscape:cx="425.4673"
     inkscape:cy="301.61657"
     inkscape:window-width="1862"
     inkscape:window-height="1171"
     inkscape:window-x="49"
     inkscape:window-y="-9"
     inkscape:window-maximized="1"
     inkscape:current-layer="g1">
    <inkscape:page
       x="0"
       y="0"
       inkscape:label="1"
       id="page1"
       width="793.33331"
       height="1122.6667"
       margin="0"
       bleed="0" />
  </sodipodi:namedview>
  <g
     id="g1"
     inkscape:groupmode="layer"
     inkscape:label="1">
    <g
       id="g2"
       aria-label="1&#10;16&#10;9&#10;8&#10;5&#10;12&#10;13&#10;4&#10;3&#10;14&#10;11&#10;6&#10;7&#10;10&#10;15&#10;2&#10;11&#10;28&#10;3&#10;459&#10;410&#10;11&#10;312&#10;5613&#10;614&#10;7715&#10;8216&#10;Gewinner Hoffnungslauf&#10;Gewinner&#10;Hoffnungslauf&#10;Hoffnungslauf"
       transform="matrix(1.3333328,0,0,1.3344898,338.23986,250.08035)">
      <path
         id="path2"
         d="M 2.5652197,-5.2793156 V 0.00126057 H 4.076939 V -7.6561603 H 3.0691261 C 2.834751,-6.7428899 2.0495945,-6.2862547 0.73709395,-6.2862547 v 1.0069391 z M -0.43478151,9.5876723 V 14.868248 H 1.0769378 V 7.2108276 H 0.06912494 C -0.16525016,8.124098 -0.95040672,8.5807332 -2.2629072,8.5807332 V 9.5876723 Z M 8.471472,8.9554082 C 8.4011595,8.4519387 8.2956907,8.2060582 8.1081907,7.9250519 7.709753,7.374748 7.0066277,7.0469073 6.1745961,7.0469073 c -0.9492191,0 -1.7343757,0.4215094 -2.1914071,1.1942767 -0.4570314,0.74935 -0.6445315,1.5923688 -0.6445315,2.985692 0,1.323071 0.1640626,2.142672 0.5507815,2.751519 0.4453126,0.714225 1.242188,1.135734 2.1562508,1.135734 1.5234381,0 2.5546885,-1.147442 2.5546885,-2.810063 0,-1.463574 -0.9023441,-2.4822218 -2.2265633,-2.4822218 -0.621094,0 -1.0429692,0.1873378 -1.5234382,0.6908068 0.035156,-0.8196013 0.035156,-0.8196013 0.1054688,-1.1357334 0.1406251,-0.690807 0.574219,-1.1006078 1.1718755,-1.1006078 0.4921877,0 0.7500003,0.1873375 0.9375004,0.6790984 z M 6.0105336,11.016121 c 0.7031252,0 1.1601567,0.550304 1.1601567,1.393323 0,0.819601 -0.5039065,1.41674 -1.1718755,1.41674 -0.6914065,0 -1.1601567,-0.573722 -1.1601567,-1.381615 0,-0.843018 0.4687502,-1.428448 1.1718755,-1.428448 z M 0.40896882,57.689506 c 0.0351563,1.170859 1.01953168,2.037295 2.34375098,2.037295 0.9843754,0 1.7226569,-0.409801 2.1796883,-1.182568 0.3984377,-0.679098 0.6328128,-1.838249 0.6328128,-3.067652 0,-1.112316 -0.1757813,-2.002169 -0.527344,-2.57589 -0.4804689,-0.819602 -1.242188,-1.25282 -2.1562508,-1.25282 -1.5351569,0 -2.57812607,1.112317 -2.57812607,2.704685 0,1.580661 0.92578167,2.657851 2.28515717,2.657851 0.3867189,0 0.761719,-0.105377 0.9960941,-0.281006 0.1406251,-0.09367 0.2226564,-0.199046 0.4687502,-0.480052 0,1.463574 -0.4101564,2.177798 -1.2539067,2.177798 -0.5390627,0 -0.9023441,-0.281006 -0.9375004,-0.737641 z M 2.834751,52.888982 c 0.7382816,0 1.195313,0.562013 1.195313,1.463574 0,0.843019 -0.4804689,1.405032 -1.1718754,1.405032 -0.6914066,0 -1.1250005,-0.550304 -1.1250005,-1.428449 0,-0.878144 0.4335939,-1.440157 1.1015629,-1.440157 z M 4.4167829,70.16794 c 0.2578126,-0.140503 0.3750002,-0.210754 0.4921877,-0.32784 0.3164064,-0.281006 0.4921877,-0.74935 0.4921877,-1.25282 0,-1.194276 -1.0312504,-2.072421 -2.4492197,-2.072421 -1.4179693,0 -2.46093849,0.878145 -2.46093849,2.08413 0,0.737641 0.30468762,1.205985 0.99609419,1.568951 -0.87890665,0.480053 -1.2539068,1.053774 -1.2539068,1.967044 0,1.440157 1.1132817,2.447097 2.7187511,2.447097 1.6054694,0 2.7187511,-1.00694 2.7187511,-2.447097 0,-0.91327 -0.3750002,-1.486991 -1.2539068,-1.967044 z M 2.9636573,67.744261 c 0.6679691,0 1.1367192,0.409801 1.1367192,0.995231 0,0.58543 -0.4804689,1.006939 -1.1367192,1.006939 -0.667969,0 -1.1367192,-0.421509 -1.1367192,-1.018648 0,-0.573721 0.4570315,-0.983522 1.1367192,-0.983522 z m -0.023437,3.032526 c 0.7500003,0 1.2187505,0.491761 1.2187505,1.287946 0,0.737641 -0.4804689,1.229402 -1.2187505,1.229402 -0.7265628,0 -1.1953129,-0.491761 -1.1953129,-1.241111 0,-0.784476 0.4804689,-1.276237 1.1953129,-1.276237 z M 5.272252,111.27974 H 1.1824066 l -0.67968774,4.26193 H 1.8620944 c 0.1640626,-0.37467 0.5156252,-0.57372 0.9726566,-0.57372 0.7734379,0 1.2304693,0.5503 1.2304693,1.47528 0,0.90156 -0.4687502,1.45187 -1.2304693,1.45187 -0.6562502,0 -1.0195316,-0.33955 -1.0546879,-0.96011 H 0.29178128 c 0.0234375,1.34649 1.03125042,2.24805 2.51953222,2.24805 1.6406257,0 2.7656261,-1.12402 2.7656261,-2.77493 0,-1.55725 -0.9726566,-2.64615 -2.3789072,-2.64615 -0.5156252,0 -0.8906253,0.1288 -1.335938,0.46835 l 0.2578126,-1.59237 h 3.152345 z m -5.70703351,17.24384 v 5.28057 H 1.0769378 v -7.65742 H 0.06912494 c -0.2343751,0.91327 -1.01953166,1.36991 -2.33203214,1.36991 v 1.00694 z m 8.96484731,3.93408 h -3.246095 c 0.1992188,-0.4098 0.4335939,-0.63226 1.5585943,-1.45186 1.3242193,-0.97182 1.7109382,-1.55725 1.7109382,-2.5876 0,-1.47528 -1.0078129,-2.43539 -2.6132823,-2.43539 -1.5937506,0 -2.5195322,0.9484 -2.5195322,2.56418 0,0.0703 0,0.15221 0.011719,0.2693 h 1.4414069 v -0.24588 c 0,-0.85473 0.3984376,-1.34649 1.0898441,-1.34649 0.6679691,0 1.0781255,0.45664 1.0781255,1.2294 0,0.84302 -0.2695314,1.17086 -1.9453133,2.37685 -1.3007818,0.87814 -1.6992194,1.55724 -1.769532,2.97398 h 5.2031271 z m -8.96484731,40.66688 v 5.28058 H 1.0769378 v -7.65743 H 0.06912494 c -0.2343751,0.91327 -1.01953166,1.36991 -2.33203214,1.36991 v 1.00694 z m 5.77734601,1.86167 c 0.527344,0 0.621094,0.0117 0.8789066,0.0702 0.5156253,0.1405 0.8320316,0.58543 0.8320316,1.14744 0,0.66739 -0.4687502,1.15915 -1.1250004,1.15915 -0.7148441,0 -1.101563,-0.4098 -1.148438,-1.20598 H 3.31522 c 0.011719,1.53382 1.0078129,2.49393 2.578126,2.49393 1.6289069,0 2.6718761,-0.96011 2.6718761,-2.4471 0,-0.90156 -0.3867189,-1.47528 -1.2539068,-1.89679 0.7148441,-0.44493 1.0078129,-0.93669 1.0078129,-1.63921 0,-1.26452 -0.9492191,-2.08413 -2.4257822,-2.08413 -0.8789066,0 -1.6054694,0.30443 -2.0390633,0.86644 -0.3046876,0.38638 -0.4453127,0.90156 -0.4453127,1.58066 v 0.1288 h 1.4062506 c 0.011719,-0.40981 0.035156,-0.62056 0.1171875,-0.8079 0.1406251,-0.33955 0.480469,-0.53859 0.9257817,-0.53859 0.6093752,0 0.9492191,0.36296 0.9492191,0.99523 0,0.77276 -0.4453127,1.15915 -1.3359381,1.15915 H 5.3425645 Z m 0.2929689,15.33533 H 4.8386581 v -4.70686 H 3.0574074 l -2.80078239,4.68344 v 1.27624 H 3.3269387 v 1.69774 h 1.5117194 v -1.69774 h 0.7968753 z m -2.3085947,0 h -2.003907 l 2.003907,-3.2667 z m -0.9843754,44.13262 c 0.527344,0 0.621094,0.0117 0.8789066,0.0702 0.5156253,0.1405 0.8320316,0.58543 0.8320316,1.14744 0,0.66739 -0.4687502,1.15915 -1.1250004,1.15915 -0.7148441,0 -1.101563,-0.4098 -1.148438,-1.20598 H 0.31521879 c 0.0117188,1.53382 1.00781291,2.49393 2.57812601,2.49393 1.6289069,0 2.6718761,-0.96011 2.6718761,-2.4471 0,-0.90156 -0.3867189,-1.47528 -1.2539068,-1.89679 0.7148441,-0.44493 1.0078129,-0.93669 1.0078129,-1.6392 0,-1.26453 -0.9492191,-2.08413 -2.4257822,-2.08413 -0.8789066,0 -1.6054694,0.30442 -2.0390633,0.86643 -0.30468762,0.38639 -0.44531268,0.90156 -0.44531268,1.58066 v 0.1288 H 1.8152194 c 0.011719,-0.4098 0.035156,-0.62056 0.1171875,-0.8079 0.1406251,-0.33955 0.480469,-0.53859 0.9257817,-0.53859 0.6093752,0 0.9492191,0.36296 0.9492191,0.99523 0,0.77277 -0.4453127,1.15915 -1.3359381,1.15915 H 2.3425633 Z m -2.77734481,13.00532 v 5.28057 H 1.0769378 v -7.65742 H 0.06912494 c -0.2343751,0.91327 -1.01953166,1.36991 -2.33203214,1.36991 v 1.00694 z m 9.07031611,2.33001 H 7.8386593 v -4.70686 H 6.0574086 l -2.8007824,4.68344 v 1.27624 h 3.0703137 v 1.69774 h 1.5117194 v -1.69774 h 0.7968753 z m -2.3085947,0 h -2.003907 l 2.003907,-3.2667 z m -6.76172141,42.27095 v 5.28058 H 1.0769378 V 289.6836 H 0.06912494 c -0.2343751,0.91327 -1.01953166,1.3699 -2.33203214,1.3699 v 1.00694 z m 6.00000241,0 v 5.28058 H 7.0769402 V 289.6836 H 6.0691273 c -0.2343751,0.91327 -1.0195316,1.3699 -2.3320321,1.3699 v 1.00694 z m -0.09375,14.23473 c -0.070312,-0.50347 -0.1757813,-0.74935 -0.3632813,-1.03036 -0.3984377,-0.5503 -1.101563,-0.87814 -1.9335946,-0.87814 -0.9492191,0 -1.7343757,0.4215 -2.1914071,1.19427 -0.45703143,0.74935 -0.64453151,1.59237 -0.64453151,2.98569 0,1.32307 0.16406257,2.14268 0.55078148,2.75152 0.44531263,0.71423 1.24218803,1.13574 2.15625083,1.13574 1.5234381,0 2.5546885,-1.14745 2.5546885,-2.81007 0,-1.46357 -0.9023441,-2.48222 -2.2265633,-2.48222 -0.621094,0 -1.0429692,0.18734 -1.5234382,0.69081 0.035156,-0.8196 0.035156,-0.8196 0.1054688,-1.13573 0.1406251,-0.69081 0.574219,-1.10061 1.1718755,-1.10061 0.4921877,0 0.7500003,0.18734 0.9375004,0.6791 z m -2.4609384,2.06071 c 0.7031252,0 1.1601567,0.5503 1.1601567,1.39332 0,0.8196 -0.5039065,1.41674 -1.1718755,1.41674 -0.6914065,0 -1.1601567,-0.57372 -1.1601567,-1.38161 0,-0.84302 0.4687502,-1.42845 1.1718755,-1.42845 z m 2.6835948,40.79567 H 0.31521879 v 1.3582 H 4.1238141 c -0.4687502,0.49176 -1.3828131,1.88508 -1.6875007,2.55247 -0.527344,1.11232 -0.7968753,2.11926 -1.0078129,3.74675 h 1.5234381 c 0.140625,-2.42368 0.9375004,-4.27364 2.7421886,-6.46314 z m -6.12890871,17.24676 v 5.28058 H 1.0769378 v -7.65743 H 0.06912494 c -0.2343751,0.91327 -1.01953166,1.36991 -2.33203214,1.36991 v 1.00694 z M 5.940221,363.85754 c -0.8203128,0 -1.5117193,0.35126 -1.9804695,0.98353 -0.4453127,0.59713 -0.6445315,1.58066 -0.6445315,3.05594 0,1.3582 0.1757813,2.3183 0.5390627,2.89202 0.4453127,0.72593 1.195313,1.13574 2.0859383,1.13574 0.8320316,0 1.5117194,-0.32784 1.9921883,-0.98353 0.433594,-0.57372 0.6445315,-1.56895 0.6445315,-2.9974 0,-1.40503 -0.1757813,-2.35342 -0.5390627,-2.95056 -0.4570314,-0.72594 -1.195313,-1.13574 -2.0976571,-1.13574 z m 0,1.22941 c 0.3984377,0 0.7031253,0.21075 0.8906254,0.60884 0.1523438,0.32784 0.2343751,1.17086 0.2343751,2.21293 0,0.85473 -0.082031,1.72116 -0.1875001,2.02558 -0.1757813,0.44493 -0.5039064,0.70252 -0.9375004,0.70252 -0.3984376,0 -0.6914065,-0.21075 -0.8789066,-0.59714 -0.1523438,-0.32784 -0.2343751,-1.13573 -0.2343751,-2.15438 0,-0.88985 0.082031,-1.768 0.1875001,-2.08413 0.1757813,-0.45663 0.5039065,-0.71422 0.9257816,-0.71422 z m -6.37500251,45.91232 v 5.28058 H 1.0769378 v -7.65742 H 0.06912494 c -0.2343751,0.91327 -1.01953166,1.3699 -2.33203214,1.3699 v 1.00694 z M 8.2722532,408.62243 H 4.1824078 l -0.6796877,4.26193 h 1.3593755 c 0.1640626,-0.37468 0.5156252,-0.57372 0.9726566,-0.57372 0.7734379,0 1.2304693,0.5503 1.2304693,1.47528 0,0.90156 -0.4687502,1.45186 -1.2304693,1.45186 -0.6562502,0 -1.0195316,-0.33955 -1.0546879,-0.9601 H 3.2917825 c 0.023437,1.34649 1.0312504,2.24805 2.5195322,2.24805 1.6406257,0 2.7656261,-1.12403 2.7656261,-2.77494 0,-1.55724 -0.9726566,-2.64614 -2.3789072,-2.64614 -0.5156252,0 -0.8906253,0.12879 -1.335938,0.46834 l 0.2578126,-1.59236 h 3.152345 z m -2.7421886,21.17792 h -3.246095 c 0.1992188,-0.4098 0.4335939,-0.63227 1.5585943,-1.45187 1.3242193,-0.97181 1.7109382,-1.55724 1.7109382,-2.5876 0,-1.47528 -1.0078129,-2.43538 -2.6132823,-2.43538 -1.5937506,0 -2.51953222,0.94839 -2.51953222,2.56418 0,0.0702 0,0.15221 0.0117188,0.2693 H 1.8738132 v -0.24588 c 0,-0.85473 0.3984376,-1.34649 1.0898441,-1.34649 0.6679691,0 1.0781255,0.45663 1.0781255,1.2294 0,0.84302 -0.2695314,1.17086 -1.9453133,2.37684 -1.30078177,0.87815 -1.69921943,1.55725 -1.76953196,2.97399 H 5.5300646 Z"
         style="fill:#000000;fill-opacity:1;fill-rule:nonzero;stroke:none"
         sodipodi:nodetypes="ccccccccccccccccccscscsssccsccssssscscscsssccsccsssssccssscssscssssssssssccccsssccssscccccccccccccccsssccsssccccccccccccccssccsscsscscccsssccccccccccccccccccccssccsscsscscccsssccccccccccccccccccccccccccccccccccccccccccccscscsssccsccssssscccccccccccccccccscscscscsscscscscsccccccccccccsssccssscccccccsssccssscccc" />
      <path
         id="path3"
         d="m -147.61943,-26.170375 h -1.64063 v 0.433218 h 1.19532 v 0.117086 c 0,0.690807 -0.51563,1.205985 -1.23047,1.205985 -0.39844,0 -0.76172,-0.152212 -0.9961,-0.398092 -0.25781,-0.281007 -0.41015,-0.74935 -0.41015,-1.241111 0,-0.960105 0.55078,-1.604078 1.38281,-1.604078 0.59766,0 1.03125,0.304424 1.13672,0.819602 h 0.51562 c -0.14062,-0.796185 -0.75,-1.264528 -1.65234,-1.264528 -0.48047,0 -0.86719,0.128794 -1.17188,0.386383 -0.45703,0.374675 -0.71484,0.983522 -0.71484,1.686038 0,1.217694 0.73828,2.060712 1.80469,2.060712 0.52734,0 0.96094,-0.199046 1.33594,-0.632264 l 0.1289,0.526887 h 0.31641 z m 3.14356,0.807893 c 0,-0.433218 -0.0352,-0.690807 -0.11719,-0.901562 -0.17578,-0.468344 -0.60938,-0.737642 -1.13672,-0.737642 -0.78516,0 -1.30078,0.597139 -1.30078,1.522118 0,0.936687 0.49218,1.510408 1.28906,1.510408 0.64453,0 1.08984,-0.374675 1.20703,-0.983522 h -0.45703 c -0.11719,0.374676 -0.375,0.562013 -0.73828,0.562013 -0.28125,0 -0.52735,-0.128795 -0.67969,-0.362966 -0.10547,-0.163921 -0.14062,-0.327841 -0.15234,-0.608847 z m -2.07422,-0.362967 c 0.0469,-0.526887 0.36328,-0.866436 0.80859,-0.866436 0.44531,0 0.78516,0.362967 0.78516,0.83131 v 0.03513 z m 5.29687,1.627495 0.83203,-2.83348 h -0.51562 l -0.55078,2.212924 -0.5625,-2.212924 h -0.55078 l -0.53907,2.212924 -0.57422,-2.212924 h -0.49218 l 0.82031,2.83348 h 0.50391 l 0.53906,-2.212924 0.57422,2.212924 z m 1.78125,-2.83348 h -0.44531 v 2.83348 h 0.44531 z m 0,-1.100608 h -0.45703 v 0.562013 h 0.45703 z m 0.76465,1.100608 v 2.83348 h 0.45703 v -1.557243 c 0,-0.58543 0.30469,-0.960105 0.76172,-0.960105 0.36328,0 0.58594,0.222463 0.58594,0.562013 v 1.955335 h 0.44531 v -2.142673 c 0,-0.468344 -0.35156,-0.761059 -0.89062,-0.761059 -0.42188,0 -0.69141,0.152212 -0.9375,0.550304 v -0.480052 z m 3,0 v 2.83348 h 0.45703 v -1.557243 c 0,-0.58543 0.30469,-0.960105 0.76172,-0.960105 0.36329,0 0.58594,0.222463 0.58594,0.562013 v 1.955335 h 0.44531 v -2.142673 c 0,-0.468344 -0.35156,-0.761059 -0.89062,-0.761059 -0.42188,0 -0.69141,0.152212 -0.9375,0.550304 v -0.480052 z m 5.39063,1.568952 c 0,-0.433218 -0.0352,-0.690807 -0.11719,-0.901562 -0.17578,-0.468344 -0.60937,-0.737642 -1.13672,-0.737642 -0.78515,0 -1.30078,0.597139 -1.30078,1.522118 0,0.936687 0.49219,1.510408 1.28907,1.510408 0.64453,0 1.08984,-0.374675 1.20703,-0.983522 h -0.45703 c -0.11719,0.374676 -0.375,0.562013 -0.73829,0.562013 -0.28125,0 -0.52734,-0.128795 -0.67968,-0.362966 -0.10547,-0.163921 -0.14063,-0.327841 -0.15235,-0.608847 z m -2.07422,-0.362967 c 0.0469,-0.526887 0.36328,-0.866436 0.8086,-0.866436 0.44531,0 0.78515,0.362967 0.78515,0.83131 v 0.03513 z m 2.6836,-1.205985 v 2.83348 h 0.44531 v -1.463574 c 0,-0.409801 0.10547,-0.679099 0.32812,-0.831311 0.12891,-0.105377 0.26954,-0.128794 0.58594,-0.140503 v -0.456635 c -0.082,-0.01171 -0.11719,-0.01171 -0.17578,-0.01171 -0.29297,0 -0.51563,0.163921 -0.77344,0.58543 v -0.515178 z m -23.9297,7.87403 v 1.791415 h 0.50391 v -3.934088 h -0.50391 v 1.697746 h -2.01563 v -1.697746 h -0.5039 v 3.934088 h 0.5039 v -1.791415 z m 2.34082,-1.112317 c -0.78516,0 -1.26563,0.562013 -1.26563,1.510409 0,0.948396 0.46875,1.522117 1.27735,1.522117 0.78516,0 1.27734,-0.573721 1.27734,-1.4987 0,-0.983522 -0.46875,-1.533826 -1.28906,-1.533826 z m 0.0117,0.409801 c 0.50391,0 0.80859,0.42151 0.80859,1.112317 0,0.66739 -0.3164,1.088899 -0.80859,1.088899 -0.50391,0 -0.8086,-0.409801 -0.8086,-1.100608 0,-0.679098 0.30469,-1.100608 0.8086,-1.100608 z m 2.91797,-0.339549 h -0.46875 v -0.433218 c 0,-0.199046 0.10547,-0.292715 0.30469,-0.292715 0.0469,0 0.0586,0 0.16406,0.01171 v -0.374675 c -0.10547,-0.02342 -0.16406,-0.02342 -0.25781,-0.02342 -0.41016,0 -0.66797,0.234172 -0.66797,0.632265 v 0.480052 h -0.375 v 0.374675 h 0.375 v 2.458805 h 0.45703 v -2.458805 h 0.46875 z m 1.55859,0 h -0.46875 v -0.433218 c 0,-0.199046 0.10547,-0.292715 0.30469,-0.292715 0.0469,0 0.0586,0 0.16406,0.01171 v -0.374675 c -0.10547,-0.02342 -0.16406,-0.02342 -0.25781,-0.02342 -0.41016,0 -0.66797,0.234172 -0.66797,0.632265 v 0.480052 h -0.375 v 0.374675 h 0.375 v 2.458805 h 0.45703 v -2.458805 h 0.46875 z m 0.542,0 v 2.83348 h 0.45703 v -1.557243 c 0,-0.58543 0.30468,-0.960105 0.76172,-0.960105 0.36328,0 0.58593,0.222463 0.58593,0.562013 v 1.955335 h 0.44532 v -2.142673 c 0,-0.468344 -0.35157,-0.761059 -0.89063,-0.761059 -0.42187,0 -0.69141,0.152212 -0.9375,0.550304 v -0.480052 z m 5.22656,2.83348 v -2.83348 h -0.44531 v 1.604077 c 0,0.58543 -0.30469,0.960105 -0.77344,0.960105 -0.36328,0 -0.58594,-0.210755 -0.58594,-0.562012 v -2.00217 h -0.44531 v 2.189507 c 0,0.468344 0.35156,0.772767 0.90234,0.772767 0.41016,0 0.67969,-0.152211 0.9375,-0.526886 v 0.398092 z m 0.77344,-2.83348 v 2.83348 h 0.45703 v -1.557243 c 0,-0.58543 0.30469,-0.960105 0.76172,-0.960105 0.36328,0 0.58594,0.222463 0.58594,0.562013 v 1.955335 h 0.44531 v -2.142673 c 0,-0.468344 -0.35156,-0.761059 -0.89063,-0.761059 -0.42187,0 -0.6914,0.152212 -0.9375,0.550304 v -0.480052 z m 4.85156,0 v 0.409801 c -0.23437,-0.327841 -0.5039,-0.480053 -0.86719,-0.480053 -0.71484,0 -1.20703,0.620556 -1.20703,1.533826 0,0.468344 0.12891,0.843019 0.36328,1.112317 0.21094,0.24588 0.50391,0.386383 0.8086,0.386383 0.35156,0 0.59765,-0.152211 0.85547,-0.515178 v 0.152212 c 0,0.374675 -0.0469,0.608847 -0.16407,0.772767 -0.11718,0.16392 -0.35156,0.257589 -0.62109,0.257589 -0.21094,0 -0.38672,-0.04683 -0.51562,-0.152212 -0.10547,-0.08196 -0.14063,-0.152211 -0.17579,-0.316132 h -0.45703 c 0.0469,0.526887 0.46875,0.843019 1.125,0.843019 0.42188,0 0.78516,-0.128794 0.97266,-0.351258 0.21094,-0.269297 0.29297,-0.620555 0.29297,-1.287945 v -2.365136 z m -0.82031,0.339549 c 0.48047,0 0.77344,0.409801 0.77344,1.112317 0,0.679098 -0.29297,1.088899 -0.76172,1.088899 -0.49219,0 -0.79688,-0.409801 -0.79688,-1.100608 0,-0.679098 0.30469,-1.100608 0.78516,-1.100608 z m 3.94922,0.456635 c 0,-0.562012 -0.36328,-0.866436 -1.01953,-0.866436 -0.65625,0 -1.07813,0.33955 -1.07813,0.854728 0,0.444926 0.22266,0.655681 0.89063,0.819601 l 0.42187,0.105378 c 0.31641,0.07025 0.4336,0.187337 0.4336,0.386383 0,0.269298 -0.25782,0.444927 -0.65625,0.444927 -0.2461,0 -0.44532,-0.07025 -0.5625,-0.187338 -0.0703,-0.08196 -0.10547,-0.16392 -0.12891,-0.362966 h -0.46875 c 0.0117,0.655681 0.38672,0.971813 1.125,0.971813 0.71484,0 1.16016,-0.351258 1.16016,-0.901561 0,-0.42151 -0.23438,-0.655682 -0.79688,-0.784476 l -0.43359,-0.105378 c -0.36328,-0.08196 -0.51563,-0.210754 -0.51563,-0.4098 0,-0.25759 0.22266,-0.42151 0.59766,-0.42151 0.36328,0 0.55078,0.152212 0.5625,0.456635 z m 1.22461,-1.896792 h -0.45703 v 3.934088 h 0.45703 z m 3.26074,3.66479 c -0.0469,0.01171 -0.0703,0.01171 -0.0937,0.01171 -0.16406,0 -0.24609,-0.08196 -0.24609,-0.222464 v -1.66262 c 0,-0.491761 -0.36328,-0.761059 -1.05469,-0.761059 -0.41016,0 -0.75,0.117086 -0.94922,0.327841 -0.1289,0.140503 -0.17578,0.304423 -0.1875,0.58543 h 0.45703 c 0.0352,-0.351258 0.23438,-0.50347 0.65625,-0.50347 0.41016,0 0.63282,0.152212 0.63282,0.42151 v 0.117086 c 0,0.187337 -0.11719,0.269297 -0.46875,0.316132 -0.63282,0.08196 -0.73829,0.105377 -0.90235,0.175628 -0.32812,0.128795 -0.5039,0.386384 -0.5039,0.749351 0,0.515178 0.36328,0.843018 0.92578,0.843018 0.36328,0 0.64453,-0.128794 0.96094,-0.421509 0.0351,0.292715 0.17578,0.421509 0.46875,0.421509 0.0937,0 0.16406,-0.01171 0.30468,-0.05854 z m -0.78515,-0.620555 c 0,0.152211 -0.0469,0.24588 -0.17578,0.362966 -0.1875,0.175629 -0.41016,0.257589 -0.66797,0.257589 -0.35157,0 -0.5625,-0.16392 -0.5625,-0.456635 0,-0.292715 0.19921,-0.444927 0.67968,-0.515178 0.48047,-0.07025 0.57422,-0.08196 0.72657,-0.152212 z m 3.5039,0.889853 v -2.83348 h -0.44531 v 1.604077 c 0,0.58543 -0.30469,0.960105 -0.77344,0.960105 -0.36328,0 -0.58593,-0.210755 -0.58593,-0.562012 v -2.00217 h -0.44532 v 2.189507 c 0,0.468344 0.35157,0.772767 0.90235,0.772767 0.41015,0 0.67969,-0.152211 0.9375,-0.526886 v 0.398092 z m 1.79297,-2.83348 h -0.46875 v -0.433218 c 0,-0.199046 0.10547,-0.292715 0.30469,-0.292715 0.0469,0 0.0586,0 0.16406,0.01171 v -0.374675 c -0.10547,-0.02342 -0.16406,-0.02342 -0.25781,-0.02342 -0.41016,0 -0.66797,0.234172 -0.66797,0.632265 v 0.480052 h -0.375 v 0.374675 h 0.375 v 2.458805 h 0.45703 v -2.458805 h 0.46875 z m 51.251977,-2.315375 v 1.791415 h 0.503907 v -3.934087 h -0.503907 v 1.697746 h -2.015625 v -1.697746 h -0.503907 v 3.934087 h 0.503907 v -1.791415 z m 2.340822,-1.112316 c -0.785157,0 -1.265626,0.562012 -1.265626,1.510409 0,0.948396 0.46875,1.522117 1.277344,1.522117 0.785157,0 1.277345,-0.573721 1.277345,-1.4987 0,-0.983522 -0.468751,-1.533826 -1.289063,-1.533826 z m 0.01172,0.409801 c 0.503907,0 0.808594,0.421509 0.808594,1.112316 0,0.66739 -0.316406,1.088899 -0.808594,1.088899 -0.503906,0 -0.808594,-0.4098 -0.808594,-1.100607 0,-0.679099 0.304688,-1.100608 0.808594,-1.100608 z m 2.91797,-0.33955 h -0.46875 v -0.433218 c 0,-0.199046 0.105469,-0.292714 0.304688,-0.292714 0.04687,0 0.05859,0 0.164062,0.01171 v -0.374675 c -0.105469,-0.02342 -0.164062,-0.02342 -0.257812,-0.02342 -0.410157,0 -0.667969,0.234172 -0.667969,0.632264 v 0.480052 h -0.375001 v 0.374675 h 0.375001 v 2.458805 h 0.457031 v -2.458805 h 0.46875 z m 1.558595,0 h -0.468751 v -0.433218 c 0,-0.199046 0.105469,-0.292714 0.304688,-0.292714 0.04687,0 0.05859,0 0.164063,0.01171 v -0.374675 c -0.105469,-0.02342 -0.164063,-0.02342 -0.257813,-0.02342 -0.410156,0 -0.667969,0.234172 -0.667969,0.632264 v 0.480052 h -0.375 v 0.374675 h 0.375 v 2.458805 h 0.457031 v -2.458805 h 0.468751 z m 0.541992,0 v 2.83348 h 0.457031 v -1.557243 c 0,-0.585429 0.304688,-0.960105 0.76172,-0.960105 0.363281,0 0.585937,0.222464 0.585937,0.562013 v 1.955335 h 0.445313 v -2.142672 c 0,-0.468344 -0.351563,-0.761059 -0.890625,-0.761059 -0.421876,0 -0.691407,0.152212 -0.937501,0.550304 v -0.480053 z m 5.226565,2.83348 v -2.83348 h -0.445313 v 1.604078 c 0,0.58543 -0.304688,0.960105 -0.773438,0.960105 -0.363281,0 -0.585938,-0.210755 -0.585938,-0.562013 v -2.00217 h -0.445312 v 2.189508 c 0,0.468343 0.351562,0.772767 0.902344,0.772767 0.410156,0 0.679688,-0.152212 0.9375,-0.526887 v 0.398092 z m 0.773437,-2.83348 v 2.83348 h 0.457032 v -1.557243 c 0,-0.585429 0.304687,-0.960105 0.761719,-0.960105 0.363281,0 0.585938,0.222464 0.585938,0.562013 v 1.955335 h 0.445312 v -2.142672 c 0,-0.468344 -0.351562,-0.761059 -0.890625,-0.761059 -0.421875,0 -0.691407,0.152212 -0.9375,0.550304 v -0.480053 z m 4.851565,0 v 0.409801 c -0.234375,-0.32784 -0.503907,-0.480052 -0.867188,-0.480052 -0.714844,0 -1.207032,0.620555 -1.207032,1.533826 0,0.468344 0.128907,0.843019 0.363282,1.112316 0.210937,0.245881 0.503906,0.386384 0.808594,0.386384 0.351562,0 0.597656,-0.152212 0.855469,-0.515178 v 0.152211 c 0,0.374675 -0.04687,0.608847 -0.164063,0.772768 -0.117187,0.16392 -0.351562,0.257589 -0.621094,0.257589 -0.210937,0 -0.386719,-0.04683 -0.515625,-0.152212 -0.105469,-0.08196 -0.140625,-0.152212 -0.175781,-0.316132 h -0.457032 c 0.04687,0.526887 0.468751,0.843019 1.125001,0.843019 0.421875,0 0.785156,-0.128795 0.972656,-0.351258 0.210938,-0.269298 0.292969,-0.620556 0.292969,-1.287945 v -2.365137 z m -0.820313,0.33955 c 0.480469,0 0.773438,0.4098 0.773438,1.112316 0,0.679099 -0.292969,1.088899 -0.761719,1.088899 -0.492188,0 -0.796876,-0.4098 -0.796876,-1.100607 0,-0.679099 0.304688,-1.100608 0.785157,-1.100608 z m 3.946291,0.456635 c 0,-0.562013 -0.363282,-0.866436 -1.019532,-0.866436 -0.65625,0 -1.078125,0.339549 -1.078125,0.854727 0,0.444927 0.222656,0.655682 0.890625,0.819602 l 0.421875,0.105377 c 0.316407,0.07025 0.433594,0.187338 0.433594,0.386384 0,0.269298 -0.257813,0.444926 -0.65625,0.444926 -0.246094,0 -0.445313,-0.07025 -0.5625,-0.187337 -0.07031,-0.08196 -0.105469,-0.16392 -0.128907,-0.362966 h -0.46875 c 0.01172,0.655681 0.386719,0.971813 1.125001,0.971813 0.714844,0 1.160156,-0.351258 1.160156,-0.901562 0,-0.421509 -0.234375,-0.655681 -0.796875,-0.784476 l -0.433594,-0.105377 c -0.363281,-0.08196 -0.515625,-0.210755 -0.515625,-0.409801 0,-0.257589 0.222656,-0.421509 0.597656,-0.421509 0.363282,0 0.550782,0.152211 0.562501,0.456635 z m 1.227539,-1.896792 h -0.457031 v 3.934087 h 0.457031 z m 3.260744,3.66479 c -0.04687,0.01171 -0.07031,0.01171 -0.09375,0.01171 -0.164063,0 -0.246094,-0.08196 -0.246094,-0.222463 v -1.66262 c 0,-0.491761 -0.363282,-0.761059 -1.054688,-0.761059 -0.410156,0 -0.75,0.117086 -0.949219,0.327841 -0.128906,0.140503 -0.175782,0.304423 -0.1875,0.585429 h 0.457031 c 0.03516,-0.351258 0.234375,-0.503469 0.65625,-0.503469 0.410157,0 0.632813,0.152211 0.632813,0.421509 v 0.117086 c 0,0.187338 -0.117187,0.269298 -0.46875,0.316132 -0.632813,0.08196 -0.738282,0.105377 -0.902344,0.175629 -0.328125,0.128795 -0.503907,0.386384 -0.503907,0.74935 0,0.515178 0.363282,0.843019 0.925782,0.843019 0.363281,0 0.644532,-0.128795 0.960938,-0.42151 0.03516,0.292715 0.175781,0.42151 0.46875,0.42151 0.09375,0 0.164063,-0.01171 0.304688,-0.05854 z m -0.785157,-0.620556 c 0,0.152212 -0.04687,0.245881 -0.175781,0.362967 -0.1875,0.175628 -0.410157,0.257589 -0.667969,0.257589 -0.351563,0 -0.5625,-0.163921 -0.5625,-0.456636 0,-0.292714 0.199218,-0.444926 0.679687,-0.515178 0.480469,-0.07025 0.574219,-0.08196 0.726563,-0.152211 z m 3.503908,0.889853 v -2.83348 h -0.445313 v 1.604078 c 0,0.58543 -0.304687,0.960105 -0.773438,0.960105 -0.363281,0 -0.585937,-0.210755 -0.585937,-0.562013 v -2.00217 h -0.445313 v 2.189508 c 0,0.468343 0.351563,0.772767 0.902344,0.772767 0.410156,0 0.679688,-0.152212 0.9375,-0.526887 v 0.398092 z m 1.792969,-2.83348 h -0.46875 v -0.433218 c 0,-0.199046 0.105469,-0.292714 0.304688,-0.292714 0.04687,0 0.05859,0 0.164062,0.01171 v -0.374675 c -0.105468,-0.02342 -0.164062,-0.02342 -0.257812,-0.02342 -0.410157,0 -0.667969,0.234172 -0.667969,0.632264 v 0.480052 h -0.375 v 0.374675 h 0.375 v 2.458805 h 0.457031 v -2.458805 h 0.46875 z"
         style="fill:#000000;fill-opacity:1;fill-rule:nonzero;stroke:none"
         sodipodi:nodetypes="ccccsscssccscssccccccsssccsccccsscccccccccccccccccccccccccccccsssccssccccccsssccsscccccsssccsccccsscccccscccsccccccccccccccccssssssssssccssccsscccccccccccssccssccccccccccccsssccssccccccsssccssccccccsssccsscccccsscscssscccscsccssssscssccsscccssccssccccccccsssscccsssccsscsccscssscscccsssccsscccccssccssccccccccccccccccccccccssssssssssccssccsscccccccccccssccssccccccccccccsssccssccccccsssccssccccccsssccsscccccsscscssscccscsccssssscssccsscccssccssccccccccsssscccsssccsscsccscssscscccsssccsscccccssccssccccccccc" />
    </g>
    <path
       id="path6"
       d="m 2.9634685,-1.7927385 v 1.79141493 H 3.4673749 V -3.9354113 H 2.9634685 v 1.6977462 H 0.94784267 V -3.9354113 H 0.44393622 v 3.93408773 H 0.94784267 V -1.7927385 Z m 3.7587905,1.52211725 c -0.046875,0.0117086 -0.070312,0.0117086 -0.09375,0.0117086 -0.1640626,0 -0.2460938,-0.0819602 -0.2460938,-0.2224633 V -2.1439964 c 0,-0.4917609 -0.3632814,-0.7610586 -1.054688,-0.7610586 -0.4101564,0 -0.7500003,0.1170859 -0.9492191,0.3278406 -0.1289063,0.1405032 -0.1757813,0.3044235 -0.1875001,0.5854298 h 0.4570315 c 0.035156,-0.3512579 0.2343751,-0.5034696 0.6562502,-0.5034696 0.4101564,0 0.6328128,0.1522117 0.6328128,0.4215094 v 0.1170859 c 0,0.1873376 -0.1171876,0.2692977 -0.4687502,0.3161321 -0.6328128,0.08196 -0.7382816,0.1053773 -0.9023441,0.1756289 -0.3281252,0.1287946 -0.5039065,0.3863836 -0.5039065,0.74935006 0,0.51517816 0.3632814,0.84301881 0.9257816,0.84301881 0.3632814,0 0.6445316,-0.12879454 0.9609379,-0.4215094 0.035156,0.29271486 0.1757814,0.4215094 0.4687502,0.4215094 0.09375,0 0.1640626,-0.0117086 0.3046876,-0.05854297 z M 5.9371025,-0.89117676 c 0,0.15221173 -0.046875,0.24588049 -0.1757813,0.36296643 -0.1875001,0.17562892 -0.4101565,0.25758908 -0.6679691,0.25758908 -0.3515626,0 -0.5625002,-0.16392032 -0.5625002,-0.45663518 0,-0.29271487 0.1992188,-0.44492657 0.6796878,-0.51517817 0.4804689,-0.070252 0.574219,-0.08196 0.7265628,-0.1522117 z m 3.5039076,0.88985319 V -2.8348034 H 8.9956974 v 1.6040774 c 0,0.58542973 -0.3046876,0.96010475 -0.7734378,0.96010475 -0.3632814,0 -0.5859377,-0.2107547 -0.5859377,-0.56201253 V -2.8348034 H 7.1910092 v 2.18950713 c 0,0.46834378 0.3515627,0.77276724 0.9023441,0.77276724 0.4101565,0 0.6796878,-0.15221173 0.9375004,-0.52688676 v 0.39809222 z M 10.132417,1.1695359 h 0.445312 v -1.46357433 c 0.246094,0.29271486 0.503907,0.4215094 0.878907,0.4215094 0.726563,0 1.207032,-0.59713832 1.207032,-1.49870007 0,-0.9483962 -0.468751,-1.5338259 -1.218751,-1.5338259 -0.386719,0 -0.691406,0.1639203 -0.902344,0.5034696 v -0.433218 h -0.410156 z m 1.242188,-3.6647901 c 0.492187,0 0.820312,0.4449266 0.820312,1.1123165 0,0.64397267 -0.328125,1.08889927 -0.820312,1.08889927 -0.480469,0 -0.796876,-0.433218 -0.796876,-1.10060787 0,-0.6673899 0.316407,-1.1006079 0.796876,-1.1006079 z m 2.835938,-0.3395492 h -0.46875 V -3.6075707 H 13.29648 v 0.7727673 h -0.386718 v 0.374675 h 0.386718 v 2.13096418 c 0,0.29271486 0.199219,0.45663519 0.550782,0.45663519 0.105469,0 0.210937,-0.0117086 0.363281,-0.04683438 v -0.37467502 c -0.05859,0.0117086 -0.128906,0.0234172 -0.222656,0.0234172 -0.1875,0 -0.246094,-0.058543 -0.246094,-0.25758908 V -2.4601284 h 0.46875 z m 1.007813,-1.1006079 h -0.457031 v 3.93408773 h 0.457031 z m 3.263673,3.66479005 c -0.04687,0.0117086 -0.07031,0.0117086 -0.09375,0.0117086 -0.164062,0 -0.246094,-0.0819602 -0.246094,-0.2224633 V -2.1439964 c 0,-0.4917609 -0.363281,-0.7610586 -1.054687,-0.7610586 -0.410157,0 -0.750001,0.1170859 -0.94922,0.3278406 -0.128906,0.1405032 -0.175781,0.3044235 -0.1875,0.5854298 h 0.457032 c 0.03516,-0.3512579 0.234375,-0.5034696 0.65625,-0.5034696 0.410156,0 0.632813,0.1522117 0.632813,0.4215094 v 0.1170859 c 0,0.1873376 -0.117188,0.2692977 -0.46875,0.3161321 -0.632813,0.08196 -0.738282,0.1053773 -0.902344,0.1756289 -0.328126,0.1287946 -0.503907,0.3863836 -0.503907,0.74935006 0,0.51517816 0.363281,0.84301881 0.925782,0.84301881 0.363281,0 0.644531,-0.12879454 0.960938,-0.4215094 0.03516,0.29271486 0.175781,0.4215094 0.46875,0.4215094 0.09375,0 0.164062,-0.0117086 0.304687,-0.05854297 z m -0.785156,-0.62055551 c 0,0.15221173 -0.04687,0.24588049 -0.175782,0.36296643 -0.1875,0.17562892 -0.410156,0.25758908 -0.667969,0.25758908 -0.351562,0 -0.5625,-0.16392032 -0.5625,-0.45663518 0,-0.29271487 0.199219,-0.44492657 0.679688,-0.51517817 0.480469,-0.070252 0.574219,-0.08196 0.726563,-0.1522117 z m 3.503907,0.88985319 V -2.8348034 h -0.445312 v 1.6040774 c 0,0.58542973 -0.304688,0.96010475 -0.773438,0.96010475 -0.363281,0 -0.585938,-0.2107547 -0.585938,-0.56201253 V -2.8348034 H 18.95078 v 2.18950713 c 0,0.46834378 0.351562,0.77276724 0.902344,0.77276724 0.410156,0 0.679687,-0.15221173 0.9375,-0.52688676 v 0.39809222 z M 22.99375,-2.8348034 H 22.525 v -0.433218 c 0,-0.1990462 0.105469,-0.2927149 0.304687,-0.2927149 0.04687,0 0.05859,0 0.164063,0.011709 v -0.374675 c -0.105469,-0.023417 -0.164063,-0.023417 -0.257813,-0.023417 -0.410156,0 -0.667969,0.2341719 -0.667969,0.6322641 v 0.4800524 h -0.375 v 0.374675 h 0.375 v 2.45880483 H 22.525 V -2.4601284 h 0.46875 z M 73.0592,-5.5482702 h -1.640626 v 0.433218 h 1.195313 v 0.1170859 c 0,0.6908071 -0.515625,1.2059853 -1.230469,1.2059853 -0.398438,0 -0.761719,-0.1522118 -0.996094,-0.3980923 -0.257813,-0.2810062 -0.410157,-0.74935 -0.410157,-1.241111 0,-0.9601047 0.550782,-1.6040774 1.382813,-1.6040774 0.597657,0 1.031251,0.3044234 1.136719,0.8196016 h 0.515626 C 72.8717,-7.0118445 72.262324,-7.4801883 71.35998,-7.4801883 c -0.480469,0 -0.867188,0.1287945 -1.171875,0.3863836 -0.457032,0.374675 -0.714844,0.9835219 -0.714844,1.6860376 0,1.2176938 0.738281,2.0607126 1.804688,2.0607126 0.527344,0 0.960938,-0.1990461 1.335938,-0.6322641 l 0.128906,0.5268868 H 73.0592 Z m 3.146485,0.807893 c 0,-0.433218 -0.03516,-0.6908071 -0.117187,-0.9015618 -0.175782,-0.4683438 -0.609376,-0.7376414 -1.136719,-0.7376414 -0.785157,0 -1.300782,0.5971383 -1.300782,1.5221172 0,0.9366876 0.492187,1.5104087 1.289063,1.5104087 0.644531,0 1.089844,-0.374675 1.207031,-0.9835219 H 75.69006 c -0.117187,0.374675 -0.375,0.5620125 -0.738281,0.5620125 -0.281251,0 -0.527344,-0.1287945 -0.679688,-0.3629664 -0.105469,-0.1639203 -0.140625,-0.3278406 -0.152344,-0.6088469 z m -2.074219,-0.3629664 c 0.04687,-0.5268868 0.363281,-0.866436 0.808594,-0.866436 0.445312,0 0.785156,0.3629664 0.785156,0.8313102 0,0.011709 0,0.023417 0,0.035126 z m 5.296877,1.6274946 0.832031,-2.8334799 h -0.515625 l -0.550781,2.2129244 -0.562501,-2.2129244 h -0.550781 l -0.539063,2.2129244 -0.574219,-2.2129244 h -0.492187 l 0.820312,2.8334799 h 0.503907 l 0.539063,-2.2129244 0.574219,2.2129244 z m 1.781251,-2.8334799 h -0.445313 v 2.8334799 h 0.445313 z m 0,-1.1006079 h -0.457032 v 0.5620126 h 0.457032 z m 0.764648,1.1006079 v 2.8334799 h 0.457032 v -1.5572431 c 0,-0.5854297 0.304687,-0.9601047 0.761719,-0.9601047 0.363281,0 0.585937,0.2224633 0.585937,0.5620125 v 1.9553353 h 0.445313 v -2.1426728 c 0,-0.4683438 -0.351562,-0.7610586 -0.890625,-0.7610586 -0.421875,0 -0.691407,0.1522117 -0.937501,0.5503039 v -0.4800524 z m 3.000001,0 v 2.8334799 h 0.457032 v -1.5572431 c 0,-0.5854297 0.304688,-0.9601047 0.761719,-0.9601047 0.363281,0 0.585938,0.2224633 0.585938,0.5620125 v 1.9553353 h 0.445312 v -2.1426728 c 0,-0.4683438 -0.351562,-0.7610586 -0.890625,-0.7610586 -0.421875,0 -0.691407,0.1522117 -0.9375,0.5503039 v -0.4800524 z m 5.390628,1.5689517 c 0,-0.433218 -0.03516,-0.6908071 -0.117188,-0.9015618 -0.175781,-0.4683438 -0.609375,-0.7376414 -1.136719,-0.7376414 -0.785157,0 -1.300782,0.5971383 -1.300782,1.5221172 0,0.9366876 0.492188,1.5104087 1.289063,1.5104087 0.644532,0 1.089844,-0.374675 1.207032,-0.9835219 h -0.457032 c -0.117187,0.374675 -0.375,0.5620125 -0.738281,0.5620125 -0.28125,0 -0.527344,-0.1287945 -0.679688,-0.3629664 -0.105469,-0.1639203 -0.140625,-0.3278406 -0.152344,-0.6088469 z m -2.07422,-0.3629664 c 0.04687,-0.5268868 0.363281,-0.866436 0.808594,-0.866436 0.445313,0 0.785157,0.3629664 0.785157,0.8313102 0,0.011709 0,0.023417 0,0.035126 z m 2.683595,-1.2059853 v 2.8334799 h 0.445313 v -1.4635743 c 0,-0.4098008 0.105468,-0.6790985 0.328125,-0.8313102 0.128906,-0.1053774 0.269531,-0.1287946 0.585937,-0.1405032 v -0.4566351 c -0.08203,-0.011709 -0.117187,-0.011709 -0.175781,-0.011709 -0.292969,0 -0.515625,0.1639203 -0.773438,0.5854297 v -0.5151782 z m 5.950198,1.0420649 v 1.791415 h 0.503906 v -3.9340878 h -0.503906 v 1.6977462 h -2.015626 v -1.6977462 h -0.503907 v 3.9340878 h 0.503907 v -1.791415 z m 3.758786,1.5221173 c -0.0469,0.011709 -0.0703,0.011709 -0.0937,0.011709 -0.16406,0 -0.24609,-0.08196 -0.24609,-0.2224633 v -1.6626204 c 0,-0.491761 -0.363281,-0.7610586 -1.054688,-0.7610586 -0.410156,0 -0.75,0.1170859 -0.949219,0.3278406 -0.128906,0.1405031 -0.175781,0.3044235 -0.1875,0.5854297 h 0.457032 c 0.03516,-0.3512578 0.234375,-0.5034695 0.65625,-0.5034695 0.410156,0 0.632813,0.1522117 0.632813,0.4215094 v 0.1170859 c 0,0.1873375 -0.117188,0.2692977 -0.468751,0.3161321 -0.632812,0.08196 -0.738281,0.1053773 -0.902344,0.1756289 -0.328125,0.1287945 -0.503906,0.3863836 -0.503906,0.74935 0,0.5151782 0.363281,0.8430188 0.925781,0.8430188 0.363282,0 0.644532,-0.1287945 0.960938,-0.4215094 0.03516,0.2927149 0.175784,0.4215094 0.468754,0.4215094 0.0937,0 0.16406,-0.011709 0.30468,-0.058543 z m -0.785152,-0.6205555 c 0,0.1522117 -0.04687,0.2458805 -0.175782,0.3629664 -0.1875,0.175629 -0.410156,0.2575891 -0.667969,0.2575891 -0.351562,0 -0.5625,-0.1639203 -0.5625,-0.4566352 0,-0.2927148 0.199219,-0.4449266 0.679688,-0.5151781 0.480469,-0.070252 0.574219,-0.08196 0.726563,-0.1522117 z m 3.500982,0.8898532 v -2.8334799 h -0.44532 v 1.6040775 c 0,0.5854297 -0.30468,0.9601047 -0.77343,0.9601047 -0.36329,0 -0.58594,-0.2107547 -0.58594,-0.5620125 v -2.0021697 h -0.44532 v 2.1895072 c 0,0.4683438 0.35157,0.7727672 0.90235,0.7727672 0.41016,0 0.67969,-0.1522117 0.9375,-0.5268867 v 0.3980922 z m 0.6914,1.1708595 h 0.44531 v -1.4635744 c 0.2461,0.2927149 0.50391,0.4215094 0.87891,0.4215094 0.72656,0 1.20703,-0.5971383 1.20703,-1.4987001 0,-0.9483961 -0.46875,-1.5338258 -1.21875,-1.5338258 -0.38672,0 -0.6914,0.1639203 -0.90234,0.5034695 v -0.433218 h -0.41016 z m 1.24219,-3.6647901 c 0.49219,0 0.82031,0.4449266 0.82031,1.1123164 0,0.6439727 -0.32812,1.0888993 -0.82031,1.0888993 -0.48047,0 -0.79688,-0.433218 -0.79688,-1.1006078 0,-0.6673899 0.31641,-1.1006079 0.79688,-1.1006079 z m 2.83594,-0.3395493 h -0.46875 v -0.7727672 h -0.44531 v 0.7727672 h -0.38672 v 0.3746751 h 0.38672 v 2.1309642 c 0,0.2927148 0.19921,0.4566351 0.55078,0.4566351 0.10547,0 0.21093,-0.011709 0.36328,-0.046834 v -0.3746751 c -0.0586,0.011709 -0.12891,0.023417 -0.22266,0.023417 -0.1875,0 -0.24609,-0.058543 -0.24609,-0.2575891 v -1.931918 h 0.46875 z m 1.01074,-1.1006079 h -0.45703 v 3.9340878 h 0.45703 z m 3.26074,3.6647901 c -0.0469,0.011709 -0.0703,0.011709 -0.0937,0.011709 -0.16406,0 -0.24609,-0.08196 -0.24609,-0.2224633 v -1.6626204 c 0,-0.491761 -0.36328,-0.7610586 -1.05469,-0.7610586 -0.41015,0 -0.75,0.1170859 -0.94922,0.3278406 -0.1289,0.1405031 -0.17578,0.3044235 -0.1875,0.5854297 h 0.45704 c 0.0352,-0.3512578 0.23437,-0.5034695 0.65625,-0.5034695 0.41015,0 0.63281,0.1522117 0.63281,0.4215094 v 0.1170859 c 0,0.1873375 -0.11719,0.2692977 -0.46875,0.3161321 -0.63281,0.08196 -0.73828,0.1053773 -0.90235,0.1756289 -0.32812,0.1287945 -0.5039,0.3863836 -0.5039,0.74935 0,0.5151782 0.36328,0.8430188 0.92578,0.8430188 0.36328,0 0.64453,-0.1287945 0.96094,-0.4215094 0.0352,0.2927149 0.17578,0.4215094 0.46875,0.4215094 0.0937,0 0.16406,-0.011709 0.30468,-0.058543 z m -0.78515,-0.6205555 c 0,0.1522117 -0.0469,0.2458805 -0.17578,0.3629664 -0.1875,0.175629 -0.41016,0.2575891 -0.66797,0.2575891 -0.35156,0 -0.5625,-0.1639203 -0.5625,-0.4566352 0,-0.2927148 0.19922,-0.4449266 0.67969,-0.5151781 0.48046,-0.070252 0.57421,-0.08196 0.72656,-0.1522117 z m 3.50391,0.8898532 v -2.8334799 h -0.44532 v 1.6040775 c 0,0.5854297 -0.30468,0.9601047 -0.77343,0.9601047 -0.36329,0 -0.58594,-0.2107547 -0.58594,-0.5620125 v -2.0021697 h -0.44532 v 2.1895072 c 0,0.4683438 0.35157,0.7727672 0.90235,0.7727672 0.41016,0 0.67969,-0.1522117 0.9375,-0.5268867 v 0.3980922 z m 1.79297,-2.8334799 h -0.46875 v -0.433218 c 0,-0.1990461 0.10546,-0.2927148 0.30468,-0.2927148 0.0469,0 0.0586,0 0.16407,0.011709 v -0.3746751 c -0.10547,-0.023417 -0.16407,-0.023417 -0.25782,-0.023417 -0.41015,0 -0.66797,0.2341719 -0.66797,0.6322642 v 0.4800523 h -0.375 v 0.3746751 h 0.375 v 2.4588048 h 0.45704 v -2.4588048 h 0.46875 z M 82.223266,1.5647009 h 1.875001 V 1.1197744 h -1.875001 v -1.25281966 h 2.132813 v -0.44492659 h -2.63672 V 3.3561159 h 0.503907 z M 85.28772,0.52263603 H 84.842407 V 3.3561159 h 0.445313 z m 0,-1.10060788 h -0.457031 v 0.56201254 h 0.457031 z m 0.767579,1.10060788 V 3.3561159 H 86.51233 V 1.7988728 c 0,-0.5854297 0.304688,-0.96010471 0.761719,-0.96010471 0.363281,0 0.585938,0.22246331 0.585938,0.56201251 v 1.9553353 h 0.445312 V 1.2134431 c 0,-0.46834377 -0.351562,-0.76105863 -0.890625,-0.76105863 -0.421875,0 -0.691406,0.15221173 -0.9375,0.55030393 V 0.52263603 Z m 5.507814,2.56418217 c -0.04687,0.011709 -0.07031,0.011709 -0.09375,0.011709 -0.164062,0 -0.246094,-0.08196 -0.246094,-0.2224633 V 1.2134431 c 0,-0.49176096 -0.363281,-0.76105863 -1.054688,-0.76105863 -0.410156,0 -0.75,0.11708594 -0.949219,0.32784064 -0.128906,0.14050314 -0.175781,0.30442349 -0.1875,0.58542969 h 0.457032 c 0.03516,-0.3512578 0.234375,-0.50346953 0.65625,-0.50346953 0.410156,0 0.632813,0.15221173 0.632813,0.42150943 v 0.1170859 c 0,0.1873375 -0.117188,0.2692977 -0.46875,0.3161321 -0.632813,0.08196 -0.738282,0.1053773 -0.902345,0.1756289 -0.328125,0.1287945 -0.503906,0.3863836 -0.503906,0.74935 0,0.5151782 0.363281,0.8430188 0.925782,0.8430188 0.363281,0 0.644531,-0.1287945 0.960937,-0.4215094 0.03516,0.2927149 0.175782,0.4215094 0.468751,0.4215094 0.09375,0 0.164062,-0.011709 0.304687,-0.058543 z M 90.777957,2.4662627 c 0,0.1522118 -0.04687,0.2458805 -0.175782,0.3629665 -0.1875,0.1756289 -0.410156,0.257589 -0.667969,0.257589 -0.351562,0 -0.5625,-0.1639203 -0.5625,-0.4566352 0,-0.2927148 0.199219,-0.4449265 0.679688,-0.5151781 0.480469,-0.070252 0.574219,-0.08196 0.726563,-0.1522117 z m 1.722657,-3.04423455 H 92.043582 V 3.3561159 h 0.457032 z M 95.64417,2.0915877 c 0,-0.433218 -0.03516,-0.6908071 -0.117188,-0.9015618 -0.175781,-0.46834376 -0.609375,-0.73764143 -1.136719,-0.73764143 -0.785157,0 -1.300782,0.59713833 -1.300782,1.52211733 0,0.9366875 0.492188,1.5104086 1.289063,1.5104086 0.644532,0 1.089844,-0.374675 1.207032,-0.9835219 h -0.457032 c -0.117187,0.374675 -0.375,0.5620125 -0.738281,0.5620125 -0.28125,0 -0.527344,-0.1287945 -0.679688,-0.3629664 C 93.605106,2.5365143 93.56995,2.372594 93.558231,2.0915877 Z M 93.56995,1.7286213 c 0.04687,-0.5268868 0.363281,-0.86643603 0.808594,-0.86643603 0.445313,0 0.785157,0.36296643 0.785157,0.83131023 0,0.011709 0,0.023417 0,0.035126 z M 98.834601,0.62801338 V 3.3561159 h 0.480469 v -3.8287104 h -0.316407 c -0.164062,0.58542973 -0.28125,0.66738989 -1.007813,0.76105864 v 0.33954924 z m 3.140629,1.04206492 h -1.28907 v 0.3863836 h 1.28907 z m 2.02148,0.7727672 v 0.9132704 h 0.48047 V 2.4428455 h 0.5625 v -0.433218 h -0.5625 v -2.482222 h -0.35156 l -1.73438,2.4119705 v 0.5034695 z m 0,-0.433218 h -1.19531 l 1.19531,-1.67432898 z m 0,0"
       style="fill:#000000;fill-opacity:1;fill-rule:nonzero;stroke:none"
       aria-label="Hauptlauf&#10;Gewinner Hauptlauf&#10;Finale 1-4"
       transform="matrix(1.3333328,0,0,1.3344898,489.9198,222.56036)" />
    <g
       id="g8"
       aria-label="Platzierung:&#10;(nach Eingangsindex)&#10;Verlierer HauptlaufHoffnungslaufFinale 5-8"
       transform="matrix(1.3333328,0,0,1.3344898,548.31978,903.84009)" />
    <path
       id="path11"
       d="m 1884,5421.67 h 161 v 6 h -161 z"
       style="fill:#000000;fill-opacity:1;fill-rule:nonzero;stroke:none"
       transform="matrix(0.16,0,0,-0.16,0,1122.6667)" />
    <path
       id="path12"
       d="m 2057,5421.67 h 158 v 6 h -158 z"
       style="fill:#000000;fill-opacity:1;fill-rule:nonzero;stroke:none"
       transform="matrix(0.16,0,0,-0.16,0,1122.6667)" />
    <path
       id="path13"
       d="m 2227,5421.67 h 498 v 6 h -498 z"
       style="fill:#000000;fill-opacity:1;fill-rule:nonzero;stroke:none"
       transform="matrix(0.16,0,0,-0.16,0,1122.6667)" />
    <path
       id="path14"
       d="m 697,5294.67 h 510 v 12 H 697 Z"
       style="fill:#000000;fill-opacity:1;fill-rule:nonzero;stroke:none"
       transform="matrix(0.16,0,0,-0.16,0,1122.6667)" />
    <path
       id="path15"
       d="m 1878,5306.67 h 6 v 121 h -6 z"
       style="fill:#000000;fill-opacity:1;fill-rule:nonzero;stroke:none"
       transform="matrix(0.16,0,0,-0.16,0,1122.6667)" />
    <path
       id="path16"
       d="m 1377,5294.67 h 510 v 12 h -510 z"
       style="fill:#000000;fill-opacity:1;fill-rule:nonzero;stroke:none"
       transform="matrix(0.16,0,0,-0.16,0,1122.6667)" />
    <path
       id="path17"
       d="m 2057,5294.67 h 680 v 12 h -680 z"
       style="fill:#000000;fill-opacity:1;fill-rule:nonzero;stroke:none"
       transform="matrix(0.16,0,0,-0.16,0,1122.6667)" />
    <path
       id="path18"
       d="m 2898,5306.67 h 6 v 115 h -6 z"
       style="fill:#000000;fill-opacity:1;fill-rule:nonzero;stroke:none"
       transform="matrix(0.16,0,0,-0.16,0,1122.6667)" />
    <path
       id="path19"
       d="m 2907,5294.67 h 510 v 12 h -510 z"
       style="fill:#000000;fill-opacity:1;fill-rule:nonzero;stroke:none"
       transform="matrix(0.16,0,0,-0.16,0,1122.6667)" />
    <path
       id="path20"
       d="m 697,5170.67 h 510 v 12 H 697 Z"
       style="fill:#000000;fill-opacity:1;fill-rule:nonzero;stroke:none"
       transform="matrix(0.16,0,0,-0.16,0,1122.6667)" />
    <path
       id="path21"
       d="m 1207,5173.67 h 158 v 6 h -158 z"
       style="fill:#000000;fill-opacity:1;fill-rule:nonzero;stroke:none"
       transform="matrix(0.16,0,0,-0.16,0,1122.6667)" />
    <path
       id="path22"
       d="m 1377,5173.67 h 498 v 6 h -498 z"
       style="fill:#000000;fill-opacity:1;fill-rule:nonzero;stroke:none"
       transform="matrix(0.16,0,0,-0.16,0,1122.6667)" />
    <path
       id="path23"
       d="m 2907,5173.67 h 498 v 6 h -498 z"
       style="fill:#000000;fill-opacity:1;fill-rule:nonzero;stroke:none"
       transform="matrix(0.16,0,0,-0.16,0,1122.6667)" />
    <path
       id="path24"
       d="m 3417,5173.67 h 158 v 6 h -158 z"
       style="fill:#000000;fill-opacity:1;fill-rule:nonzero;stroke:none"
       transform="matrix(0.16,0,0,-0.16,0,1122.6667)" />
    <path
       id="path25"
       d="m 1875,5046.67 h 12 v 248 h -12 z"
       style="fill:#000000;fill-opacity:1;fill-rule:nonzero;stroke:none"
       transform="matrix(0.16,0,0,-0.16,0,1122.6667)" />
    <path
       id="path26"
       d="m 1377,5046.67 h 510 v 12 h -510 z"
       style="fill:#000000;fill-opacity:1;fill-rule:nonzero;stroke:none"
       transform="matrix(0.16,0,0,-0.16,0,1122.6667)" />
    <path
       id="path27"
       d="m 2045,5294.67 h 12 v 260 h -12 z"
       style="fill:#000000;fill-opacity:1;fill-rule:nonzero;stroke:none"
       transform="matrix(0.16,0,0,-0.16,0,1122.6667)" />
    <path
       id="path28"
       d="m 2215,5294.67 h 12 v 248 h -12 z"
       style="fill:#000000;fill-opacity:1;fill-rule:nonzero;stroke:none"
       transform="matrix(0.16,0,0,-0.16,0,1122.6667)" />
    <path
       id="path29"
       d="m 2725,5294.67 h 12 v 248 h -12 z"
       style="fill:#000000;fill-opacity:1;fill-rule:nonzero;stroke:none"
       transform="matrix(0.16,0,0,-0.16,0,1122.6667)" />
    <path
       id="path30"
       d="m 2057,5046.67 h 680 v 12 h -680 z"
       style="fill:#000000;fill-opacity:1;fill-rule:nonzero;stroke:none"
       transform="matrix(0.16,0,0,-0.16,0,1122.6667)" />
    <path
       id="path31"
       d="m 2895,5046.67 h 12 v 260 h -12 z"
       style="fill:#000000;fill-opacity:1;fill-rule:nonzero;stroke:none"
       transform="matrix(0.16,0,0,-0.16,0,1122.6667)" />
    <path
       id="path32"
       d="m 1884,4925.67 h 161 v 6 h -161 z"
       style="fill:#000000;fill-opacity:1;fill-rule:nonzero;stroke:none"
       transform="matrix(0.16,0,0,-0.16,0,1122.6667)" />
    <path
       id="path33"
       d="m 2057,4925.67 h 158 v 6 h -158 z"
       style="fill:#000000;fill-opacity:1;fill-rule:nonzero;stroke:none"
       transform="matrix(0.16,0,0,-0.16,0,1122.6667)" />
    <path
       id="path34"
       d="m 2227,4925.67 h 498 v 6 h -498 z"
       style="fill:#000000;fill-opacity:1;fill-rule:nonzero;stroke:none"
       transform="matrix(0.16,0,0,-0.16,0,1122.6667)" />
    <path
       id="path35"
       d="m 2045,4798.67 h 12 v 260 h -12 z"
       style="fill:#000000;fill-opacity:1;fill-rule:nonzero;stroke:none"
       transform="matrix(0.16,0,0,-0.16,0,1122.6667)" />
    <path
       id="path36"
       d="m 2215,4798.67 h 12 v 248 h -12 z"
       style="fill:#000000;fill-opacity:1;fill-rule:nonzero;stroke:none"
       transform="matrix(0.16,0,0,-0.16,0,1122.6667)" />
    <path
       id="path37"
       d="m 2725,4798.67 h 12 v 248 h -12 z"
       style="fill:#000000;fill-opacity:1;fill-rule:nonzero;stroke:none"
       transform="matrix(0.16,0,0,-0.16,0,1122.6667)" />
    <path
       id="path38"
       d="m 1878,4925.67 h 6 v 121 h -6 z"
       style="fill:#000000;fill-opacity:1;fill-rule:nonzero;stroke:none"
       transform="matrix(0.16,0,0,-0.16,0,1122.6667)" />
    <path
       id="path39"
       d="m 1884,4429.67 h 161 v 6 h -161 z"
       style="fill:#000000;fill-opacity:1;fill-rule:nonzero;stroke:none"
       transform="matrix(0.16,0,0,-0.16,0,1122.6667)" />
    <path
       id="path40"
       d="m 2057,4429.67 h 158 v 6 h -158 z"
       style="fill:#000000;fill-opacity:1;fill-rule:nonzero;stroke:none"
       transform="matrix(0.16,0,0,-0.16,0,1122.6667)" />
    <path
       id="path41"
       d="m 2227,4429.67 h 498 v 6 h -498 z"
       style="fill:#000000;fill-opacity:1;fill-rule:nonzero;stroke:none"
       transform="matrix(0.16,0,0,-0.16,0,1122.6667)" />
    <path
       id="path42"
       d="m 2898,4925.67 h 6 v 121 h -6 z"
       style="fill:#000000;fill-opacity:1;fill-rule:nonzero;stroke:none"
       transform="matrix(0.16,0,0,-0.16,0,1122.6667)" />
    <path
       id="path43"
       d="m 685,5170.67 h 12 v 136 h -12 z"
       style="fill:#000000;fill-opacity:1;fill-rule:nonzero;stroke:none"
       transform="matrix(0.16,0,0,-0.16,0,1122.6667)" />
    <path
       id="path44"
       d="m 1195,5170.67 h 12 v 124 h -12 z"
       style="fill:#000000;fill-opacity:1;fill-rule:nonzero;stroke:none"
       transform="matrix(0.16,0,0,-0.16,0,1122.6667)" />
    <path
       id="path45"
       d="m 697,4302.67 h 510 v 12 H 697 Z"
       style="fill:#000000;fill-opacity:1;fill-rule:nonzero;stroke:none"
       transform="matrix(0.16,0,0,-0.16,0,1122.6667)" />
    <path
       id="path46"
       d="m 1365,5046.67 h 12 v 260 h -12 z"
       style="fill:#000000;fill-opacity:1;fill-rule:nonzero;stroke:none"
       transform="matrix(0.16,0,0,-0.16,0,1122.6667)" />
    <path
       id="path47"
       d="m 1878,4314.67 h 6 v 121 h -6 z"
       style="fill:#000000;fill-opacity:1;fill-rule:nonzero;stroke:none"
       transform="matrix(0.16,0,0,-0.16,0,1122.6667)" />
    <path
       id="path48"
       d="m 1377,4302.67 h 510 v 12 h -510 z"
       style="fill:#000000;fill-opacity:1;fill-rule:nonzero;stroke:none"
       transform="matrix(0.16,0,0,-0.16,0,1122.6667)" />
    <path
       id="path49"
       d="m 2057,4302.67 h 680 v 12 h -680 z"
       style="fill:#000000;fill-opacity:1;fill-rule:nonzero;stroke:none"
       transform="matrix(0.16,0,0,-0.16,0,1122.6667)" />
    <path
       id="path50"
       d="m 2898,4314.67 h 6 v 115 h -6 z"
       style="fill:#000000;fill-opacity:1;fill-rule:nonzero;stroke:none"
       transform="matrix(0.16,0,0,-0.16,0,1122.6667)" />
    <path
       id="path51"
       d="m 3405,5046.67 h 12 v 248 h -12 z"
       style="fill:#000000;fill-opacity:1;fill-rule:nonzero;stroke:none"
       transform="matrix(0.16,0,0,-0.16,0,1122.6667)" />
    <path
       id="path52"
       d="m 2907,4302.67 h 510 v 12 h -510 z"
       style="fill:#000000;fill-opacity:1;fill-rule:nonzero;stroke:none"
       transform="matrix(0.16,0,0,-0.16,0,1122.6667)" />
    <path
       id="path53"
       d="m 3575,5170.67 h 12 v 136 h -12 z"
       style="fill:#000000;fill-opacity:1;fill-rule:nonzero;stroke:none"
       transform="matrix(0.16,0,0,-0.16,0,1122.6667)" />
    <path
       id="path54"
       d="m 4085,5170.67 h 12 v 124 h -12 z"
       style="fill:#000000;fill-opacity:1;fill-rule:nonzero;stroke:none"
       transform="matrix(0.16,0,0,-0.16,0,1122.6667)" />
    <path
       id="path55"
       d="m 697,4178.67 h 510 v 12 H 697 Z"
       style="fill:#000000;fill-opacity:1;fill-rule:nonzero;stroke:none"
       transform="matrix(0.16,0,0,-0.16,0,1122.6667)" />
    <path
       id="path56"
       d="m 1207,4181.67 h 158 v 6 h -158 z"
       style="fill:#000000;fill-opacity:1;fill-rule:nonzero;stroke:none"
       transform="matrix(0.16,0,0,-0.16,0,1122.6667)" />
    <path
       id="path57"
       d="m 1377,4181.67 h 498 v 6 h -498 z"
       style="fill:#000000;fill-opacity:1;fill-rule:nonzero;stroke:none"
       transform="matrix(0.16,0,0,-0.16,0,1122.6667)" />
    <path
       id="path58"
       d="m 2907,4181.67 h 498 v 6 h -498 z"
       style="fill:#000000;fill-opacity:1;fill-rule:nonzero;stroke:none"
       transform="matrix(0.16,0,0,-0.16,0,1122.6667)" />
    <path
       id="path59"
       d="m 3417,4181.67 h 158 v 6 h -158 z"
       style="fill:#000000;fill-opacity:1;fill-rule:nonzero;stroke:none"
       transform="matrix(0.16,0,0,-0.16,0,1122.6667)" />
    <path
       id="path60"
       d="m 1875,4054.67 h 12 v 248 h -12 z"
       style="fill:#000000;fill-opacity:1;fill-rule:nonzero;stroke:none"
       transform="matrix(0.16,0,0,-0.16,0,1122.6667)" />
    <path
       id="path61"
       d="m 1377,4054.67 h 510 v 12 h -510 z"
       style="fill:#000000;fill-opacity:1;fill-rule:nonzero;stroke:none"
       transform="matrix(0.16,0,0,-0.16,0,1122.6667)" />
    <path
       id="path62"
       d="m 2045,4302.67 h 12 v 260 h -12 z"
       style="fill:#000000;fill-opacity:1;fill-rule:nonzero;stroke:none"
       transform="matrix(0.16,0,0,-0.16,0,1122.6667)" />
    <path
       id="path63"
       d="m 2215,4302.67 h 12 v 248 h -12 z"
       style="fill:#000000;fill-opacity:1;fill-rule:nonzero;stroke:none"
       transform="matrix(0.16,0,0,-0.16,0,1122.6667)" />
    <path
       id="path64"
       d="m 2725,4302.67 h 12 v 248 h -12 z"
       style="fill:#000000;fill-opacity:1;fill-rule:nonzero;stroke:none"
       transform="matrix(0.16,0,0,-0.16,0,1122.6667)" />
    <path
       id="path65"
       d="m 2057,4054.67 h 680 v 12 h -680 z"
       style="fill:#000000;fill-opacity:1;fill-rule:nonzero;stroke:none"
       transform="matrix(0.16,0,0,-0.16,0,1122.6667)" />
    <path
       id="path66"
       d="m 2895,4054.67 h 12 v 260 h -12 z"
       style="fill:#000000;fill-opacity:1;fill-rule:nonzero;stroke:none"
       transform="matrix(0.16,0,0,-0.16,0,1122.6667)" />
    <path
       id="path67"
       d="m 1884,3933.67 h 161 v 6 h -161 z"
       style="fill:#000000;fill-opacity:1;fill-rule:nonzero;stroke:none"
       transform="matrix(0.16,0,0,-0.16,0,1122.6667)" />
    <path
       id="path68"
       d="m 2057,3933.67 h 158 v 6 h -158 z"
       style="fill:#000000;fill-opacity:1;fill-rule:nonzero;stroke:none"
       transform="matrix(0.16,0,0,-0.16,0,1122.6667)" />
    <path
       id="path69"
       d="m 2227,3933.67 h 498 v 6 h -498 z"
       style="fill:#000000;fill-opacity:1;fill-rule:nonzero;stroke:none"
       transform="matrix(0.16,0,0,-0.16,0,1122.6667)" />
    <path
       id="path70"
       d="m 2045,3806.67 h 12 v 260 h -12 z"
       style="fill:#000000;fill-opacity:1;fill-rule:nonzero;stroke:none"
       transform="matrix(0.16,0,0,-0.16,0,1122.6667)" />
    <path
       id="path71"
       d="m 2215,3806.67 h 12 v 248 h -12 z"
       style="fill:#000000;fill-opacity:1;fill-rule:nonzero;stroke:none"
       transform="matrix(0.16,0,0,-0.16,0,1122.6667)" />
    <path
       id="path72"
       d="m 2725,3806.67 h 12 v 248 h -12 z"
       style="fill:#000000;fill-opacity:1;fill-rule:nonzero;stroke:none"
       transform="matrix(0.16,0,0,-0.16,0,1122.6667)" />
    <path
       id="path73"
       d="m 1878,3933.67 h 6 v 121 h -6 z"
       style="fill:#000000;fill-opacity:1;fill-rule:nonzero;stroke:none"
       transform="matrix(0.16,0,0,-0.16,0,1122.6667)" />
    <path
       id="path74"
       d="m 1884,3437.67 h 161 v 6 h -161 z"
       style="fill:#000000;fill-opacity:1;fill-rule:nonzero;stroke:none"
       transform="matrix(0.16,0,0,-0.16,0,1122.6667)" />
    <path
       id="path75"
       d="m 2057,3437.67 h 158 v 6 h -158 z"
       style="fill:#000000;fill-opacity:1;fill-rule:nonzero;stroke:none"
       transform="matrix(0.16,0,0,-0.16,0,1122.6667)" />
    <path
       id="path76"
       d="m 2227,3437.67 h 498 v 6 h -498 z"
       style="fill:#000000;fill-opacity:1;fill-rule:nonzero;stroke:none"
       transform="matrix(0.16,0,0,-0.16,0,1122.6667)" />
    <path
       id="path77"
       d="m 2898,3933.67 h 6 v 121 h -6 z"
       style="fill:#000000;fill-opacity:1;fill-rule:nonzero;stroke:none"
       transform="matrix(0.16,0,0,-0.16,0,1122.6667)" />
    <path
       id="path78"
       d="m 685,4178.67 h 12 v 136 h -12 z"
       style="fill:#000000;fill-opacity:1;fill-rule:nonzero;stroke:none"
       transform="matrix(0.16,0,0,-0.16,0,1122.6667)" />
    <path
       id="path79"
       d="m 1195,4178.67 h 12 v 124 h -12 z"
       style="fill:#000000;fill-opacity:1;fill-rule:nonzero;stroke:none"
       transform="matrix(0.16,0,0,-0.16,0,1122.6667)" />
    <path
       id="path80"
       d="m 697,3310.67 h 510 v 12 H 697 Z"
       style="fill:#000000;fill-opacity:1;fill-rule:nonzero;stroke:none"
       transform="matrix(0.16,0,0,-0.16,0,1122.6667)" />
    <path
       id="path81"
       d="m 1365,4054.67 h 12 v 260 h -12 z"
       style="fill:#000000;fill-opacity:1;fill-rule:nonzero;stroke:none"
       transform="matrix(0.16,0,0,-0.16,0,1122.6667)" />
    <path
       id="path82"
       d="m 1878,3322.67 h 6 v 121 h -6 z"
       style="fill:#000000;fill-opacity:1;fill-rule:nonzero;stroke:none"
       transform="matrix(0.16,0,0,-0.16,0,1122.6667)" />
    <path
       id="path83"
       d="m 1377,3310.67 h 510 v 12 h -510 z"
       style="fill:#000000;fill-opacity:1;fill-rule:nonzero;stroke:none"
       transform="matrix(0.16,0,0,-0.16,0,1122.6667)" />
    <path
       id="path84"
       d="m 2057,3310.67 h 680 v 12 h -680 z"
       style="fill:#000000;fill-opacity:1;fill-rule:nonzero;stroke:none"
       transform="matrix(0.16,0,0,-0.16,0,1122.6667)" />
    <path
       id="path85"
       d="m 2898,3322.67 h 6 v 115 h -6 z"
       style="fill:#000000;fill-opacity:1;fill-rule:nonzero;stroke:none"
       transform="matrix(0.16,0,0,-0.16,0,1122.6667)" />
    <path
       id="path86"
       d="m 3405,4054.67 h 12 v 248 h -12 z"
       style="fill:#000000;fill-opacity:1;fill-rule:nonzero;stroke:none"
       transform="matrix(0.16,0,0,-0.16,0,1122.6667)" />
    <path
       id="path87"
       d="m 2907,3310.67 h 510 v 12 h -510 z"
       style="fill:#000000;fill-opacity:1;fill-rule:nonzero;stroke:none"
       transform="matrix(0.16,0,0,-0.16,0,1122.6667)" />
    <path
       id="path88"
       d="m 3575,4178.67 h 12 v 136 h -12 z"
       style="fill:#000000;fill-opacity:1;fill-rule:nonzero;stroke:none"
       transform="matrix(0.16,0,0,-0.16,0,1122.6667)" />
    <path
       id="path89"
       d="m 4085,4178.67 h 12 v 124 h -12 z"
       style="fill:#000000;fill-opacity:1;fill-rule:nonzero;stroke:none"
       transform="matrix(0.16,0,0,-0.16,0,1122.6667)" />
    <path
       id="path90"
       d="m 697,3186.67 h 510 v 12 H 697 Z"
       style="fill:#000000;fill-opacity:1;fill-rule:nonzero;stroke:none"
       transform="matrix(0.16,0,0,-0.16,0,1122.6667)" />
    <path
       id="path91"
       d="m 1207,3189.67 h 158 v 6 h -158 z"
       style="fill:#000000;fill-opacity:1;fill-rule:nonzero;stroke:none"
       transform="matrix(0.16,0,0,-0.16,0,1122.6667)" />
    <path
       id="path92"
       d="m 1377,3189.67 h 498 v 6 h -498 z"
       style="fill:#000000;fill-opacity:1;fill-rule:nonzero;stroke:none"
       transform="matrix(0.16,0,0,-0.16,0,1122.6667)" />
    <path
       id="path93"
       d="m 2907,3189.67 h 498 v 6 h -498 z"
       style="fill:#000000;fill-opacity:1;fill-rule:nonzero;stroke:none"
       transform="matrix(0.16,0,0,-0.16,0,1122.6667)" />
    <path
       id="path94"
       d="m 3417,3189.67 h 158 v 6 h -158 z"
       style="fill:#000000;fill-opacity:1;fill-rule:nonzero;stroke:none"
       transform="matrix(0.16,0,0,-0.16,0,1122.6667)" />
    <path
       id="path95"
       d="m 1875,3062.67 h 12 v 248 h -12 z"
       style="fill:#000000;fill-opacity:1;fill-rule:nonzero;stroke:none"
       transform="matrix(0.16,0,0,-0.16,0,1122.6667)" />
    <path
       id="path96"
       d="m 1377,3062.67 h 510 v 12 h -510 z"
       style="fill:#000000;fill-opacity:1;fill-rule:nonzero;stroke:none"
       transform="matrix(0.16,0,0,-0.16,0,1122.6667)" />
    <path
       id="path97"
       d="m 2045,3310.67 h 12 v 260 h -12 z"
       style="fill:#000000;fill-opacity:1;fill-rule:nonzero;stroke:none"
       transform="matrix(0.16,0,0,-0.16,0,1122.6667)" />
    <path
       id="path98"
       d="m 2215,3310.67 h 12 v 248 h -12 z"
       style="fill:#000000;fill-opacity:1;fill-rule:nonzero;stroke:none"
       transform="matrix(0.16,0,0,-0.16,0,1122.6667)" />
    <path
       id="path99"
       d="m 2725,3310.67 h 12 v 248 h -12 z"
       style="fill:#000000;fill-opacity:1;fill-rule:nonzero;stroke:none"
       transform="matrix(0.16,0,0,-0.16,0,1122.6667)" />
    <path
       id="path100"
       d="m 2057,3062.67 h 680 v 12 h -680 z"
       style="fill:#000000;fill-opacity:1;fill-rule:nonzero;stroke:none"
       transform="matrix(0.16,0,0,-0.16,0,1122.6667)" />
    <path
       id="path101"
       d="m 2895,3062.67 h 12 v 260 h -12 z"
       style="fill:#000000;fill-opacity:1;fill-rule:nonzero;stroke:none"
       transform="matrix(0.16,0,0,-0.16,0,1122.6667)" />
    <path
       id="path102"
       d="m 1884,2941.67 h 161 v 6 h -161 z"
       style="fill:#000000;fill-opacity:1;fill-rule:nonzero;stroke:none"
       transform="matrix(0.16,0,0,-0.16,0,1122.6667)" />
    <path
       id="path103"
       d="m 2057,2941.67 h 158 v 6 h -158 z"
       style="fill:#000000;fill-opacity:1;fill-rule:nonzero;stroke:none"
       transform="matrix(0.16,0,0,-0.16,0,1122.6667)" />
    <path
       id="path104"
       d="m 2227,2941.67 h 498 v 6 h -498 z"
       style="fill:#000000;fill-opacity:1;fill-rule:nonzero;stroke:none"
       transform="matrix(0.16,0,0,-0.16,0,1122.6667)" />
    <path
       id="path105"
       d="m 2045,2814.67 h 12 v 260 h -12 z"
       style="fill:#000000;fill-opacity:1;fill-rule:nonzero;stroke:none"
       transform="matrix(0.16,0,0,-0.16,0,1122.6667)" />
    <path
       id="path106"
       d="m 2215,2814.67 h 12 v 248 h -12 z"
       style="fill:#000000;fill-opacity:1;fill-rule:nonzero;stroke:none"
       transform="matrix(0.16,0,0,-0.16,0,1122.6667)" />
    <path
       id="path107"
       d="m 2725,2814.67 h 12 v 248 h -12 z"
       style="fill:#000000;fill-opacity:1;fill-rule:nonzero;stroke:none"
       transform="matrix(0.16,0,0,-0.16,0,1122.6667)" />
    <path
       id="path108"
       d="m 1878,2941.67 h 6 v 121 h -6 z"
       style="fill:#000000;fill-opacity:1;fill-rule:nonzero;stroke:none"
       transform="matrix(0.16,0,0,-0.16,0,1122.6667)" />
    <path
       id="path109"
       d="m 1884,2445.67 h 161 v 6 h -161 z"
       style="fill:#000000;fill-opacity:1;fill-rule:nonzero;stroke:none"
       transform="matrix(0.16,0,0,-0.16,0,1122.6667)" />
    <path
       id="path110"
       d="m 2057,2445.67 h 158 v 6 h -158 z"
       style="fill:#000000;fill-opacity:1;fill-rule:nonzero;stroke:none"
       transform="matrix(0.16,0,0,-0.16,0,1122.6667)" />
    <path
       id="path111"
       d="m 2227,2445.67 h 498 v 6 h -498 z"
       style="fill:#000000;fill-opacity:1;fill-rule:nonzero;stroke:none"
       transform="matrix(0.16,0,0,-0.16,0,1122.6667)" />
    <path
       id="path112"
       d="m 2898,2941.67 h 6 v 121 h -6 z"
       style="fill:#000000;fill-opacity:1;fill-rule:nonzero;stroke:none"
       transform="matrix(0.16,0,0,-0.16,0,1122.6667)" />
    <path
       id="path113"
       d="m 685,3186.67 h 12 v 136 h -12 z"
       style="fill:#000000;fill-opacity:1;fill-rule:nonzero;stroke:none"
       transform="matrix(0.16,0,0,-0.16,0,1122.6667)" />
    <path
       id="path114"
       d="m 1195,3186.67 h 12 v 124 h -12 z"
       style="fill:#000000;fill-opacity:1;fill-rule:nonzero;stroke:none"
       transform="matrix(0.16,0,0,-0.16,0,1122.6667)" />
    <path
       id="path115"
       d="m 697,2318.67 h 510 v 12 H 697 Z"
       style="fill:#000000;fill-opacity:1;fill-rule:nonzero;stroke:none"
       transform="matrix(0.16,0,0,-0.16,0,1122.6667)" />
    <path
       id="path116"
       d="m 1365,3062.67 h 12 v 260 h -12 z"
       style="fill:#000000;fill-opacity:1;fill-rule:nonzero;stroke:none"
       transform="matrix(0.16,0,0,-0.16,0,1122.6667)" />
    <path
       id="path117"
       d="m 1878,2330.67 h 6 v 121 h -6 z"
       style="fill:#000000;fill-opacity:1;fill-rule:nonzero;stroke:none"
       transform="matrix(0.16,0,0,-0.16,0,1122.6667)" />
    <path
       id="path118"
       d="m 1377,2318.67 h 510 v 12 h -510 z"
       style="fill:#000000;fill-opacity:1;fill-rule:nonzero;stroke:none"
       transform="matrix(0.16,0,0,-0.16,0,1122.6667)" />
    <path
       id="path119"
       d="m 2057,2318.67 h 680 v 12 h -680 z"
       style="fill:#000000;fill-opacity:1;fill-rule:nonzero;stroke:none"
       transform="matrix(0.16,0,0,-0.16,0,1122.6667)" />
    <path
       id="path120"
       d="m 2898,2330.67 h 6 v 115 h -6 z"
       style="fill:#000000;fill-opacity:1;fill-rule:nonzero;stroke:none"
       transform="matrix(0.16,0,0,-0.16,0,1122.6667)" />
    <path
       id="path121"
       d="m 3405,3062.67 h 12 v 248 h -12 z"
       style="fill:#000000;fill-opacity:1;fill-rule:nonzero;stroke:none"
       transform="matrix(0.16,0,0,-0.16,0,1122.6667)" />
    <path
       id="path122"
       d="m 2907,2318.67 h 510 v 12 h -510 z"
       style="fill:#000000;fill-opacity:1;fill-rule:nonzero;stroke:none"
       transform="matrix(0.16,0,0,-0.16,0,1122.6667)" />
    <path
       id="path123"
       d="m 3575,3186.67 h 12 v 136 h -12 z"
       style="fill:#000000;fill-opacity:1;fill-rule:nonzero;stroke:none"
       transform="matrix(0.16,0,0,-0.16,0,1122.6667)" />
    <path
       id="path124"
       d="m 4085,3186.67 h 12 v 124 h -12 z"
       style="fill:#000000;fill-opacity:1;fill-rule:nonzero;stroke:none"
       transform="matrix(0.16,0,0,-0.16,0,1122.6667)" />
    <path
       id="path125"
       d="m 697,2194.67 h 510 v 12 H 697 Z"
       style="fill:#000000;fill-opacity:1;fill-rule:nonzero;stroke:none"
       transform="matrix(0.16,0,0,-0.16,0,1122.6667)" />
    <path
       id="path126"
       d="m 1207,2197.67 h 158 v 6 h -158 z"
       style="fill:#000000;fill-opacity:1;fill-rule:nonzero;stroke:none"
       transform="matrix(0.16,0,0,-0.16,0,1122.6667)" />
    <path
       id="path127"
       d="m 1377,2197.67 h 498 v 6 h -498 z"
       style="fill:#000000;fill-opacity:1;fill-rule:nonzero;stroke:none"
       transform="matrix(0.16,0,0,-0.16,0,1122.6667)" />
    <path
       id="path128"
       d="m 2907,2197.67 h 498 v 6 h -498 z"
       style="fill:#000000;fill-opacity:1;fill-rule:nonzero;stroke:none"
       transform="matrix(0.16,0,0,-0.16,0,1122.6667)" />
    <path
       id="path129"
       d="m 3417,2197.67 h 158 v 6 h -158 z"
       style="fill:#000000;fill-opacity:1;fill-rule:nonzero;stroke:none"
       transform="matrix(0.16,0,0,-0.16,0,1122.6667)" />
    <path
       id="path130"
       d="m 1875,2070.67 h 12 v 248 h -12 z"
       style="fill:#000000;fill-opacity:1;fill-rule:nonzero;stroke:none"
       transform="matrix(0.16,0,0,-0.16,0,1122.6667)" />
    <path
       id="path131"
       d="m 1377,2070.67 h 510 v 12 h -510 z"
       style="fill:#000000;fill-opacity:1;fill-rule:nonzero;stroke:none"
       transform="matrix(0.16,0,0,-0.16,0,1122.6667)" />
    <path
       id="path132"
       d="m 2045,2318.67 h 12 v 260 h -12 z"
       style="fill:#000000;fill-opacity:1;fill-rule:nonzero;stroke:none"
       transform="matrix(0.16,0,0,-0.16,0,1122.6667)" />
    <path
       id="path133"
       d="m 2215,2318.67 h 12 v 248 h -12 z"
       style="fill:#000000;fill-opacity:1;fill-rule:nonzero;stroke:none"
       transform="matrix(0.16,0,0,-0.16,0,1122.6667)" />
    <path
       id="path134"
       d="m 2725,2318.67 h 12 v 248 h -12 z"
       style="fill:#000000;fill-opacity:1;fill-rule:nonzero;stroke:none"
       transform="matrix(0.16,0,0,-0.16,0,1122.6667)" />
    <path
       id="path135"
       d="m 2057,2070.67 h 680 v 12 h -680 z"
       style="fill:#000000;fill-opacity:1;fill-rule:nonzero;stroke:none"
       transform="matrix(0.16,0,0,-0.16,0,1122.6667)" />
    <path
       id="path136"
       d="m 2895,2070.67 h 12 v 260 h -12 z"
       style="fill:#000000;fill-opacity:1;fill-rule:nonzero;stroke:none"
       transform="matrix(0.16,0,0,-0.16,0,1122.6667)" />
    <path
       id="path137"
       d="m 1884,1949.67 h 161 v 6 h -161 z"
       style="fill:#000000;fill-opacity:1;fill-rule:nonzero;stroke:none"
       transform="matrix(0.16,0,0,-0.16,0,1122.6667)" />
    <path
       id="path138"
       d="m 2057,1949.67 h 158 v 6 h -158 z"
       style="fill:#000000;fill-opacity:1;fill-rule:nonzero;stroke:none"
       transform="matrix(0.16,0,0,-0.16,0,1122.6667)" />
    <path
       id="path139"
       d="m 2227,1949.67 h 498 v 6 h -498 z"
       style="fill:#000000;fill-opacity:1;fill-rule:nonzero;stroke:none"
       transform="matrix(0.16,0,0,-0.16,0,1122.6667)" />
    <path
       id="path140"
       d="m 685,2194.67 h 12 v 136 h -12 z"
       style="fill:#000000;fill-opacity:1;fill-rule:nonzero;stroke:none"
       transform="matrix(0.16,0,0,-0.16,0,1122.6667)" />
    <path
       id="path141"
       d="m 1365,2070.67 h 12 v 260 h -12 z"
       style="fill:#000000;fill-opacity:1;fill-rule:nonzero;stroke:none"
       transform="matrix(0.16,0,0,-0.16,0,1122.6667)" />
    <path
       id="path143"
       d="m 1878,1949.67 h 6 v 121 h -6 z"
       style="fill:#000000;fill-opacity:1;fill-rule:nonzero;stroke:none"
       transform="matrix(0.16,0,0,-0.16,0,1122.6667)" />
    <path
       id="path157"
       d="m 3405,2070.67 h 12 v 248 h -12 z"
       style="fill:#000000;fill-opacity:1;fill-rule:nonzero;stroke:none"
       transform="matrix(0.16,0,0,-0.16,0,1122.6667)" />
    <path
       id="path158"
       d="m 3575,2194.67 h 12 v 136 h -12 z"
       style="fill:#000000;fill-opacity:1;fill-rule:nonzero;stroke:none"
       transform="matrix(0.16,0,0,-0.16,0,1122.6667)" />
    <path
       id="path194"
       d="m 2045,1822.67 h 12 v 260 h -12 z"
       style="fill:#000000;fill-opacity:1;fill-rule:nonzero;stroke:none"
       transform="matrix(0.16,0,0,-0.16,0,1122.6667)" />
    <path
       id="path195"
       d="m 2215,1822.67 h 12 v 248 h -12 z"
       style="fill:#000000;fill-opacity:1;fill-rule:nonzero;stroke:none"
       transform="matrix(0.16,0,0,-0.16,0,1122.6667)" />
    <path
       id="path196"
       d="m 2725,1822.67 h 12 v 248 h -12 z"
       style="fill:#000000;fill-opacity:1;fill-rule:nonzero;stroke:none"
       transform="matrix(0.16,0,0,-0.16,0,1122.6667)" />
    <path
       id="path198"
       d="m 2898,1949.67 h 6 v 121 h -6 z"
       style="fill:#000000;fill-opacity:1;fill-rule:nonzero;stroke:none"
       transform="matrix(0.16,0,0,-0.16,0,1122.6667)" />
    <path
       id="path200"
       d="m 1195,2194.67 h 12 v 124 h -12 z"
       style="fill:#000000;fill-opacity:1;fill-rule:nonzero;stroke:none"
       transform="matrix(0.16,0,0,-0.16,0,1122.6667)" />
    <path
       id="path204"
       d="m 4085,2194.67 h 12 v 124 h -12 z"
       style="fill:#000000;fill-opacity:1;fill-rule:nonzero;stroke:none"
       transform="matrix(0.16,0,0,-0.16,0,1122.6667)" />
    <path
       id="path211"
       d="m 2057,5542.67 h 680 v 12 h -680 z"
       style="fill:#000000;fill-opacity:1;fill-rule:nonzero;stroke:none"
       transform="matrix(0.16,0,0,-0.16,0,1122.6667)" />
    <path
       id="path212"
       d="m 2737,5421.67 h 167 v 6 h -167 z"
       style="fill:#000000;fill-opacity:1;fill-rule:nonzero;stroke:none"
       transform="matrix(0.16,0,0,-0.16,0,1122.6667)" />
    <path
       id="path213"
       d="m 3587,5294.67 h 510 v 12 h -510 z"
       style="fill:#000000;fill-opacity:1;fill-rule:nonzero;stroke:none"
       transform="matrix(0.16,0,0,-0.16,0,1122.6667)" />
    <path
       id="path214"
       d="m 3587,5170.67 h 510 v 12 h -510 z"
       style="fill:#000000;fill-opacity:1;fill-rule:nonzero;stroke:none"
       transform="matrix(0.16,0,0,-0.16,0,1122.6667)" />
    <path
       id="path215"
       d="m 2907,5046.67 h 510 v 12 h -510 z"
       style="fill:#000000;fill-opacity:1;fill-rule:nonzero;stroke:none"
       transform="matrix(0.16,0,0,-0.16,0,1122.6667)" />
    <path
       id="path216"
       d="m 2737,4925.67 h 167 v 6 h -167 z"
       style="fill:#000000;fill-opacity:1;fill-rule:nonzero;stroke:none"
       transform="matrix(0.16,0,0,-0.16,0,1122.6667)" />
    <path
       id="path217"
       d="m 2057,4798.67 h 680 v 12 h -680 z"
       style="fill:#000000;fill-opacity:1;fill-rule:nonzero;stroke:none"
       transform="matrix(0.16,0,0,-0.16,0,1122.6667)" />
    <path
       id="path218"
       d="m 2057,4550.67 h 680 v 12 h -680 z"
       style="fill:#000000;fill-opacity:1;fill-rule:nonzero;stroke:none"
       transform="matrix(0.16,0,0,-0.16,0,1122.6667)" />
    <path
       id="path219"
       d="m 2737,4429.67 h 167 v 6 h -167 z"
       style="fill:#000000;fill-opacity:1;fill-rule:nonzero;stroke:none"
       transform="matrix(0.16,0,0,-0.16,0,1122.6667)" />
    <path
       id="path220"
       d="m 3587,4302.67 h 510 v 12 h -510 z"
       style="fill:#000000;fill-opacity:1;fill-rule:nonzero;stroke:none"
       transform="matrix(0.16,0,0,-0.16,0,1122.6667)" />
    <path
       id="path221"
       d="m 3587,4178.67 h 510 v 12 h -510 z"
       style="fill:#000000;fill-opacity:1;fill-rule:nonzero;stroke:none"
       transform="matrix(0.16,0,0,-0.16,0,1122.6667)" />
    <path
       id="path222"
       d="m 2907,4054.67 h 510 v 12 h -510 z"
       style="fill:#000000;fill-opacity:1;fill-rule:nonzero;stroke:none"
       transform="matrix(0.16,0,0,-0.16,0,1122.6667)" />
    <path
       id="path223"
       d="m 2737,3933.67 h 167 v 6 h -167 z"
       style="fill:#000000;fill-opacity:1;fill-rule:nonzero;stroke:none"
       transform="matrix(0.16,0,0,-0.16,0,1122.6667)" />
    <path
       id="path224"
       d="m 2057,3806.67 h 680 v 12 h -680 z"
       style="fill:#000000;fill-opacity:1;fill-rule:nonzero;stroke:none"
       transform="matrix(0.16,0,0,-0.16,0,1122.6667)" />
    <path
       id="path225"
       d="m 2057,3558.67 h 680 v 12 h -680 z"
       style="fill:#000000;fill-opacity:1;fill-rule:nonzero;stroke:none"
       transform="matrix(0.16,0,0,-0.16,0,1122.6667)" />
    <path
       id="path226"
       d="m 2737,3437.67 h 167 v 6 h -167 z"
       style="fill:#000000;fill-opacity:1;fill-rule:nonzero;stroke:none"
       transform="matrix(0.16,0,0,-0.16,0,1122.6667)" />
    <path
       id="path227"
       d="m 3587,3310.67 h 510 v 12 h -510 z"
       style="fill:#000000;fill-opacity:1;fill-rule:nonzero;stroke:none"
       transform="matrix(0.16,0,0,-0.16,0,1122.6667)" />
    <path
       id="path228"
       d="m 3587,3186.67 h 510 v 12 h -510 z"
       style="fill:#000000;fill-opacity:1;fill-rule:nonzero;stroke:none"
       transform="matrix(0.16,0,0,-0.16,0,1122.6667)" />
    <path
       id="path229"
       d="m 2907,3062.67 h 510 v 12 h -510 z"
       style="fill:#000000;fill-opacity:1;fill-rule:nonzero;stroke:none"
       transform="matrix(0.16,0,0,-0.16,0,1122.6667)" />
    <path
       id="path230"
       d="m 2737,2941.67 h 167 v 6 h -167 z"
       style="fill:#000000;fill-opacity:1;fill-rule:nonzero;stroke:none"
       transform="matrix(0.16,0,0,-0.16,0,1122.6667)" />
    <path
       id="path231"
       d="m 2057,2814.67 h 680 v 12 h -680 z"
       style="fill:#000000;fill-opacity:1;fill-rule:nonzero;stroke:none"
       transform="matrix(0.16,0,0,-0.16,0,1122.6667)" />
    <path
       id="path232"
       d="m 2057,2566.67 h 680 v 12 h -680 z"
       style="fill:#000000;fill-opacity:1;fill-rule:nonzero;stroke:none"
       transform="matrix(0.16,0,0,-0.16,0,1122.6667)" />
    <path
       id="path233"
       d="m 2737,2445.67 h 167 v 6 h -167 z"
       style="fill:#000000;fill-opacity:1;fill-rule:nonzero;stroke:none"
       transform="matrix(0.16,0,0,-0.16,0,1122.6667)" />
    <path
       id="path234"
       d="m 3587,2318.67 h 510 v 12 h -510 z"
       style="fill:#000000;fill-opacity:1;fill-rule:nonzero;stroke:none"
       transform="matrix(0.16,0,0,-0.16,0,1122.6667)" />
    <path
       id="path235"
       d="m 3587,2194.67 h 510 v 12 h -510 z"
       style="fill:#000000;fill-opacity:1;fill-rule:nonzero;stroke:none"
       transform="matrix(0.16,0,0,-0.16,0,1122.6667)" />
    <path
       id="path236"
       d="m 2907,2070.67 h 510 v 12 h -510 z"
       style="fill:#000000;fill-opacity:1;fill-rule:nonzero;stroke:none"
       transform="matrix(0.16,0,0,-0.16,0,1122.6667)" />
    <path
       id="path237"
       d="m 2737,1949.67 h 167 v 6 h -167 z"
       style="fill:#000000;fill-opacity:1;fill-rule:nonzero;stroke:none"
       transform="matrix(0.16,0,0,-0.16,0,1122.6667)" />
    <path
       id="path238"
       d="m 2057,1822.67 h 680 v 12 h -680 z"
       style="fill:#000000;fill-opacity:1;fill-rule:nonzero;stroke:none"
       transform="matrix(0.16,0,0,-0.16,0,1122.6667)" />
  </g>
</svg>
