<?xml version="1.0" encoding="UTF-8" standalone="no"?>
<!-- Created with Inkscape (http://www.inkscape.org/) -->

<svg
   version="1.1"
   id="svg1"
   width="793.33331"
   height="1122.6667"
   viewBox="0 0 793.33331 1122.6667"
   sodipodi:docname="ko-32-oh.svg"
   inkscape:version="1.4.2 (f4327f4, 2025-05-13)"
   xmlns:inkscape="http://www.inkscape.org/namespaces/inkscape"
   xmlns:sodipodi="http://sodipodi.sourceforge.net/DTD/sodipodi-0.dtd"
   xmlns="http://www.w3.org/2000/svg"
   xmlns:svg="http://www.w3.org/2000/svg">
  <defs
     id="defs1" />
  <sodipodi:namedview
     id="namedview1"
     pagecolor="#ffffff"
     bordercolor="#000000"
     borderopacity="0.25"
     inkscape:showpageshadow="2"
     inkscape:pageopacity="0.0"
     inkscape:pagecheckerboard="0"
     inkscape:deskcolor="#d1d1d1"
     inkscape:zoom="0.76526245"
     inkscape:cx="110.41963"
     inkscape:cy="592.60715"
     inkscape:window-width="2514"
     inkscape:window-height="1417"
     inkscape:window-x="38"
     inkscape:window-y="-8"
     inkscape:window-maximized="1"
     inkscape:current-layer="g2">
    <inkscape:page
       x="0"
       y="0"
       inkscape:label="1"
       id="page1"
       width="793.33331"
       height="1122.6667"
       margin="0"
       bleed="0" />
  </sodipodi:namedview>
  <g
     id="g1"
     inkscape:groupmode="layer"
     inkscape:label="1">
    <g
       id="g2"
       aria-label="Platzierung:&#10;(nach Eingangsindex)&#10;1&#10;2&#10;3&#10;4&#10;5&#10;1&#10;6&#10;32&#10;7&#10;8&#10;9&#10;17&#10;10&#10;16&#10;11&#10;12&#10;13&#10;9&#10;14&#10;24&#10;15&#10;16&#10;17&#10;25&#10;18&#10;8&#10;19&#10;20&#10;21&#10;5&#10;22&#10;28&#10;23&#10;24&#10;25&#10;21&#10;26&#10;12&#10;27&#10;28&#10;29&#10;13&#10;30&#10;20&#10;31&#10;32&#10;29&#10;4&#10;3&#10;30&#10;19&#10;14&#10;11&#10;22&#10;27&#10;6&#10;7&#10;26&#10;23&#10;10&#10;15&#10;18&#10;31Platz 3/4&#10;2"
       transform="matrix(1.3333328,0,0,1.334765,575.03977,71.68042)">
      <path
         id="path4"
         d="m -333.3493,71.939783 v 3.2192 h 0.92578 v -4.670766 h -0.62109 c -0.14062,0.55019 -0.62109,0.831138 -1.42969,0.831138 v 0.620428 z m -2.0625,12.042733 c 0.32813,0 0.38672,0 0.53907,0.03512 0.3164,0.09365 0.51562,0.362891 0.51562,0.70237 0,0.409717 -0.29297,0.702371 -0.69141,0.702371 -0.44531,0 -0.67968,-0.245829 -0.70312,-0.725783 h -0.90235 c 0.0117,0.936495 0.6211,1.521804 1.58204,1.521804 0.99609,0 1.64062,-0.585309 1.64062,-1.498392 0,-0.55019 -0.24609,-0.901375 -0.77344,-1.158911 0.4336,-0.269243 0.6211,-0.561897 0.6211,-0.995026 0,-0.772608 -0.58594,-1.275973 -1.48828,-1.275973 -0.53907,0 -0.98438,0.187298 -1.25391,0.526778 -0.17578,0.234123 -0.26953,0.55019 -0.26953,0.971613 v 0.07024 h 0.86719 c 0,-0.24583 0.0234,-0.374598 0.0703,-0.49166 0.082,-0.199005 0.29297,-0.327773 0.5625,-0.327773 0.375,0 0.58594,0.222418 0.58594,0.608722 0,0.468247 -0.26953,0.714077 -0.82032,0.714077 h -0.082 z m 5.66602,1.264268 h -1.98047 c 0.11719,-0.257536 0.26953,-0.386304 0.94922,-0.88967 0.82031,-0.585309 1.05469,-0.948201 1.05469,-1.580334 0,-0.901376 -0.6211,-1.486685 -1.60547,-1.486685 -0.97266,0 -1.53516,0.573602 -1.53516,1.568628 0,0.03512 0,0.09365 0.0117,0.163886 h 0.87891 v -0.15218 c 0,-0.526778 0.24609,-0.819433 0.66797,-0.819433 0.41015,0 0.65625,0.280949 0.65625,0.749196 0,0.515072 -0.16407,0.714077 -1.19532,1.451566 -0.78515,0.538485 -1.03125,0.948201 -1.07812,1.814458 h 3.17578 z m -5.52539,30.327786 v 3.2192 h 0.92578 V 114.123 h -0.62109 c -0.14063,0.55019 -0.6211,0.83114 -1.42969,0.83114 v 0.62043 z m 5.63086,-1.45157 h -3.29297 v 0.81944 h 2.33203 c -0.28125,0.30436 -0.84375,1.15891 -1.03125,1.56863 -0.31641,0.67895 -0.48047,1.28767 -0.60937,2.2827 h 0.92578 c 0.0937,-1.47498 0.57422,-2.61048 1.67578,-3.94498 z m -5.63086,12.3588 v 3.2192 h 0.92578 v -4.67076 h -0.62109 c -0.14063,0.55019 -0.6211,0.83114 -1.42969,0.83114 v 0.62042 z m 5.49023,-0.39801 c -0.0351,-0.29265 -0.10546,-0.44483 -0.22265,-0.62042 -0.2461,-0.33948 -0.66797,-0.53849 -1.17188,-0.53849 -0.58594,0 -1.0664,0.25754 -1.34765,0.72579 -0.26954,0.45654 -0.38672,0.98331 -0.38672,1.82616 0,0.80773 0.0937,1.31109 0.33984,1.68569 0.26953,0.43313 0.75,0.69066 1.3125,0.69066 0.92578,0 1.5586,-0.70237 1.5586,-1.7091 0,-0.90137 -0.55079,-1.5218 -1.35938,-1.5218 -0.375,0 -0.63281,0.11706 -0.92578,0.42142 0.0234,-0.50336 0.0234,-0.50336 0.0586,-0.70237 0.082,-0.42142 0.35156,-0.66725 0.71485,-0.66725 0.30468,0 0.45703,0.11706 0.57421,0.40971 z m -1.5,1.26427 c 0.4336,0 0.70313,0.33948 0.70313,0.85455 0,0.49166 -0.30469,0.85455 -0.70313,0.85455 -0.43359,0 -0.71484,-0.33948 -0.71484,-0.84284 0,-0.51507 0.28125,-0.86626 0.71484,-0.86626 z m -3.39258,33.9889 c 0.0234,0.71407 0.63282,1.25256 1.44141,1.25256 0.59766,0 1.05469,-0.25754 1.32422,-0.72579 0.24609,-0.42142 0.39844,-1.12379 0.39844,-1.87298 0,-0.67896 -0.11719,-1.21745 -0.32813,-1.56863 -0.29297,-0.50337 -0.76172,-0.77261 -1.32422,-0.77261 -0.9375,0 -1.57031,0.67896 -1.57031,1.65057 0,0.95991 0.5625,1.62716 1.39453,1.62716 0.23438,0 0.46875,-0.0702 0.60938,-0.17559 0.082,-0.0585 0.14062,-0.11706 0.29297,-0.29266 0,0.88967 -0.25782,1.33451 -0.77344,1.33451 -0.32813,0 -0.55078,-0.1756 -0.57422,-0.45654 z m 1.48829,-2.92655 c 0.44531,0 0.72656,0.33948 0.72656,0.88967 0,0.51507 -0.29297,0.85455 -0.71485,0.85455 -0.42187,0 -0.67968,-0.32777 -0.67968,-0.86625 0,-0.53849 0.25781,-0.87797 0.66797,-0.87797 z m -0.28125,14.10302 h -1.98047 c 0.11718,-0.25753 0.26953,-0.3863 0.94922,-0.88967 0.82031,-0.58531 1.05468,-0.9482 1.05468,-1.58033 0,-0.90138 -0.62109,-1.48669 -1.60547,-1.48669 -0.97265,0 -1.53515,0.57361 -1.53515,1.56863 0,0.0351 0,0.0936 0.0117,0.16389 h 0.8789 v -0.15218 c 0,-0.52678 0.2461,-0.81943 0.66797,-0.81943 0.41016,0 0.65625,0.28094 0.65625,0.74919 0,0.51507 -0.16406,0.71408 -1.19531,1.45157 -0.78516,0.53848 -1.03125,0.9482 -1.07813,1.81446 h 3.17579 z m 3.79101,-0.98332 h -0.49218 v -2.86801 h -1.08985 l -1.69922,2.85631 v 0.78431 h 1.86328 v 1.03015 h 0.92579 v -1.03015 h 0.49218 z m -1.41797,0 h -1.21875 l 1.21875,-1.99005 z m -2.37304,33.70795 h -1.98047 c 0.11718,-0.25754 0.26953,-0.3863 0.94922,-0.88967 0.82031,-0.58531 1.05468,-0.9482 1.05468,-1.58033 0,-0.90138 -0.62109,-1.48669 -1.60547,-1.48669 -0.97265,0 -1.53515,0.5736 -1.53515,1.56863 0,0.0351 0,0.0936 0.0117,0.16389 h 0.8789 v -0.15218 c 0,-0.52678 0.2461,-0.81944 0.66797,-0.81944 0.41016,0 0.65625,0.28095 0.65625,0.7492 0,0.51507 -0.16406,0.71408 -1.19531,1.45156 -0.78516,0.53849 -1.03125,0.94821 -1.07813,1.81446 h 3.17579 z m 3.56836,-3.85133 h -2.4961 l -0.42187,2.59877 h 0.83203 c 0.10547,-0.22242 0.3164,-0.35119 0.59765,-0.35119 0.46875,0 0.75,0.33948 0.75,0.90138 0,0.55019 -0.29296,0.87796 -0.75,0.87796 -0.39843,0 -0.62109,-0.199 -0.64453,-0.5736 h -0.91406 c 0.0117,0.81943 0.63281,1.36962 1.54688,1.36962 1.00781,0 1.6875,-0.69066 1.6875,-1.69739 0,-0.9482 -0.59766,-1.61546 -1.45313,-1.61546 -0.31641,0 -0.55078,0.082 -0.82031,0.29266 l 0.15234,-0.98332 h 1.9336 z m -2.32618,13.04068 c 0.16407,-0.0936 0.23438,-0.14047 0.30469,-0.199 0.1875,-0.1756 0.30469,-0.46825 0.30469,-0.77261 0,-0.72578 -0.63281,-1.26427 -1.5,-1.26427 -0.86719,0 -1.5,0.53849 -1.5,1.27597 0,0.44484 0.1875,0.73749 0.60937,0.95991 -0.53906,0.28095 -0.77343,0.64384 -0.77343,1.19403 0,0.88967 0.67968,1.49839 1.66406,1.49839 0.98437,0 1.66406,-0.60872 1.66406,-1.49839 0,-0.55019 -0.23437,-0.91308 -0.77344,-1.19403 z m -0.8789,-1.48668 c 0.41015,0 0.6914,0.24583 0.6914,0.60872 0,0.36289 -0.29297,0.62043 -0.6914,0.62043 -0.41016,0 -0.70313,-0.25754 -0.70313,-0.62043 0,-0.36289 0.28125,-0.60872 0.70313,-0.60872 z m -0.0117,1.84957 c 0.45703,0 0.73828,0.30436 0.73828,0.79602 0,0.44484 -0.29297,0.73749 -0.73828,0.73749 -0.45703,0 -0.73828,-0.29265 -0.73828,-0.74919 0,-0.47996 0.29297,-0.78432 0.73828,-0.78432 z m 1.41795,30.23121 h -2.4961 l -0.42187,2.59878 h 0.83203 c 0.10547,-0.22242 0.31641,-0.35119 0.59766,-0.35119 0.46875,0 0.75,0.33948 0.75,0.90138 0,0.55019 -0.29297,0.87796 -0.75,0.87796 -0.39844,0 -0.6211,-0.199 -0.64454,-0.5736 h -0.91406 c 0.0117,0.81943 0.63281,1.36962 1.54688,1.36962 1.00781,0 1.6875,-0.69066 1.6875,-1.6974 0,-0.9482 -0.59766,-1.61545 -1.45313,-1.61545 -0.3164,0 -0.55078,0.0819 -0.82031,0.29266 l 0.15234,-0.98332 h 1.9336 z m -1.76953,14.75857 h -1.98047 c 0.11718,-0.25753 0.26953,-0.3863 0.94922,-0.88967 0.82031,-0.58531 1.05468,-0.9482 1.05468,-1.58033 0,-0.90138 -0.62109,-1.48669 -1.60547,-1.48669 -0.97265,0 -1.53515,0.57361 -1.53515,1.56863 0,0.0351 0,0.0937 0.0117,0.16389 h 0.8789 v -0.15218 c 0,-0.52678 0.2461,-0.81944 0.66797,-0.81944 0.41016,0 0.65625,0.28095 0.65625,0.7492 0,0.51507 -0.16406,0.71408 -1.19531,1.45157 -0.78516,0.53848 -1.03125,0.9482 -1.07813,1.81445 h 3.17579 z m 3.04101,-1.72081 c 0.16407,-0.0937 0.23438,-0.14047 0.30469,-0.199 0.1875,-0.1756 0.30469,-0.46825 0.30469,-0.77261 0,-0.72578 -0.63281,-1.26427 -1.5,-1.26427 -0.86719,0 -1.5,0.53849 -1.5,1.27598 0,0.44483 0.1875,0.73749 0.60937,0.9599 -0.53906,0.28095 -0.77344,0.64384 -0.77344,1.19403 0,0.88967 0.67969,1.49839 1.66407,1.49839 0.98437,0 1.66406,-0.60872 1.66406,-1.49839 0,-0.55019 -0.23437,-0.91308 -0.77344,-1.19403 z m -0.8789,-1.48668 c 0.41015,0 0.6914,0.24583 0.6914,0.60872 0,0.36289 -0.29297,0.62043 -0.6914,0.62043 -0.41016,0 -0.70313,-0.25754 -0.70313,-0.62043 0,-0.36289 0.28125,-0.60872 0.70313,-0.60872 z m -0.0117,1.84957 c 0.45703,0 0.73828,0.30436 0.73828,0.79602 0,0.44484 -0.29297,0.73749 -0.73828,0.73749 -0.45703,0 -0.73828,-0.29265 -0.73828,-0.74919 0,-0.47996 0.29296,-0.78432 0.73828,-0.78432 z m -2.15041,34.08255 h -1.98047 c 0.11718,-0.25754 0.26953,-0.38631 0.94922,-0.88967 0.82031,-0.58531 1.05468,-0.9482 1.05468,-1.58034 0,-0.90137 -0.62109,-1.48668 -1.60547,-1.48668 -0.97265,0 -1.53515,0.5736 -1.53515,1.56863 0,0.0351 0,0.0937 0.0117,0.16388 h 0.8789 v -0.15218 c 0,-0.52677 0.2461,-0.81943 0.66797,-0.81943 0.41016,0 0.65625,0.28095 0.65625,0.7492 0,0.51507 -0.16406,0.71407 -1.19531,1.45156 -0.78516,0.53849 -1.03125,0.9482 -1.07813,1.81446 h 3.17579 z m 1.91601,-2.39977 v 3.2192 h 0.92578 v -4.67076 h -0.62109 c -0.14063,0.55019 -0.62109,0.83113 -1.42969,0.83113 v 0.62043 z m -3.7207,10.91016 v 3.2192 h 0.92578 v -4.67076 h -0.62109 c -0.14063,0.55019 -0.6211,0.83113 -1.42969,0.83113 v 0.62043 z m 5.52539,2.39977 h -1.98047 c 0.11719,-0.25754 0.26953,-0.38631 0.94922,-0.88967 0.82031,-0.58531 1.05469,-0.9482 1.05469,-1.58034 0,-0.90137 -0.6211,-1.48668 -1.60547,-1.48668 -0.97266,0 -1.53516,0.5736 -1.53516,1.56863 0,0.0351 0,0.0936 0.0117,0.16388 h 0.87891 v -0.15218 c 0,-0.52677 0.24609,-0.81943 0.66797,-0.81943 0.41015,0 0.65625,0.28095 0.65625,0.7492 0,0.51507 -0.16407,0.71407 -1.19532,1.45156 -0.78515,0.53849 -1.03125,0.9482 -1.07812,1.81446 h 3.17578 z m -5.52539,30.32486 v 3.2192 h 0.92578 v -4.67077 h -0.62109 c -0.14063,0.55019 -0.6211,0.83114 -1.42969,0.83114 v 0.62043 z m 3.58008,1.1355 c 0.32812,0 0.38672,0 0.53906,0.0351 0.31641,0.0937 0.51562,0.36289 0.51562,0.70237 0,0.40971 -0.29296,0.70237 -0.6914,0.70237 -0.44531,0 -0.67969,-0.24583 -0.70313,-0.72578 h -0.90234 c 0.0117,0.93649 0.62109,1.5218 1.58203,1.5218 0.9961,0 1.64063,-0.58531 1.64063,-1.49839 0,-0.55019 -0.2461,-0.90138 -0.77344,-1.15891 0.43359,-0.26925 0.62109,-0.5619 0.62109,-0.99503 0,-0.77261 -0.58593,-1.27597 -1.48828,-1.27597 -0.53906,0 -0.98437,0.1873 -1.25391,0.52678 -0.17578,0.23412 -0.26953,0.55019 -0.26953,0.97161 v 0.0702 h 0.86719 c 0,-0.24583 0.0234,-0.3746 0.0703,-0.49166 0.082,-0.19901 0.29297,-0.32778 0.5625,-0.32778 0.375,0 0.58594,0.22242 0.58594,0.60872 0,0.46825 -0.26953,0.71408 -0.82031,0.71408 h -0.082 z m -1.77539,12.1715 h -1.98047 c 0.11718,-0.25754 0.26953,-0.3863 0.94922,-0.88967 0.82031,-0.58531 1.05468,-0.9482 1.05468,-1.58033 0,-0.90138 -0.62109,-1.48669 -1.60547,-1.48669 -0.97265,0 -1.53515,0.5736 -1.53515,1.56863 0,0.0351 0,0.0937 0.0117,0.16389 h 0.8789 v -0.15218 c 0,-0.52678 0.2461,-0.81944 0.66797,-0.81944 0.41016,0 0.65625,0.28095 0.65625,0.7492 0,0.51507 -0.16406,0.71408 -1.19531,1.45156 -0.78516,0.53849 -1.03125,0.94821 -1.07813,1.81446 h 3.17579 z m 2.15039,-3.95669 c -0.50391,0 -0.9375,0.21071 -1.21875,0.60872 -0.26953,0.36289 -0.39844,0.95991 -0.39844,1.86129 0,0.81943 0.11719,1.40474 0.32812,1.76763 0.28125,0.44483 0.73829,0.69066 1.28907,0.69066 0.5039,0 0.92578,-0.21071 1.20703,-0.59701 0.26953,-0.36289 0.39844,-0.95991 0.39844,-1.83787 0,-0.85455 -0.10547,-1.43986 -0.32813,-1.79105 -0.28125,-0.45654 -0.73828,-0.70237 -1.27734,-0.70237 z m 0,0.7492 c 0.23437,0 0.42187,0.12876 0.53906,0.37459 0.0937,0.19901 0.14062,0.71408 0.14062,1.35792 0,0.51507 -0.0469,1.04185 -0.11718,1.22915 -0.10547,0.26924 -0.30469,0.42142 -0.5625,0.42142 -0.2461,0 -0.4336,-0.11706 -0.53907,-0.36289 -0.0937,-0.1873 -0.15234,-0.69066 -0.15234,-1.31109 0,-0.53849 0.0586,-1.07697 0.11719,-1.26427 0.10547,-0.28095 0.30469,-0.44483 0.57422,-0.44483 z m -2.15039,35.93212 h -1.98047 c 0.11718,-0.25754 0.26953,-0.38631 0.94922,-0.88967 0.82031,-0.58531 1.05468,-0.9482 1.05468,-1.58034 0,-0.90137 -0.62109,-1.48668 -1.60547,-1.48668 -0.97265,0 -1.53515,0.5736 -1.53515,1.56863 0,0.0351 0,0.0936 0.0117,0.16388 h 0.8789 V 377.395 c 0,-0.52678 0.2461,-0.81943 0.66797,-0.81943 0.41016,0 0.65625,0.28095 0.65625,0.7492 0,0.51507 -0.16406,0.71407 -1.19531,1.45156 -0.78516,0.53849 -1.03125,0.9482 -1.07813,1.81446 h 3.17579 z m 0.59179,-0.26924 c 0.0234,0.71407 0.63282,1.25256 1.44141,1.25256 0.59766,0 1.05469,-0.25754 1.32422,-0.72579 0.24609,-0.42142 0.39844,-1.12379 0.39844,-1.87299 0,-0.67895 -0.11719,-1.21744 -0.32813,-1.56862 -0.29297,-0.50337 -0.76172,-0.77261 -1.32422,-0.77261 -0.9375,0 -1.57031,0.67896 -1.57031,1.65057 0,0.95991 0.5625,1.62716 1.39453,1.62716 0.23438,0 0.46875,-0.0702 0.60938,-0.17559 0.082,-0.0585 0.14062,-0.11707 0.29296,-0.29266 0,0.88967 -0.25781,1.33451 -0.77343,1.33451 -0.32813,0 -0.55078,-0.1756 -0.57422,-0.45654 z m 1.48828,-2.92655 c 0.44532,0 0.72657,0.33948 0.72657,0.88967 0,0.51507 -0.29297,0.85455 -0.71485,0.85455 -0.42187,0 -0.67968,-0.32777 -0.67968,-0.86626 0,-0.53848 0.25781,-0.87796 0.66796,-0.87796 z m -0.0879,13.1197 h -0.49218 v -2.86801 h -1.08985 l -1.69922,2.85631 v 0.78431 h 1.86328 v 1.03014 h 0.92579 v -1.03014 h 0.49218 z m -1.41797,0 h -1.21875 l 1.21875,-1.99005 z m -0.59765,32.44661 c 0.32812,0 0.38672,0 0.53906,0.0351 0.31641,0.0936 0.51563,0.36289 0.51563,0.70237 0,0.40971 -0.29297,0.70237 -0.69141,0.70237 -0.44531,0 -0.67969,-0.24583 -0.70313,-0.72579 h -0.90234 c 0.0117,0.9365 0.62109,1.52181 1.58203,1.52181 0.9961,0 1.64063,-0.58531 1.64063,-1.49839 0,-0.55019 -0.2461,-0.90138 -0.77344,-1.15891 0.43359,-0.26925 0.62109,-0.5619 0.62109,-0.99503 0,-0.77261 -0.58593,-1.27597 -1.48828,-1.27597 -0.53906,0 -0.98437,0.1873 -1.2539,0.52677 -0.17579,0.23413 -0.26954,0.55019 -0.26954,0.97162 v 0.0702 h 0.86719 c 0,-0.24583 0.0234,-0.37459 0.0703,-0.49166 0.082,-0.199 0.29297,-0.32777 0.5625,-0.32777 0.375,0 0.58594,0.22242 0.58594,0.60872 0,0.46825 -0.26953,0.71408 -0.82031,0.71408 h -0.082 z m -1.92188,10.90723 c 0.32813,0 0.38672,0 0.53907,0.0351 0.3164,0.0937 0.51562,0.36289 0.51562,0.70237 0,0.40972 -0.29297,0.70237 -0.69141,0.70237 -0.44531,0 -0.67968,-0.24583 -0.70312,-0.72578 h -0.90235 c 0.0117,0.93649 0.6211,1.5218 1.58204,1.5218 0.99609,0 1.64062,-0.58531 1.64062,-1.49839 0,-0.55019 -0.24609,-0.90138 -0.77344,-1.15891 0.4336,-0.26924 0.6211,-0.5619 0.6211,-0.99503 0,-0.7726 -0.58594,-1.27597 -1.48828,-1.27597 -0.53907,0 -0.98438,0.1873 -1.25391,0.52678 -0.17578,0.23412 -0.26953,0.55019 -0.26953,0.97161 v 0.0702 h 0.86719 c 0,-0.24583 0.0234,-0.3746 0.0703,-0.49166 0.082,-0.19901 0.29297,-0.32777 0.5625,-0.32777 0.375,0 0.58594,0.22241 0.58594,0.60872 0,0.46824 -0.26953,0.71407 -0.82032,0.71407 h -0.082 z m 4.09571,-2.69242 c -0.50391,0 -0.9375,0.21071 -1.21875,0.60872 -0.26953,0.36289 -0.39844,0.95991 -0.39844,1.86128 0,0.81944 0.11719,1.40475 0.32812,1.76764 0.28125,0.44483 0.73829,0.69066 1.28907,0.69066 0.5039,0 0.92578,-0.21071 1.20703,-0.59701 0.26953,-0.36289 0.39844,-0.95991 0.39844,-1.83787 0,-0.85455 -0.10547,-1.43986 -0.32813,-1.79105 -0.28125,-0.45654 -0.73828,-0.70237 -1.27734,-0.70237 z m 0,0.7492 c 0.23437,0 0.42187,0.12876 0.53906,0.37459 0.0937,0.19901 0.14062,0.71408 0.14062,1.35792 0,0.51507 -0.0469,1.04185 -0.11718,1.22915 -0.10547,0.26924 -0.30469,0.42142 -0.5625,0.42142 -0.2461,0 -0.4336,-0.11706 -0.53907,-0.36289 -0.0937,-0.1873 -0.15234,-0.69066 -0.15234,-1.31109 0,-0.53849 0.0586,-1.07697 0.11719,-1.26427 0.10547,-0.28095 0.30469,-0.44483 0.57422,-0.44483 z m -3.95508,33.53235 v 3.2192 h 0.92578 v -4.67077 h -0.62109 c -0.14063,0.55019 -0.6211,0.83114 -1.42969,0.83114 v 0.62043 z m 2.39648,2.13052 c 0.0234,0.71408 0.63282,1.25257 1.44141,1.25257 0.59766,0 1.05469,-0.25754 1.32422,-0.72579 0.24609,-0.42142 0.39844,-1.12379 0.39844,-1.87299 0,-0.67896 -0.11719,-1.21744 -0.32813,-1.56862 -0.29297,-0.50337 -0.76172,-0.77261 -1.32422,-0.77261 -0.9375,0 -1.57031,0.67896 -1.57031,1.65057 0,0.95991 0.5625,1.62716 1.39453,1.62716 0.23438,0 0.46875,-0.0702 0.60938,-0.17559 0.082,-0.0585 0.14062,-0.11707 0.29296,-0.29266 0,0.88967 -0.25781,1.33451 -0.77343,1.33451 -0.32813,0 -0.55078,-0.1756 -0.57422,-0.45655 z m 1.48828,-2.92654 c 0.44532,0 0.72657,0.33948 0.72657,0.88967 0,0.51507 -0.29297,0.85455 -0.71485,0.85455 -0.42187,0 -0.67968,-0.32777 -0.67968,-0.86626 0,-0.53848 0.25781,-0.87796 0.66796,-0.87796 z m -3.88476,11.70325 v 3.2192 h 0.92578 v -4.67076 h -0.62109 c -0.14063,0.55019 -0.6211,0.83114 -1.42969,0.83114 v 0.62042 z m 5.5957,1.41645 h -0.49218 v -2.86801 h -1.08985 l -1.69922,2.8563 v 0.78432 h 1.86328 v 1.03014 h 0.92579 v -1.03014 h 0.49218 z m -1.41797,0 h -1.21875 l 1.21875,-1.99005 z m -4.17773,31.30818 v 3.2192 h 0.92578 v -4.67077 h -0.62109 c -0.14063,0.55019 -0.6211,0.83114 -1.42969,0.83114 v 0.62043 z m 3.7207,0 v 3.2192 h 0.92578 v -4.67077 h -0.62109 c -0.14063,0.55019 -0.62109,0.83114 -1.42969,0.83114 v 0.62043 z m -1.91601,13.30993 h -1.98047 c 0.11718,-0.25754 0.26953,-0.38631 0.94922,-0.88967 0.82031,-0.58531 1.05468,-0.9482 1.05468,-1.58034 0,-0.90137 -0.62109,-1.48668 -1.60547,-1.48668 -0.97265,0 -1.53515,0.5736 -1.53515,1.56863 0,0.0351 0,0.0937 0.0117,0.16388 h 0.8789 v -0.15218 c 0,-0.52678 0.2461,-0.81943 0.66797,-0.81943 0.41016,0 0.65625,0.28095 0.65625,0.7492 0,0.51507 -0.16406,0.71407 -1.19531,1.45156 -0.78516,0.53849 -1.03125,0.9482 -1.07813,1.81446 h 3.17579 z m 3.7207,0 h -1.98047 c 0.11719,-0.25754 0.26953,-0.38631 0.94922,-0.88967 0.82031,-0.58531 1.05469,-0.9482 1.05469,-1.58034 0,-0.90137 -0.6211,-1.48668 -1.60547,-1.48668 -0.97266,0 -1.53516,0.5736 -1.53516,1.56863 0,0.0351 0,0.0937 0.0117,0.16388 h 0.87891 v -0.15218 c 0,-0.52678 0.24609,-0.81943 0.66797,-0.81943 0.41015,0 0.65625,0.28095 0.65625,0.7492 0,0.51507 -0.16407,0.71407 -1.19532,1.45156 -0.78515,0.53849 -1.03125,0.9482 -1.07812,1.81446 h 3.17578 z m -3.7207,32.72463 h -1.98047 c 0.11718,-0.25754 0.26953,-0.38631 0.94922,-0.88967 0.82031,-0.58531 1.05468,-0.94821 1.05468,-1.58034 0,-0.90137 -0.62109,-1.48668 -1.60547,-1.48668 -0.97265,0 -1.53515,0.5736 -1.53515,1.56862 0,0.0351 0,0.0936 0.0117,0.16389 h 0.8789 v -0.15218 c 0,-0.52678 0.2461,-0.81943 0.66797,-0.81943 0.41016,0 0.65625,0.28095 0.65625,0.74919 0,0.51508 -0.16406,0.71408 -1.19531,1.45157 -0.78516,0.53848 -1.03125,0.9482 -1.07813,1.81446 h 3.17579 z m 3.82617,-3.85134 h -3.29297 v 0.81943 h 2.33203 c -0.28125,0.30437 -0.84375,1.15892 -1.03125,1.56863 -0.31641,0.67896 -0.48047,1.28768 -0.60937,2.28271 h 0.92578 c 0.0937,-1.47498 0.57422,-2.61048 1.67578,-3.94499 z m -1.93945,11.96079 c -0.0352,-0.29265 -0.10547,-0.44483 -0.22266,-0.62043 -0.24609,-0.33948 -0.66797,-0.53848 -1.17188,-0.53848 -0.58593,0 -1.0664,0.25754 -1.34765,0.72578 -0.26953,0.45654 -0.38672,0.98332 -0.38672,1.82617 0,0.80772 0.0937,1.31109 0.33984,1.68569 0.26953,0.43313 0.75,0.69066 1.3125,0.69066 0.92578,0 1.5586,-0.70237 1.5586,-1.7091 0,-0.90138 -0.55078,-1.5218 -1.35938,-1.5218 -0.375,0 -0.63281,0.11706 -0.92578,0.42142 0.0234,-0.50337 0.0234,-0.50337 0.0586,-0.70237 0.082,-0.42142 0.35157,-0.66725 0.71485,-0.66725 0.30468,0 0.45703,0.11706 0.57422,0.40971 z m -1.50001,1.26427 c 0.4336,0 0.70313,0.33948 0.70313,0.85455 0,0.49166 -0.30469,0.85455 -0.70313,0.85455 -0.43359,0 -0.71484,-0.33948 -0.71484,-0.84284 0,-0.51508 0.28125,-0.86626 0.71484,-0.86626 z m 1.64063,30.4068 h -3.29297 v 0.81944 h 2.33203 c -0.28125,0.30436 -0.84375,1.15891 -1.03125,1.56862 -0.3164,0.67896 -0.48047,1.28768 -0.60937,2.28271 h 0.92578 c 0.0937,-1.47498 0.57422,-2.61048 1.67578,-3.94498 z m -2.02734,14.7615 h -1.98047 c 0.11718,-0.25754 0.26953,-0.38631 0.94922,-0.88967 0.82031,-0.58531 1.05468,-0.9482 1.05468,-1.58034 0,-0.90137 -0.62109,-1.48668 -1.60547,-1.48668 -0.97265,0 -1.53515,0.5736 -1.53515,1.56863 0,0.0351 0,0.0937 0.0117,0.16388 h 0.8789 v -0.15218 c 0,-0.52678 0.2461,-0.81943 0.66797,-0.81943 0.41016,0 0.65625,0.28095 0.65625,0.74919 0,0.51508 -0.16406,0.71408 -1.19531,1.45157 -0.78516,0.53849 -1.03125,0.9482 -1.07813,1.81446 h 3.17579 z m 3.68554,-2.79778 c -0.0351,-0.29266 -0.10546,-0.44484 -0.22265,-0.62043 -0.2461,-0.33948 -0.66797,-0.53848 -1.17188,-0.53848 -0.58594,0 -1.0664,0.25753 -1.34765,0.72578 -0.26954,0.45654 -0.38672,0.98332 -0.38672,1.82616 0,0.80773 0.0937,1.3111 0.33984,1.68569 0.26953,0.43313 0.75,0.69067 1.3125,0.69067 0.92578,0 1.5586,-0.70237 1.5586,-1.7091 0,-0.90138 -0.55079,-1.52181 -1.35938,-1.52181 -0.375,0 -0.63281,0.11707 -0.92578,0.42143 0.0234,-0.50337 0.0234,-0.50337 0.0586,-0.70237 0.082,-0.42143 0.35156,-0.66726 0.71485,-0.66726 0.30468,0 0.45703,0.11706 0.57421,0.40972 z m -1.5,1.26427 c 0.4336,0 0.70313,0.33948 0.70313,0.85455 0,0.49166 -0.30469,0.85455 -0.70313,0.85455 -0.43359,0 -0.71484,-0.33948 -0.71484,-0.84285 0,-0.51507 0.28125,-0.86625 0.71484,-0.86625 z m -2.18554,34.25813 h -1.98047 c 0.11718,-0.25753 0.26953,-0.3863 0.94922,-0.88967 0.82031,-0.5853 1.05468,-0.9482 1.05468,-1.58033 0,-0.90138 -0.62109,-1.48669 -1.60547,-1.48669 -0.97265,0 -1.53515,0.57361 -1.53515,1.56863 0,0.0351 0,0.0937 0.0117,0.16389 h 0.8789 v -0.15218 c 0,-0.52678 0.2461,-0.81943 0.66797,-0.81943 0.41016,0 0.65625,0.28095 0.65625,0.74919 0,0.51507 -0.16406,0.71408 -1.19531,1.45157 -0.78516,0.53848 -1.03125,0.9482 -1.07813,1.81446 h 3.17579 z m 1.77539,-1.26426 c 0.32812,0 0.38672,0 0.53906,0.0351 0.31641,0.0936 0.51562,0.36289 0.51562,0.70237 0,0.40971 -0.29296,0.70237 -0.6914,0.70237 -0.44531,0 -0.67969,-0.24583 -0.70313,-0.72579 h -0.90234 c 0.0117,0.9365 0.62109,1.52181 1.58203,1.52181 0.9961,0 1.64063,-0.58531 1.64063,-1.49839 0,-0.55019 -0.2461,-0.90138 -0.77344,-1.15892 0.43359,-0.26924 0.62109,-0.56189 0.62109,-0.99502 0,-0.77261 -0.58593,-1.27598 -1.48828,-1.27598 -0.53906,0 -0.98437,0.1873 -1.25391,0.52678 -0.17578,0.23413 -0.26953,0.55019 -0.26953,0.97162 v 0.0702 h 0.86719 c 0,-0.24583 0.0234,-0.37459 0.0703,-0.49166 0.082,-0.199 0.29297,-0.32777 0.5625,-0.32777 0.375,0 0.58594,0.22242 0.58594,0.60872 0,0.46825 -0.26953,0.71408 -0.82031,0.71408 h -0.082 z m -3.58008,9.77173 v 3.2192 h 0.92578 v -4.67077 h -0.62109 c -0.14063,0.55019 -0.6211,0.83114 -1.42969,0.83114 v 0.62043 z m 3.95508,-1.55692 c -0.50391,0 -0.9375,0.21071 -1.21875,0.60872 -0.26953,0.36289 -0.39844,0.95991 -0.39844,1.86128 0,0.81944 0.11719,1.40474 0.32812,1.76764 0.28125,0.44483 0.73829,0.69066 1.28907,0.69066 0.5039,0 0.92578,-0.21071 1.20703,-0.59701 0.26953,-0.3629 0.39844,-0.95991 0.39844,-1.83787 0,-0.85456 -0.10547,-1.43987 -0.32813,-1.79105 -0.28125,-0.45654 -0.73828,-0.70237 -1.27734,-0.70237 z m 0,0.74919 c 0.23437,0 0.42187,0.12877 0.53906,0.3746 0.0937,0.19901 0.14062,0.71408 0.14062,1.35792 0,0.51507 -0.0469,1.04185 -0.11718,1.22915 -0.10547,0.26924 -0.30469,0.42142 -0.5625,0.42142 -0.2461,0 -0.4336,-0.11706 -0.53907,-0.36289 -0.0937,-0.1873 -0.15234,-0.69067 -0.15234,-1.31109 0,-0.53849 0.0586,-1.07697 0.11719,-1.26427 0.10547,-0.28095 0.30469,-0.44484 0.57422,-0.44484 z m -3.95508,33.53236 v 3.2192 h 0.92578 v -4.67077 h -0.62109 c -0.14063,0.55019 -0.6211,0.83114 -1.42969,0.83114 v 0.62043 z m 5.37305,-1.45157 h -2.4961 l -0.42187,2.59877 h 0.83203 c 0.10547,-0.22241 0.3164,-0.35118 0.59765,-0.35118 0.46875,0 0.75,0.33948 0.75,0.90137 0,0.55019 -0.29296,0.87797 -0.75,0.87797 -0.39843,0 -0.62109,-0.19901 -0.64453,-0.57361 h -0.91406 c 0.0117,0.81944 0.63281,1.36963 1.54688,1.36963 1.00781,0 1.6875,-0.69067 1.6875,-1.6974 0,-0.9482 -0.59766,-1.61545 -1.45313,-1.61545 -0.31641,0 -0.55078,0.0819 -0.82031,0.29265 l 0.15234,-0.98332 h 1.9336 z m -5.37305,12.36173 v 3.2192 h 0.92578 v -4.67077 h -0.62109 c -0.14063,0.55019 -0.6211,0.83114 -1.42969,0.83114 v 0.62043 z m 4.8457,0.67896 c 0.16407,-0.0937 0.23438,-0.14048 0.30469,-0.19901 0.1875,-0.17559 0.30469,-0.46825 0.30469,-0.77261 0,-0.72578 -0.63281,-1.26426 -1.5,-1.26426 -0.86719,0 -1.5,0.53848 -1.5,1.27597 0,0.44483 0.1875,0.73749 0.60937,0.95991 -0.53906,0.28095 -0.77344,0.64384 -0.77344,1.19403 0,0.88967 0.67969,1.49839 1.66407,1.49839 0.98437,0 1.66406,-0.60872 1.66406,-1.49839 0,-0.55019 -0.23437,-0.91308 -0.77344,-1.19403 z m -0.8789,-1.48669 c 0.41015,0 0.6914,0.24583 0.6914,0.60872 0,0.36289 -0.29297,0.62043 -0.6914,0.62043 -0.41016,0 -0.70313,-0.25754 -0.70313,-0.62043 0,-0.36289 0.28125,-0.60872 0.70313,-0.60872 z m -0.0117,1.84958 c 0.45703,0 0.73828,0.30436 0.73828,0.79602 0,0.44483 -0.29297,0.73749 -0.73828,0.73749 -0.45703,0 -0.73828,-0.29266 -0.73828,-0.7492 0,-0.47995 0.29296,-0.78431 0.73828,-0.78431 z m -4.09571,32.81828 c 0.32813,0 0.38672,0 0.53907,0.0351 0.3164,0.0937 0.51562,0.3629 0.51562,0.70237 0,0.40972 -0.29297,0.70238 -0.69141,0.70238 -0.44531,0 -0.67968,-0.24583 -0.70312,-0.72579 h -0.90235 c 0.0117,0.9365 0.6211,1.52181 1.58204,1.52181 0.99609,0 1.64062,-0.58531 1.64062,-1.4984 0,-0.55019 -0.24609,-0.90137 -0.77344,-1.15891 0.4336,-0.26924 0.6211,-0.56189 0.6211,-0.99502 0,-0.77261 -0.58594,-1.27598 -1.48828,-1.27598 -0.53907,0 -0.98438,0.1873 -1.25391,0.52678 -0.17578,0.23413 -0.26953,0.55019 -0.26953,0.97161 v 0.0702 h 0.86719 c 0,-0.24583 0.0234,-0.3746 0.0703,-0.49166 0.082,-0.199 0.29297,-0.32777 0.5625,-0.32777 0.375,0 0.58594,0.22242 0.58594,0.60872 0,0.46825 -0.26953,0.71408 -0.82032,0.71408 h -0.082 z m 3.86133,-1.1355 v 3.2192 h 0.92578 v -4.67077 h -0.62109 c -0.14063,0.55019 -0.62109,0.83114 -1.42969,0.83114 v 0.62043 z m 0.006,13.30703 h -1.98047 c 0.11719,-0.25754 0.26953,-0.38631 0.94922,-0.88967 0.82031,-0.58531 1.05469,-0.9482 1.05469,-1.58034 0,-0.90137 -0.6211,-1.48668 -1.60547,-1.48668 -0.97266,0 -1.53516,0.5736 -1.53516,1.56863 0,0.0351 0,0.0937 0.0117,0.16388 h 0.87891 v -0.15218 c 0,-0.52678 0.24609,-0.81943 0.66797,-0.81943 0.41015,0 0.65625,0.28095 0.65625,0.74919 0,0.51508 -0.16407,0.71408 -1.19532,1.45157 -0.78515,0.53849 -1.03125,0.9482 -1.07812,1.81446 h 3.17578 z"
         style="fill:#000000;fill-opacity:1;fill-rule:nonzero;stroke:none"
         sodipodi:nodetypes="ccccccccccssccsscsscscccssscccccsssccssscccccccccccccccccccccccccccccccscscsssccsccssssscscscsssccsccssssscccsssccssscccccccccccccccccccccccsssccsssccccccccsssccsssccccccssscssscssssssssssccccsssccssscccccccsssccsssccccccssscssscsssssssssscccsssccssscccccccccccccccccccccccsssccsssccccccccccccccssccsscsscscccssscccccsssccsssccccscscscscsscscscscscccsssccssscccccscscsssccsccsssssccccccccccccccccccssccsscsscscccsssccccssccsscsscscccsssccscscscscsscscscscscccccccccscscsssccsccssssscccccccccccccccccccccccccccccccccccccccccccsssccssscccccccsssccssscccccccsssccssscccccccccccccccscscsssccsccsssssccccccccccccsssccsssccccccscscsssccsccssssscccsssccsssccccccssccsscsscscccsssccccccccccscscscscsscscscscsccccccccccccsssccsssccccccccccccccssscssscssssssssssccssccsscsscscccssscccccccccccccsssccssscccc" />
    </g>
    <path
       id="path13"
       d="m 759,6002.67 h 615 v 8 H 759 Z"
       style="fill:#000000;fill-opacity:1;fill-rule:nonzero;stroke:none"
       transform="matrix(0.16,0,0,-0.16,0,1122.6667)" />
    <path
       id="path15"
       d="m 759,5913.67 h 115 v 4 H 759 Z"
       style="fill:#000000;fill-opacity:1;fill-rule:nonzero;stroke:none"
       transform="matrix(0.16,0,0,-0.16,0,1122.6667)" />
    <path
       id="path16"
       d="m 882,5913.67 h 484 v 4 H 882 Z"
       style="fill:#000000;fill-opacity:1;fill-rule:nonzero;stroke:none"
       transform="matrix(0.16,0,0,-0.16,0,1122.6667)" />
    <path
       id="path17"
       d="m 1374,5913.67 h 121 v 4 h -121 z"
       style="fill:#000000;fill-opacity:1;fill-rule:nonzero;stroke:none"
       transform="matrix(0.16,0,0,-0.16,0,1122.6667)" />
    <path
       id="path19"
       d="m 759,5820.67 h 615 v 8 H 759 Z"
       style="fill:#000000;fill-opacity:1;fill-rule:nonzero;stroke:none"
       transform="matrix(0.16,0,0,-0.16,0,1122.6667)" />
    <path
       id="path20"
       d="m 1491,5828.67 h 4 v 85 h -4 z"
       style="fill:#000000;fill-opacity:1;fill-rule:nonzero;stroke:none"
       transform="matrix(0.16,0,0,-0.16,0,1122.6667)" />
    <path
       id="path21"
       d="m 1497,5820.67 h 492 v 8 h -492 z"
       style="fill:#000000;fill-opacity:1;fill-rule:nonzero;stroke:none"
       transform="matrix(0.16,0,0,-0.16,0,1122.6667)" />
    <path
       id="path23"
       d="m 1497,5731.67 h 484 v 4 h -484 z"
       style="fill:#000000;fill-opacity:1;fill-rule:nonzero;stroke:none"
       transform="matrix(0.16,0,0,-0.16,0,1122.6667)" />
    <path
       id="path24"
       d="m 1989,5731.67 h 121 v 4 h -121 z"
       style="fill:#000000;fill-opacity:1;fill-rule:nonzero;stroke:none"
       transform="matrix(0.16,0,0,-0.16,0,1122.6667)" />
    <path
       id="path26"
       d="m 751,5820.67 h 8 v 190 h -8 z"
       style="fill:#000000;fill-opacity:1;fill-rule:nonzero;stroke:none"
       transform="matrix(0.16,0,0,-0.16,0,1122.6667)" />
    <path
       id="path27"
       d="m 874,5820.67 h 8 v 182 h -8 z"
       style="fill:#000000;fill-opacity:1;fill-rule:nonzero;stroke:none"
       transform="matrix(0.16,0,0,-0.16,0,1122.6667)" />
    <path
       id="path28"
       d="m 1366,5820.67 h 8 v 182 h -8 z"
       style="fill:#000000;fill-opacity:1;fill-rule:nonzero;stroke:none"
       transform="matrix(0.16,0,0,-0.16,0,1122.6667)" />
    <path
       id="path29"
       d="m 759,5638.67 h 615 v 8 H 759 Z"
       style="fill:#000000;fill-opacity:1;fill-rule:nonzero;stroke:none"
       transform="matrix(0.16,0,0,-0.16,0,1122.6667)" />
    <path
       id="path30"
       d="m 1489,5638.67 h 8 v 190 h -8 z"
       style="fill:#000000;fill-opacity:1;fill-rule:nonzero;stroke:none"
       transform="matrix(0.16,0,0,-0.16,0,1122.6667)" />
    <path
       id="path31"
       d="m 1497,5638.67 h 492 v 8 h -492 z"
       style="fill:#000000;fill-opacity:1;fill-rule:nonzero;stroke:none"
       transform="matrix(0.16,0,0,-0.16,0,1122.6667)" />
    <path
       id="path33"
       d="m 759,5549.67 h 115 v 4 H 759 Z"
       style="fill:#000000;fill-opacity:1;fill-rule:nonzero;stroke:none"
       transform="matrix(0.16,0,0,-0.16,0,1122.6667)" />
    <path
       id="path34"
       d="m 882,5549.67 h 484 v 4 H 882 Z"
       style="fill:#000000;fill-opacity:1;fill-rule:nonzero;stroke:none"
       transform="matrix(0.16,0,0,-0.16,0,1122.6667)" />
    <path
       id="path35"
       d="m 1374,5549.67 h 121 v 4 h -121 z"
       style="fill:#000000;fill-opacity:1;fill-rule:nonzero;stroke:none"
       transform="matrix(0.16,0,0,-0.16,0,1122.6667)" />
    <path
       id="path37"
       d="m 759,5456.67 h 615 v 8 H 759 Z"
       style="fill:#000000;fill-opacity:1;fill-rule:nonzero;stroke:none"
       transform="matrix(0.16,0,0,-0.16,0,1122.6667)" />
    <path
       id="path38"
       d="m 2106,5464.67 h 4 v 267 h -4 z"
       style="fill:#000000;fill-opacity:1;fill-rule:nonzero;stroke:none"
       transform="matrix(0.16,0,0,-0.16,0,1122.6667)" />
    <path
       id="path39"
       d="m 2112,5456.67 h 492 v 8 h -492 z"
       style="fill:#000000;fill-opacity:1;fill-rule:nonzero;stroke:none"
       transform="matrix(0.16,0,0,-0.16,0,1122.6667)" />
    <path
       id="path41"
       d="m 2112,5367.67 h 484 v 4 h -484 z"
       style="fill:#000000;fill-opacity:1;fill-rule:nonzero;stroke:none"
       transform="matrix(0.16,0,0,-0.16,0,1122.6667)" />
    <path
       id="path42"
       d="m 2604,5367.67 h 121 v 4 h -121 z"
       style="fill:#000000;fill-opacity:1;fill-rule:nonzero;stroke:none"
       transform="matrix(0.16,0,0,-0.16,0,1122.6667)" />
    <path
       id="path44"
       d="m 751,5456.67 h 8 v 190 h -8 z"
       style="fill:#000000;fill-opacity:1;fill-rule:nonzero;stroke:none"
       transform="matrix(0.16,0,0,-0.16,0,1122.6667)" />
    <path
       id="path45"
       d="m 874,5456.67 h 8 v 182 h -8 z"
       style="fill:#000000;fill-opacity:1;fill-rule:nonzero;stroke:none"
       transform="matrix(0.16,0,0,-0.16,0,1122.6667)" />
    <path
       id="path46"
       d="m 1366,5456.67 h 8 v 182 h -8 z"
       style="fill:#000000;fill-opacity:1;fill-rule:nonzero;stroke:none"
       transform="matrix(0.16,0,0,-0.16,0,1122.6667)" />
    <path
       id="path47"
       d="m 759,5274.67 h 615 v 8 H 759 Z"
       style="fill:#000000;fill-opacity:1;fill-rule:nonzero;stroke:none"
       transform="matrix(0.16,0,0,-0.16,0,1122.6667)" />
    <path
       id="path48"
       d="m 2104,5274.67 h 8 v 190 h -8 z"
       style="fill:#000000;fill-opacity:1;fill-rule:nonzero;stroke:none"
       transform="matrix(0.16,0,0,-0.16,0,1122.6667)" />
    <path
       id="path49"
       d="m 2112,5274.67 h 492 v 8 h -492 z"
       style="fill:#000000;fill-opacity:1;fill-rule:nonzero;stroke:none"
       transform="matrix(0.16,0,0,-0.16,0,1122.6667)" />
    <path
       id="path51"
       d="m 759,5185.67 h 115 v 4 H 759 Z"
       style="fill:#000000;fill-opacity:1;fill-rule:nonzero;stroke:none"
       transform="matrix(0.16,0,0,-0.16,0,1122.6667)" />
    <path
       id="path52"
       d="m 882,5185.67 h 484 v 4 H 882 Z"
       style="fill:#000000;fill-opacity:1;fill-rule:nonzero;stroke:none"
       transform="matrix(0.16,0,0,-0.16,0,1122.6667)" />
    <path
       id="path53"
       d="m 1491,5549.67 h 4 v 89 h -4 z"
       style="fill:#000000;fill-opacity:1;fill-rule:nonzero;stroke:none"
       transform="matrix(0.16,0,0,-0.16,0,1122.6667)" />
    <path
       id="path54"
       d="m 1374,5185.67 h 121 v 4 h -121 z"
       style="fill:#000000;fill-opacity:1;fill-rule:nonzero;stroke:none"
       transform="matrix(0.16,0,0,-0.16,0,1122.6667)" />
    <path
       id="path56"
       d="m 759,5092.67 h 615 v 8 H 759 Z"
       style="fill:#000000;fill-opacity:1;fill-rule:nonzero;stroke:none"
       transform="matrix(0.16,0,0,-0.16,0,1122.6667)" />
    <path
       id="path57"
       d="m 1491,5100.67 h 4 v 85 h -4 z"
       style="fill:#000000;fill-opacity:1;fill-rule:nonzero;stroke:none"
       transform="matrix(0.16,0,0,-0.16,0,1122.6667)" />
    <path
       id="path58"
       d="m 1981,5638.67 h 8 v 182 h -8 z"
       style="fill:#000000;fill-opacity:1;fill-rule:nonzero;stroke:none"
       transform="matrix(0.16,0,0,-0.16,0,1122.6667)" />
    <path
       id="path59"
       d="m 1497,5092.67 h 492 v 8 h -492 z"
       style="fill:#000000;fill-opacity:1;fill-rule:nonzero;stroke:none"
       transform="matrix(0.16,0,0,-0.16,0,1122.6667)" />
    <path
       id="path61"
       d="m 1497,5003.67 h 484 v 4 h -484 z"
       style="fill:#000000;fill-opacity:1;fill-rule:nonzero;stroke:none"
       transform="matrix(0.16,0,0,-0.16,0,1122.6667)" />
    <path
       id="path62"
       d="m 1989,5003.67 h 121 v 4 h -121 z"
       style="fill:#000000;fill-opacity:1;fill-rule:nonzero;stroke:none"
       transform="matrix(0.16,0,0,-0.16,0,1122.6667)" />
    <path
       id="path64"
       d="m 751,5092.67 h 8 v 190 h -8 z"
       style="fill:#000000;fill-opacity:1;fill-rule:nonzero;stroke:none"
       transform="matrix(0.16,0,0,-0.16,0,1122.6667)" />
    <path
       id="path65"
       d="m 874,5092.67 h 8 v 182 h -8 z"
       style="fill:#000000;fill-opacity:1;fill-rule:nonzero;stroke:none"
       transform="matrix(0.16,0,0,-0.16,0,1122.6667)" />
    <path
       id="path66"
       d="m 1366,5092.67 h 8 v 182 h -8 z"
       style="fill:#000000;fill-opacity:1;fill-rule:nonzero;stroke:none"
       transform="matrix(0.16,0,0,-0.16,0,1122.6667)" />
    <path
       id="path67"
       d="m 759,4910.67 h 615 v 8 H 759 Z"
       style="fill:#000000;fill-opacity:1;fill-rule:nonzero;stroke:none"
       transform="matrix(0.16,0,0,-0.16,0,1122.6667)" />
    <path
       id="path68"
       d="m 1489,4910.67 h 8 v 190 h -8 z"
       style="fill:#000000;fill-opacity:1;fill-rule:nonzero;stroke:none"
       transform="matrix(0.16,0,0,-0.16,0,1122.6667)" />
    <path
       id="path69"
       d="m 1497,4910.67 h 492 v 8 h -492 z"
       style="fill:#000000;fill-opacity:1;fill-rule:nonzero;stroke:none"
       transform="matrix(0.16,0,0,-0.16,0,1122.6667)" />
    <path
       id="path71"
       d="m 759,4821.67 h 115 v 4 H 759 Z"
       style="fill:#000000;fill-opacity:1;fill-rule:nonzero;stroke:none"
       transform="matrix(0.16,0,0,-0.16,0,1122.6667)" />
    <path
       id="path72"
       d="m 882,4821.67 h 484 v 4 H 882 Z"
       style="fill:#000000;fill-opacity:1;fill-rule:nonzero;stroke:none"
       transform="matrix(0.16,0,0,-0.16,0,1122.6667)" />
    <path
       id="path73"
       d="m 1374,4821.67 h 121 v 4 h -121 z"
       style="fill:#000000;fill-opacity:1;fill-rule:nonzero;stroke:none"
       transform="matrix(0.16,0,0,-0.16,0,1122.6667)" />
    <path
       id="path75"
       d="m 759,4728.67 h 615 v 8 H 759 Z"
       style="fill:#000000;fill-opacity:1;fill-rule:nonzero;stroke:none"
       transform="matrix(0.16,0,0,-0.16,0,1122.6667)" />
    <path
       id="path76"
       d="m 2721,4736.67 h 4 v 631 h -4 z"
       style="fill:#000000;fill-opacity:1;fill-rule:nonzero;stroke:none"
       transform="matrix(0.16,0,0,-0.16,0,1122.6667)" />
    <path
       id="path77"
       d="m 2727,4728.67 h 492 v 8 h -492 z"
       style="fill:#000000;fill-opacity:1;fill-rule:nonzero;stroke:none"
       transform="matrix(0.16,0,0,-0.16,0,1122.6667)" />
    <path
       id="path79"
       d="m 2727,4639.67 h 484 v 4 h -484 z"
       style="fill:#000000;fill-opacity:1;fill-rule:nonzero;stroke:none"
       transform="matrix(0.16,0,0,-0.16,0,1122.6667)" />
    <path
       id="path80"
       d="m 3219,4639.67 h 121 v 4 h -121 z"
       style="fill:#000000;fill-opacity:1;fill-rule:nonzero;stroke:none"
       transform="matrix(0.16,0,0,-0.16,0,1122.6667)" />
    <path
       id="path82"
       d="m 751,4728.67 h 8 v 190 h -8 z"
       style="fill:#000000;fill-opacity:1;fill-rule:nonzero;stroke:none"
       transform="matrix(0.16,0,0,-0.16,0,1122.6667)" />
    <path
       id="path83"
       d="m 874,4728.67 h 8 v 182 h -8 z"
       style="fill:#000000;fill-opacity:1;fill-rule:nonzero;stroke:none"
       transform="matrix(0.16,0,0,-0.16,0,1122.6667)" />
    <path
       id="path84"
       d="m 1366,4728.67 h 8 v 182 h -8 z"
       style="fill:#000000;fill-opacity:1;fill-rule:nonzero;stroke:none"
       transform="matrix(0.16,0,0,-0.16,0,1122.6667)" />
    <path
       id="path85"
       d="m 759,4546.67 h 615 v 8 H 759 Z"
       style="fill:#000000;fill-opacity:1;fill-rule:nonzero;stroke:none"
       transform="matrix(0.16,0,0,-0.16,0,1122.6667)" />
    <path
       id="path86"
       d="m 2719,4546.67 h 8 v 190 h -8 z"
       style="fill:#000000;fill-opacity:1;fill-rule:nonzero;stroke:none"
       transform="matrix(0.16,0,0,-0.16,0,1122.6667)" />
    <path
       id="path87"
       d="m 2727,4546.67 h 492 v 8 h -492 z"
       style="fill:#000000;fill-opacity:1;fill-rule:nonzero;stroke:none"
       transform="matrix(0.16,0,0,-0.16,0,1122.6667)" />
    <path
       id="path89"
       d="m 759,4457.67 h 115 v 4 H 759 Z"
       style="fill:#000000;fill-opacity:1;fill-rule:nonzero;stroke:none"
       transform="matrix(0.16,0,0,-0.16,0,1122.6667)" />
    <path
       id="path90"
       d="m 882,4457.67 h 484 v 4 H 882 Z"
       style="fill:#000000;fill-opacity:1;fill-rule:nonzero;stroke:none"
       transform="matrix(0.16,0,0,-0.16,0,1122.6667)" />
    <path
       id="path91"
       d="m 1491,4821.67 h 4 v 89 h -4 z"
       style="fill:#000000;fill-opacity:1;fill-rule:nonzero;stroke:none"
       transform="matrix(0.16,0,0,-0.16,0,1122.6667)" />
    <path
       id="path92"
       d="m 1374,4457.67 h 121 v 4 h -121 z"
       style="fill:#000000;fill-opacity:1;fill-rule:nonzero;stroke:none"
       transform="matrix(0.16,0,0,-0.16,0,1122.6667)" />
    <path
       id="path94"
       d="m 759,4364.67 h 615 v 8 H 759 Z"
       style="fill:#000000;fill-opacity:1;fill-rule:nonzero;stroke:none"
       transform="matrix(0.16,0,0,-0.16,0,1122.6667)" />
    <path
       id="path95"
       d="m 1491,4372.67 h 4 v 85 h -4 z"
       style="fill:#000000;fill-opacity:1;fill-rule:nonzero;stroke:none"
       transform="matrix(0.16,0,0,-0.16,0,1122.6667)" />
    <path
       id="path96"
       d="m 1981,4910.67 h 8 v 182 h -8 z"
       style="fill:#000000;fill-opacity:1;fill-rule:nonzero;stroke:none"
       transform="matrix(0.16,0,0,-0.16,0,1122.6667)" />
    <path
       id="path97"
       d="m 1497,4364.67 h 492 v 8 h -492 z"
       style="fill:#000000;fill-opacity:1;fill-rule:nonzero;stroke:none"
       transform="matrix(0.16,0,0,-0.16,0,1122.6667)" />
    <path
       id="path99"
       d="m 1497,4275.67 h 484 v 4 h -484 z"
       style="fill:#000000;fill-opacity:1;fill-rule:nonzero;stroke:none"
       transform="matrix(0.16,0,0,-0.16,0,1122.6667)" />
    <path
       id="path100"
       d="m 2106,5003.67 h 4 v 271 h -4 z"
       style="fill:#000000;fill-opacity:1;fill-rule:nonzero;stroke:none"
       transform="matrix(0.16,0,0,-0.16,0,1122.6667)" />
    <path
       id="path101"
       d="m 1989,4275.67 h 121 v 4 h -121 z"
       style="fill:#000000;fill-opacity:1;fill-rule:nonzero;stroke:none"
       transform="matrix(0.16,0,0,-0.16,0,1122.6667)" />
    <path
       id="path103"
       d="m 751,4364.67 h 8 v 190 h -8 z"
       style="fill:#000000;fill-opacity:1;fill-rule:nonzero;stroke:none"
       transform="matrix(0.16,0,0,-0.16,0,1122.6667)" />
    <path
       id="path104"
       d="m 874,4364.67 h 8 v 182 h -8 z"
       style="fill:#000000;fill-opacity:1;fill-rule:nonzero;stroke:none"
       transform="matrix(0.16,0,0,-0.16,0,1122.6667)" />
    <path
       id="path105"
       d="m 1366,4364.67 h 8 v 182 h -8 z"
       style="fill:#000000;fill-opacity:1;fill-rule:nonzero;stroke:none"
       transform="matrix(0.16,0,0,-0.16,0,1122.6667)" />
    <path
       id="path106"
       d="m 759,4182.67 h 615 v 8 H 759 Z"
       style="fill:#000000;fill-opacity:1;fill-rule:nonzero;stroke:none"
       transform="matrix(0.16,0,0,-0.16,0,1122.6667)" />
    <path
       id="path107"
       d="m 1489,4182.67 h 8 v 190 h -8 z"
       style="fill:#000000;fill-opacity:1;fill-rule:nonzero;stroke:none"
       transform="matrix(0.16,0,0,-0.16,0,1122.6667)" />
    <path
       id="path108"
       d="m 1497,4182.67 h 492 v 8 h -492 z"
       style="fill:#000000;fill-opacity:1;fill-rule:nonzero;stroke:none"
       transform="matrix(0.16,0,0,-0.16,0,1122.6667)" />
    <path
       id="path110"
       d="m 759,4093.67 h 115 v 4 H 759 Z"
       style="fill:#000000;fill-opacity:1;fill-rule:nonzero;stroke:none"
       transform="matrix(0.16,0,0,-0.16,0,1122.6667)" />
    <path
       id="path111"
       d="m 882,4093.67 h 484 v 4 H 882 Z"
       style="fill:#000000;fill-opacity:1;fill-rule:nonzero;stroke:none"
       transform="matrix(0.16,0,0,-0.16,0,1122.6667)" />
    <path
       id="path112"
       d="m 1374,4093.67 h 121 v 4 h -121 z"
       style="fill:#000000;fill-opacity:1;fill-rule:nonzero;stroke:none"
       transform="matrix(0.16,0,0,-0.16,0,1122.6667)" />
    <path
       id="path114"
       d="m 759,4000.67 h 615 v 8 H 759 Z"
       style="fill:#000000;fill-opacity:1;fill-rule:nonzero;stroke:none"
       transform="matrix(0.16,0,0,-0.16,0,1122.6667)" />
    <path
       id="path115"
       d="m 2106,4008.67 h 4 v 267 h -4 z"
       style="fill:#000000;fill-opacity:1;fill-rule:nonzero;stroke:none"
       transform="matrix(0.16,0,0,-0.16,0,1122.6667)" />
    <path
       id="path116"
       d="m 2596,5274.67 h 8 v 182 h -8 z"
       style="fill:#000000;fill-opacity:1;fill-rule:nonzero;stroke:none"
       transform="matrix(0.16,0,0,-0.16,0,1122.6667)" />
    <path
       id="path117"
       d="m 2112,4000.67 h 492 v 8 h -492 z"
       style="fill:#000000;fill-opacity:1;fill-rule:nonzero;stroke:none"
       transform="matrix(0.16,0,0,-0.16,0,1122.6667)" />
    <path
       id="path119"
       d="m 2112,3911.67 h 484 v 4 h -484 z"
       style="fill:#000000;fill-opacity:1;fill-rule:nonzero;stroke:none"
       transform="matrix(0.16,0,0,-0.16,0,1122.6667)" />
    <path
       id="path120"
       d="m 2604,3911.67 h 121 v 4 h -121 z"
       style="fill:#000000;fill-opacity:1;fill-rule:nonzero;stroke:none"
       transform="matrix(0.16,0,0,-0.16,0,1122.6667)" />
    <path
       id="path122"
       d="m 751,4000.67 h 8 v 190 h -8 z"
       style="fill:#000000;fill-opacity:1;fill-rule:nonzero;stroke:none"
       transform="matrix(0.16,0,0,-0.16,0,1122.6667)" />
    <path
       id="path123"
       d="m 874,4000.67 h 8 v 182 h -8 z"
       style="fill:#000000;fill-opacity:1;fill-rule:nonzero;stroke:none"
       transform="matrix(0.16,0,0,-0.16,0,1122.6667)" />
    <path
       id="path124"
       d="m 1366,4000.67 h 8 v 182 h -8 z"
       style="fill:#000000;fill-opacity:1;fill-rule:nonzero;stroke:none"
       transform="matrix(0.16,0,0,-0.16,0,1122.6667)" />
    <path
       id="path125"
       d="m 759,3818.67 h 615 v 8 H 759 Z"
       style="fill:#000000;fill-opacity:1;fill-rule:nonzero;stroke:none"
       transform="matrix(0.16,0,0,-0.16,0,1122.6667)" />
    <path
       id="path126"
       d="m 2104,3818.67 h 8 v 190 h -8 z"
       style="fill:#000000;fill-opacity:1;fill-rule:nonzero;stroke:none"
       transform="matrix(0.16,0,0,-0.16,0,1122.6667)" />
    <path
       id="path127"
       d="m 2112,3818.67 h 492 v 8 h -492 z"
       style="fill:#000000;fill-opacity:1;fill-rule:nonzero;stroke:none"
       transform="matrix(0.16,0,0,-0.16,0,1122.6667)" />
    <path
       id="path129"
       d="m 759,3729.67 h 115 v 4 H 759 Z"
       style="fill:#000000;fill-opacity:1;fill-rule:nonzero;stroke:none"
       transform="matrix(0.16,0,0,-0.16,0,1122.6667)" />
    <path
       id="path130"
       d="m 882,3729.67 h 484 v 4 H 882 Z"
       style="fill:#000000;fill-opacity:1;fill-rule:nonzero;stroke:none"
       transform="matrix(0.16,0,0,-0.16,0,1122.6667)" />
    <path
       id="path131"
       d="m 1491,4093.67 h 4 v 89 h -4 z"
       style="fill:#000000;fill-opacity:1;fill-rule:nonzero;stroke:none"
       transform="matrix(0.16,0,0,-0.16,0,1122.6667)" />
    <path
       id="path132"
       d="m 1374,3729.67 h 121 v 4 h -121 z"
       style="fill:#000000;fill-opacity:1;fill-rule:nonzero;stroke:none"
       transform="matrix(0.16,0,0,-0.16,0,1122.6667)" />
    <path
       id="path134"
       d="m 759,3636.67 h 615 v 8 H 759 Z"
       style="fill:#000000;fill-opacity:1;fill-rule:nonzero;stroke:none"
       transform="matrix(0.16,0,0,-0.16,0,1122.6667)" />
    <path
       id="path135"
       d="m 1491,3644.67 h 4 v 85 h -4 z"
       style="fill:#000000;fill-opacity:1;fill-rule:nonzero;stroke:none"
       transform="matrix(0.16,0,0,-0.16,0,1122.6667)" />
    <path
       id="path136"
       d="m 1981,4182.67 h 8 v 182 h -8 z"
       style="fill:#000000;fill-opacity:1;fill-rule:nonzero;stroke:none"
       transform="matrix(0.16,0,0,-0.16,0,1122.6667)" />
    <path
       id="path137"
       d="m 1497,3636.67 h 492 v 8 h -492 z"
       style="fill:#000000;fill-opacity:1;fill-rule:nonzero;stroke:none"
       transform="matrix(0.16,0,0,-0.16,0,1122.6667)" />
    <path
       id="path139"
       d="m 1497,3547.67 h 484 v 4 h -484 z"
       style="fill:#000000;fill-opacity:1;fill-rule:nonzero;stroke:none"
       transform="matrix(0.16,0,0,-0.16,0,1122.6667)" />
    <path
       id="path140"
       d="m 1989,3547.67 h 121 v 4 h -121 z"
       style="fill:#000000;fill-opacity:1;fill-rule:nonzero;stroke:none"
       transform="matrix(0.16,0,0,-0.16,0,1122.6667)" />
    <path
       id="path141"
       d="m 751,3636.67 h 8 v 190 h -8 z"
       style="fill:#000000;fill-opacity:1;fill-rule:nonzero;stroke:none"
       transform="matrix(0.16,0,0,-0.16,0,1122.6667)" />
    <path
       id="path142"
       d="m 874,3636.67 h 8 v 182 h -8 z"
       style="fill:#000000;fill-opacity:1;fill-rule:nonzero;stroke:none"
       transform="matrix(0.16,0,0,-0.16,0,1122.6667)" />
    <path
       id="path143"
       d="m 1366,3636.67 h 8 v 182 h -8 z"
       style="fill:#000000;fill-opacity:1;fill-rule:nonzero;stroke:none"
       transform="matrix(0.16,0,0,-0.16,0,1122.6667)" />
    <path
       id="path144"
       d="m 759,3454.67 h 615 v 8 H 759 Z"
       style="fill:#000000;fill-opacity:1;fill-rule:nonzero;stroke:none"
       transform="matrix(0.16,0,0,-0.16,0,1122.6667)" />
    <path
       id="path145"
       d="m 1489,3454.67 h 8 v 190 h -8 z"
       style="fill:#000000;fill-opacity:1;fill-rule:nonzero;stroke:none"
       transform="matrix(0.16,0,0,-0.16,0,1122.6667)" />
    <path
       id="path146"
       d="m 759,3365.67 h 115 v 4 H 759 Z"
       style="fill:#000000;fill-opacity:1;fill-rule:nonzero;stroke:none"
       transform="matrix(0.16,0,0,-0.16,0,1122.6667)" />
    <path
       id="path147"
       d="m 882,3365.67 h 484 v 4 H 882 Z"
       style="fill:#000000;fill-opacity:1;fill-rule:nonzero;stroke:none"
       transform="matrix(0.16,0,0,-0.16,0,1122.6667)" />
    <path
       id="path148"
       d="m 759,3272.67 h 615 v 8 H 759 Z"
       style="fill:#000000;fill-opacity:1;fill-rule:nonzero;stroke:none"
       transform="matrix(0.16,0,0,-0.16,0,1122.6667)" />
    <path
       id="path149"
       d="m 3336,3280.67 h 4 v 1359 h -4 z"
       style="fill:#000000;fill-opacity:1;fill-rule:nonzero;stroke:none"
       transform="matrix(0.16,0,0,-0.16,0,1122.6667)" />
    <path
       id="path150"
       d="m 751,3272.67 h 8 v 190 h -8 z"
       style="fill:#000000;fill-opacity:1;fill-rule:nonzero;stroke:none"
       transform="matrix(0.16,0,0,-0.16,0,1122.6667)" />
    <path
       id="path151"
       d="m 874,3272.67 h 8 v 182 h -8 z"
       style="fill:#000000;fill-opacity:1;fill-rule:nonzero;stroke:none"
       transform="matrix(0.16,0,0,-0.16,0,1122.6667)" />
    <path
       id="path152"
       d="m 1366,3272.67 h 8 v 182 h -8 z"
       style="fill:#000000;fill-opacity:1;fill-rule:nonzero;stroke:none"
       transform="matrix(0.16,0,0,-0.16,0,1122.6667)" />
    <path
       id="path153"
       d="m 759,3090.67 h 615 v 8 H 759 Z"
       style="fill:#000000;fill-opacity:1;fill-rule:nonzero;stroke:none"
       transform="matrix(0.16,0,0,-0.16,0,1122.6667)" />
    <path
       id="path154"
       d="m 3334,3090.67 h 8 v 190 h -8 z"
       style="fill:#000000;fill-opacity:1;fill-rule:nonzero;stroke:none"
       transform="matrix(0.16,0,0,-0.16,0,1122.6667)" />
    <path
       id="path155"
       d="m 759,3001.67 h 115 v 4 H 759 Z"
       style="fill:#000000;fill-opacity:1;fill-rule:nonzero;stroke:none"
       transform="matrix(0.16,0,0,-0.16,0,1122.6667)" />
    <path
       id="path156"
       d="m 882,3001.67 h 484 v 4 H 882 Z"
       style="fill:#000000;fill-opacity:1;fill-rule:nonzero;stroke:none"
       transform="matrix(0.16,0,0,-0.16,0,1122.6667)" />
    <path
       id="path157"
       d="m 1491,3365.67 h 4 v 89 h -4 z"
       style="fill:#000000;fill-opacity:1;fill-rule:nonzero;stroke:none"
       transform="matrix(0.16,0,0,-0.16,0,1122.6667)" />
    <path
       id="path158"
       d="m 759,2908.67 h 615 v 8 H 759 Z"
       style="fill:#000000;fill-opacity:1;fill-rule:nonzero;stroke:none"
       transform="matrix(0.16,0,0,-0.16,0,1122.6667)" />
    <path
       id="path159"
       d="m 1491,2916.67 h 4 v 85 h -4 z"
       style="fill:#000000;fill-opacity:1;fill-rule:nonzero;stroke:none"
       transform="matrix(0.16,0,0,-0.16,0,1122.6667)" />
    <path
       id="path160"
       d="m 1981,3454.67 h 8 v 182 h -8 z"
       style="fill:#000000;fill-opacity:1;fill-rule:nonzero;stroke:none"
       transform="matrix(0.16,0,0,-0.16,0,1122.6667)" />
    <path
       id="path161"
       d="m 1497,2819.67 h 484 v 4 h -484 z"
       style="fill:#000000;fill-opacity:1;fill-rule:nonzero;stroke:none"
       transform="matrix(0.16,0,0,-0.16,0,1122.6667)" />
    <path
       id="path162"
       d="m 2106,3547.67 h 4 v 271 h -4 z"
       style="fill:#000000;fill-opacity:1;fill-rule:nonzero;stroke:none"
       transform="matrix(0.16,0,0,-0.16,0,1122.6667)" />
    <path
       id="path163"
       d="m 751,2908.67 h 8 v 190 h -8 z"
       style="fill:#000000;fill-opacity:1;fill-rule:nonzero;stroke:none"
       transform="matrix(0.16,0,0,-0.16,0,1122.6667)" />
    <path
       id="path164"
       d="m 874,2908.67 h 8 v 182 h -8 z"
       style="fill:#000000;fill-opacity:1;fill-rule:nonzero;stroke:none"
       transform="matrix(0.16,0,0,-0.16,0,1122.6667)" />
    <path
       id="path165"
       d="m 1366,2908.67 h 8 v 182 h -8 z"
       style="fill:#000000;fill-opacity:1;fill-rule:nonzero;stroke:none"
       transform="matrix(0.16,0,0,-0.16,0,1122.6667)" />
    <path
       id="path166"
       d="m 759,2726.67 h 615 v 8 H 759 Z"
       style="fill:#000000;fill-opacity:1;fill-rule:nonzero;stroke:none"
       transform="matrix(0.16,0,0,-0.16,0,1122.6667)" />
    <path
       id="path167"
       d="m 1489,2726.67 h 8 v 190 h -8 z"
       style="fill:#000000;fill-opacity:1;fill-rule:nonzero;stroke:none"
       transform="matrix(0.16,0,0,-0.16,0,1122.6667)" />
    <path
       id="path168"
       d="m 759,2637.67 h 115 v 4 H 759 Z"
       style="fill:#000000;fill-opacity:1;fill-rule:nonzero;stroke:none"
       transform="matrix(0.16,0,0,-0.16,0,1122.6667)" />
    <path
       id="path169"
       d="m 882,2637.67 h 484 v 4 H 882 Z"
       style="fill:#000000;fill-opacity:1;fill-rule:nonzero;stroke:none"
       transform="matrix(0.16,0,0,-0.16,0,1122.6667)" />
    <path
       id="path170"
       d="m 759,2544.67 h 615 v 8 H 759 Z"
       style="fill:#000000;fill-opacity:1;fill-rule:nonzero;stroke:none"
       transform="matrix(0.16,0,0,-0.16,0,1122.6667)" />
    <path
       id="path171"
       d="m 2106,2552.67 h 4 v 267 h -4 z"
       style="fill:#000000;fill-opacity:1;fill-rule:nonzero;stroke:none"
       transform="matrix(0.16,0,0,-0.16,0,1122.6667)" />
    <path
       id="path172"
       d="m 2596,3818.67 h 8 v 182 h -8 z"
       style="fill:#000000;fill-opacity:1;fill-rule:nonzero;stroke:none"
       transform="matrix(0.16,0,0,-0.16,0,1122.6667)" />
    <path
       id="path173"
       d="m 2112,2455.67 h 484 v 4 h -484 z"
       style="fill:#000000;fill-opacity:1;fill-rule:nonzero;stroke:none"
       transform="matrix(0.16,0,0,-0.16,0,1122.6667)" />
    <path
       id="path174"
       d="m 2721,3911.67 h 4 v 635 h -4 z"
       style="fill:#000000;fill-opacity:1;fill-rule:nonzero;stroke:none"
       transform="matrix(0.16,0,0,-0.16,0,1122.6667)" />
    <path
       id="path175"
       d="m 751,2544.67 h 8 v 190 h -8 z"
       style="fill:#000000;fill-opacity:1;fill-rule:nonzero;stroke:none"
       transform="matrix(0.16,0,0,-0.16,0,1122.6667)" />
    <path
       id="path176"
       d="m 874,2544.67 h 8 v 182 h -8 z"
       style="fill:#000000;fill-opacity:1;fill-rule:nonzero;stroke:none"
       transform="matrix(0.16,0,0,-0.16,0,1122.6667)" />
    <path
       id="path177"
       d="m 1366,2544.67 h 8 v 182 h -8 z"
       style="fill:#000000;fill-opacity:1;fill-rule:nonzero;stroke:none"
       transform="matrix(0.16,0,0,-0.16,0,1122.6667)" />
    <path
       id="path178"
       d="m 759,2362.67 h 615 v 8 H 759 Z"
       style="fill:#000000;fill-opacity:1;fill-rule:nonzero;stroke:none"
       transform="matrix(0.16,0,0,-0.16,0,1122.6667)" />
    <path
       id="path179"
       d="m 2104,2362.67 h 8 v 190 h -8 z"
       style="fill:#000000;fill-opacity:1;fill-rule:nonzero;stroke:none"
       transform="matrix(0.16,0,0,-0.16,0,1122.6667)" />
    <path
       id="path180"
       d="m 759,2273.67 h 115 v 4 H 759 Z"
       style="fill:#000000;fill-opacity:1;fill-rule:nonzero;stroke:none"
       transform="matrix(0.16,0,0,-0.16,0,1122.6667)" />
    <path
       id="path181"
       d="m 882,2273.67 h 484 v 4 H 882 Z"
       style="fill:#000000;fill-opacity:1;fill-rule:nonzero;stroke:none"
       transform="matrix(0.16,0,0,-0.16,0,1122.6667)" />
    <path
       id="path182"
       d="m 1491,2637.67 h 4 v 89 h -4 z"
       style="fill:#000000;fill-opacity:1;fill-rule:nonzero;stroke:none"
       transform="matrix(0.16,0,0,-0.16,0,1122.6667)" />
    <path
       id="path183"
       d="m 759,2180.67 h 615 v 8 H 759 Z"
       style="fill:#000000;fill-opacity:1;fill-rule:nonzero;stroke:none"
       transform="matrix(0.16,0,0,-0.16,0,1122.6667)" />
    <path
       id="path184"
       d="m 1491,2188.67 h 4 v 85 h -4 z"
       style="fill:#000000;fill-opacity:1;fill-rule:nonzero;stroke:none"
       transform="matrix(0.16,0,0,-0.16,0,1122.6667)" />
    <path
       id="path185"
       d="m 1981,2726.67 h 8 v 182 h -8 z"
       style="fill:#000000;fill-opacity:1;fill-rule:nonzero;stroke:none"
       transform="matrix(0.16,0,0,-0.16,0,1122.6667)" />
    <path
       id="path186"
       d="m 1497,2091.67 h 484 v 4 h -484 z"
       style="fill:#000000;fill-opacity:1;fill-rule:nonzero;stroke:none"
       transform="matrix(0.16,0,0,-0.16,0,1122.6667)" />
    <path
       id="path187"
       d="m 751,2180.67 h 8 v 190 h -8 z"
       style="fill:#000000;fill-opacity:1;fill-rule:nonzero;stroke:none"
       transform="matrix(0.16,0,0,-0.16,0,1122.6667)" />
    <path
       id="path188"
       d="m 874,2180.67 h 8 v 182 h -8 z"
       style="fill:#000000;fill-opacity:1;fill-rule:nonzero;stroke:none"
       transform="matrix(0.16,0,0,-0.16,0,1122.6667)" />
    <path
       id="path189"
       d="m 1366,2180.67 h 8 v 182 h -8 z"
       style="fill:#000000;fill-opacity:1;fill-rule:nonzero;stroke:none"
       transform="matrix(0.16,0,0,-0.16,0,1122.6667)" />
    <path
       id="path190"
       d="m 759,1998.67 h 615 v 8 H 759 Z"
       style="fill:#000000;fill-opacity:1;fill-rule:nonzero;stroke:none"
       transform="matrix(0.16,0,0,-0.16,0,1122.6667)" />
    <path
       id="path191"
       d="m 1489,1998.67 h 8 v 190 h -8 z"
       style="fill:#000000;fill-opacity:1;fill-rule:nonzero;stroke:none"
       transform="matrix(0.16,0,0,-0.16,0,1122.6667)" />
    <path
       id="path192"
       d="m 759,1909.67 h 115 v 4 H 759 Z"
       style="fill:#000000;fill-opacity:1;fill-rule:nonzero;stroke:none"
       transform="matrix(0.16,0,0,-0.16,0,1122.6667)" />
    <path
       id="path193"
       d="m 882,1909.67 h 484 v 4 H 882 Z"
       style="fill:#000000;fill-opacity:1;fill-rule:nonzero;stroke:none"
       transform="matrix(0.16,0,0,-0.16,0,1122.6667)" />
    <path
       id="path194"
       d="m 759,1816.67 h 615 v 8 H 759 Z"
       style="fill:#000000;fill-opacity:1;fill-rule:nonzero;stroke:none"
       transform="matrix(0.16,0,0,-0.16,0,1122.6667)" />
    <path
       id="path195"
       d="m 2721,1824.67 h 4 v 631 h -4 z"
       style="fill:#000000;fill-opacity:1;fill-rule:nonzero;stroke:none"
       transform="matrix(0.16,0,0,-0.16,0,1122.6667)" />
    <path
       id="path196"
       d="m 3211,4546.67 h 8 v 182 h -8 z"
       style="fill:#000000;fill-opacity:1;fill-rule:nonzero;stroke:none"
       transform="matrix(0.16,0,0,-0.16,0,1122.6667)" />
    <path
       id="path197"
       d="m 2727,1727.67 h 484 v 4 h -484 z"
       style="fill:#000000;fill-opacity:1;fill-rule:nonzero;stroke:none"
       transform="matrix(0.16,0,0,-0.16,0,1122.6667)" />
    <path
       id="path198"
       d="m 751,1816.67 h 8 v 190 h -8 z"
       style="fill:#000000;fill-opacity:1;fill-rule:nonzero;stroke:none"
       transform="matrix(0.16,0,0,-0.16,0,1122.6667)" />
    <path
       id="path199"
       d="m 874,1816.67 h 8 v 182 h -8 z"
       style="fill:#000000;fill-opacity:1;fill-rule:nonzero;stroke:none"
       transform="matrix(0.16,0,0,-0.16,0,1122.6667)" />
    <path
       id="path200"
       d="m 1366,1816.67 h 8 v 182 h -8 z"
       style="fill:#000000;fill-opacity:1;fill-rule:nonzero;stroke:none"
       transform="matrix(0.16,0,0,-0.16,0,1122.6667)" />
    <path
       id="path201"
       d="m 759,1634.67 h 615 v 8 H 759 Z"
       style="fill:#000000;fill-opacity:1;fill-rule:nonzero;stroke:none"
       transform="matrix(0.16,0,0,-0.16,0,1122.6667)" />
    <path
       id="path202"
       d="m 2719,1634.67 h 8 v 190 h -8 z"
       style="fill:#000000;fill-opacity:1;fill-rule:nonzero;stroke:none"
       transform="matrix(0.16,0,0,-0.16,0,1122.6667)" />
    <path
       id="path203"
       d="m 759,1545.67 h 115 v 4 H 759 Z"
       style="fill:#000000;fill-opacity:1;fill-rule:nonzero;stroke:none"
       transform="matrix(0.16,0,0,-0.16,0,1122.6667)" />
    <path
       id="path204"
       d="m 882,1545.67 h 484 v 4 H 882 Z"
       style="fill:#000000;fill-opacity:1;fill-rule:nonzero;stroke:none"
       transform="matrix(0.16,0,0,-0.16,0,1122.6667)" />
    <path
       id="path205"
       d="m 1491,1909.67 h 4 v 89 h -4 z"
       style="fill:#000000;fill-opacity:1;fill-rule:nonzero;stroke:none"
       transform="matrix(0.16,0,0,-0.16,0,1122.6667)" />
    <path
       id="path206"
       d="m 759,1452.67 h 615 v 8 H 759 Z"
       style="fill:#000000;fill-opacity:1;fill-rule:nonzero;stroke:none"
       transform="matrix(0.16,0,0,-0.16,0,1122.6667)" />
    <path
       id="path207"
       d="m 1491,1460.67 h 4 v 85 h -4 z"
       style="fill:#000000;fill-opacity:1;fill-rule:nonzero;stroke:none"
       transform="matrix(0.16,0,0,-0.16,0,1122.6667)" />
    <path
       id="path208"
       d="m 1981,1998.67 h 8 v 182 h -8 z"
       style="fill:#000000;fill-opacity:1;fill-rule:nonzero;stroke:none"
       transform="matrix(0.16,0,0,-0.16,0,1122.6667)" />
    <path
       id="path209"
       d="m 1497,1363.67 h 484 v 4 h -484 z"
       style="fill:#000000;fill-opacity:1;fill-rule:nonzero;stroke:none"
       transform="matrix(0.16,0,0,-0.16,0,1122.6667)" />
    <path
       id="path210"
       d="m 2106,2091.67 h 4 v 271 h -4 z"
       style="fill:#000000;fill-opacity:1;fill-rule:nonzero;stroke:none"
       transform="matrix(0.16,0,0,-0.16,0,1122.6667)" />
    <path
       id="path211"
       d="m 751,1452.67 h 8 v 190 h -8 z"
       style="fill:#000000;fill-opacity:1;fill-rule:nonzero;stroke:none"
       transform="matrix(0.16,0,0,-0.16,0,1122.6667)" />
    <path
       id="path212"
       d="m 874,1452.67 h 8 v 182 h -8 z"
       style="fill:#000000;fill-opacity:1;fill-rule:nonzero;stroke:none"
       transform="matrix(0.16,0,0,-0.16,0,1122.6667)" />
    <path
       id="path213"
       d="m 1366,1452.67 h 8 v 182 h -8 z"
       style="fill:#000000;fill-opacity:1;fill-rule:nonzero;stroke:none"
       transform="matrix(0.16,0,0,-0.16,0,1122.6667)" />
    <path
       id="path214"
       d="m 759,1270.67 h 615 v 8 H 759 Z"
       style="fill:#000000;fill-opacity:1;fill-rule:nonzero;stroke:none"
       transform="matrix(0.16,0,0,-0.16,0,1122.6667)" />
    <path
       id="path215"
       d="m 1489,1270.67 h 8 v 190 h -8 z"
       style="fill:#000000;fill-opacity:1;fill-rule:nonzero;stroke:none"
       transform="matrix(0.16,0,0,-0.16,0,1122.6667)" />
    <path
       id="path216"
       d="m 759,1181.67 h 115 v 4 H 759 Z"
       style="fill:#000000;fill-opacity:1;fill-rule:nonzero;stroke:none"
       transform="matrix(0.16,0,0,-0.16,0,1122.6667)" />
    <path
       id="path217"
       d="m 882,1181.67 h 484 v 4 H 882 Z"
       style="fill:#000000;fill-opacity:1;fill-rule:nonzero;stroke:none"
       transform="matrix(0.16,0,0,-0.16,0,1122.6667)" />
    <path
       id="path218"
       d="m 759,1088.67 h 615 v 8 H 759 Z"
       style="fill:#000000;fill-opacity:1;fill-rule:nonzero;stroke:none"
       transform="matrix(0.16,0,0,-0.16,0,1122.6667)" />
    <path
       id="path219"
       d="m 2106,1096.67 h 4 v 267 h -4 z"
       style="fill:#000000;fill-opacity:1;fill-rule:nonzero;stroke:none"
       transform="matrix(0.16,0,0,-0.16,0,1122.6667)" />
    <path
       id="path220"
       d="m 2596,2362.67 h 8 v 182 h -8 z"
       style="fill:#000000;fill-opacity:1;fill-rule:nonzero;stroke:none"
       transform="matrix(0.16,0,0,-0.16,0,1122.6667)" />
    <path
       id="path221"
       d="m 2112,999.668 h 484 v 4 h -484 z"
       style="fill:#000000;fill-opacity:1;fill-rule:nonzero;stroke:none"
       transform="matrix(0.16,0,0,-0.16,0,1122.6667)" />
    <path
       id="path222"
       d="m 751,1088.67 h 8 v 190 h -8 z"
       style="fill:#000000;fill-opacity:1;fill-rule:nonzero;stroke:none"
       transform="matrix(0.16,0,0,-0.16,0,1122.6667)" />
    <path
       id="path223"
       d="m 874,1088.67 h 8 v 182 h -8 z"
       style="fill:#000000;fill-opacity:1;fill-rule:nonzero;stroke:none"
       transform="matrix(0.16,0,0,-0.16,0,1122.6667)" />
    <path
       id="path224"
       d="m 1366,1088.67 h 8 v 182 h -8 z"
       style="fill:#000000;fill-opacity:1;fill-rule:nonzero;stroke:none"
       transform="matrix(0.16,0,0,-0.16,0,1122.6667)" />
    <path
       id="path225"
       d="m 759,906.668 h 615 v 8 H 759 Z"
       style="fill:#000000;fill-opacity:1;fill-rule:nonzero;stroke:none"
       transform="matrix(0.16,0,0,-0.16,0,1122.6667)" />
    <path
       id="path226"
       d="m 2104,906.668 h 8 v 190 h -8 z"
       style="fill:#000000;fill-opacity:1;fill-rule:nonzero;stroke:none"
       transform="matrix(0.16,0,0,-0.16,0,1122.6667)" />
    <path
       id="path227"
       d="m 759,817.668 h 115 v 4 H 759 Z"
       style="fill:#000000;fill-opacity:1;fill-rule:nonzero;stroke:none"
       transform="matrix(0.16,0,0,-0.16,0,1122.6667)" />
    <path
       id="path228"
       d="m 882,817.668 h 484 v 4 H 882 Z"
       style="fill:#000000;fill-opacity:1;fill-rule:nonzero;stroke:none"
       transform="matrix(0.16,0,0,-0.16,0,1122.6667)" />
    <path
       id="path229"
       d="m 1491,1181.67 h 4 v 89 h -4 z"
       style="fill:#000000;fill-opacity:1;fill-rule:nonzero;stroke:none"
       transform="matrix(0.16,0,0,-0.16,0,1122.6667)" />
    <path
       id="path230"
       d="m 759,724.668 h 615 v 8 H 759 Z"
       style="fill:#000000;fill-opacity:1;fill-rule:nonzero;stroke:none"
       transform="matrix(0.16,0,0,-0.16,0,1122.6667)" />
    <path
       id="path231"
       d="m 1491,732.668 h 4 v 85 h -4 z"
       style="fill:#000000;fill-opacity:1;fill-rule:nonzero;stroke:none"
       transform="matrix(0.16,0,0,-0.16,0,1122.6667)" />
    <path
       id="path232"
       d="m 1981,1270.67 h 8 v 182 h -8 z"
       style="fill:#000000;fill-opacity:1;fill-rule:nonzero;stroke:none"
       transform="matrix(0.16,0,0,-0.16,0,1122.6667)" />
    <path
       id="path233"
       d="m 1497,635.668 h 484 v 4 h -484 z"
       style="fill:#000000;fill-opacity:1;fill-rule:nonzero;stroke:none"
       transform="matrix(0.16,0,0,-0.16,0,1122.6667)" />
    <path
       id="path234"
       d="m 751,724.668 h 8 v 190 h -8 z"
       style="fill:#000000;fill-opacity:1;fill-rule:nonzero;stroke:none"
       transform="matrix(0.16,0,0,-0.16,0,1122.6667)" />
    <path
       id="path235"
       d="m 874,724.668 h 8 v 182 h -8 z"
       style="fill:#000000;fill-opacity:1;fill-rule:nonzero;stroke:none"
       transform="matrix(0.16,0,0,-0.16,0,1122.6667)" />
    <path
       id="path236"
       d="m 1366,724.668 h 8 v 182 h -8 z"
       style="fill:#000000;fill-opacity:1;fill-rule:nonzero;stroke:none"
       transform="matrix(0.16,0,0,-0.16,0,1122.6667)" />
    <path
       id="path237"
       d="m 759,542.668 h 615 v 8 H 759 Z"
       style="fill:#000000;fill-opacity:1;fill-rule:nonzero;stroke:none"
       transform="matrix(0.16,0,0,-0.16,0,1122.6667)" />
    <path
       id="path238"
       d="m 1489,542.668 h 8 v 190 h -8 z"
       style="fill:#000000;fill-opacity:1;fill-rule:nonzero;stroke:none"
       transform="matrix(0.16,0,0,-0.16,0,1122.6667)" />
    <path
       id="path239"
       d="m 1497,542.668 h 492 v 8 h -492 z"
       style="fill:#000000;fill-opacity:1;fill-rule:nonzero;stroke:none"
       transform="matrix(0.16,0,0,-0.16,0,1122.6667)" />
    <path
       id="path240"
       d="m 3336,1727.67 h 4 v 1363 h -4 z"
       style="fill:#000000;fill-opacity:1;fill-rule:nonzero;stroke:none"
       transform="matrix(0.16,0,0,-0.16,0,1122.6667)" />
    <path
       id="path241"
       d="m 3826,3090.67 h 8 v 182 h -8 z"
       style="fill:#000000;fill-opacity:1;fill-rule:nonzero;stroke:none"
       transform="matrix(0.16,0,0,-0.16,0,1122.6667)" />
    <path
       id="path242"
       d="m 759,453.668 h 115 v 4 H 759 Z"
       style="fill:#000000;fill-opacity:1;fill-rule:nonzero;stroke:none"
       transform="matrix(0.16,0,0,-0.16,0,1122.6667)" />
    <path
       id="path243"
       d="m 882,453.668 h 484 v 4 H 882 Z"
       style="fill:#000000;fill-opacity:1;fill-rule:nonzero;stroke:none"
       transform="matrix(0.16,0,0,-0.16,0,1122.6667)" />
    <path
       id="path244"
       d="m 1374,453.668 h 121 v 4 h -121 z"
       style="fill:#000000;fill-opacity:1;fill-rule:nonzero;stroke:none"
       transform="matrix(0.16,0,0,-0.16,0,1122.6667)" />
    <path
       id="path245"
       d="m 759,360.668 h 615 v 8 H 759 Z"
       style="fill:#000000;fill-opacity:1;fill-rule:nonzero;stroke:none"
       transform="matrix(0.16,0,0,-0.16,0,1122.6667)" />
    <path
       id="path249"
       d="m 751,360.668 h 8 v 190 h -8 z"
       style="fill:#000000;fill-opacity:1;fill-rule:nonzero;stroke:none"
       transform="matrix(0.16,0,0,-0.16,0,1122.6667)" />
    <path
       id="path250"
       d="m 874,360.668 h 8 v 182 h -8 z"
       style="fill:#000000;fill-opacity:1;fill-rule:nonzero;stroke:none"
       transform="matrix(0.16,0,0,-0.16,0,1122.6667)" />
    <path
       id="path251"
       d="m 1366,360.668 h 8 v 182 h -8 z"
       style="fill:#000000;fill-opacity:1;fill-rule:nonzero;stroke:none"
       transform="matrix(0.16,0,0,-0.16,0,1122.6667)" />
    <path
       id="path252"
       d="m 1491,453.668 h 4 v 89 h -4 z"
       style="fill:#000000;fill-opacity:1;fill-rule:nonzero;stroke:none"
       transform="matrix(0.16,0,0,-0.16,0,1122.6667)" />
    <path
       id="path253"
       d="m 1981,542.668 h 8 v 182 h -8 z"
       style="fill:#000000;fill-opacity:1;fill-rule:nonzero;stroke:none"
       transform="matrix(0.16,0,0,-0.16,0,1122.6667)" />
    <path
       id="path254"
       d="m 2106,635.668 h 4 v 271 h -4 z"
       style="fill:#000000;fill-opacity:1;fill-rule:nonzero;stroke:none"
       transform="matrix(0.16,0,0,-0.16,0,1122.6667)" />
    <path
       id="path255"
       d="m 2596,906.668 h 8 v 182 h -8 z"
       style="fill:#000000;fill-opacity:1;fill-rule:nonzero;stroke:none"
       transform="matrix(0.16,0,0,-0.16,0,1122.6667)" />
    <path
       id="path256"
       d="m 2721,999.668 h 4 v 635 h -4 z"
       style="fill:#000000;fill-opacity:1;fill-rule:nonzero;stroke:none"
       transform="matrix(0.16,0,0,-0.16,0,1122.6667)" />
    <path
       id="path257"
       d="m 3211,1634.67 h 8 v 182 h -8 z"
       style="fill:#000000;fill-opacity:1;fill-rule:nonzero;stroke:none"
       transform="matrix(0.16,0,0,-0.16,0,1122.6667)" />
    <path
       id="path293"
       d="m 1497,3454.67 h 492 v 8 h -492 z"
       style="fill:#000000;fill-opacity:1;fill-rule:nonzero;stroke:none"
       transform="matrix(0.16,0,0,-0.16,0,1122.6667)" />
    <path
       id="path294"
       d="m 1374,3365.67 h 121 v 4 h -121 z"
       style="fill:#000000;fill-opacity:1;fill-rule:nonzero;stroke:none"
       transform="matrix(0.16,0,0,-0.16,0,1122.6667)" />
    <path
       id="path295"
       d="m 3342,3272.67 h 492 v 8 h -492 z"
       style="fill:#000000;fill-opacity:1;fill-rule:nonzero;stroke:none"
       transform="matrix(0.16,0,0,-0.16,0,1122.6667)" />
    <path
       id="path296"
       d="m 3342,3183.67 h 484 v 4 h -484 z"
       style="fill:#000000;fill-opacity:1;fill-rule:nonzero;stroke:none"
       transform="matrix(0.16,0,0,-0.16,0,1122.6667)" />
    <path
       id="path297"
       d="m 3342,3090.67 h 492 v 8 h -492 z"
       style="fill:#000000;fill-opacity:1;fill-rule:nonzero;stroke:none"
       transform="matrix(0.16,0,0,-0.16,0,1122.6667)" />
    <path
       id="path298"
       d="m 1374,3001.67 h 121 v 4 h -121 z"
       style="fill:#000000;fill-opacity:1;fill-rule:nonzero;stroke:none"
       transform="matrix(0.16,0,0,-0.16,0,1122.6667)" />
    <path
       id="path299"
       d="m 1497,2908.67 h 492 v 8 h -492 z"
       style="fill:#000000;fill-opacity:1;fill-rule:nonzero;stroke:none"
       transform="matrix(0.16,0,0,-0.16,0,1122.6667)" />
    <path
       id="path300"
       d="m 1989,2819.67 h 121 v 4 h -121 z"
       style="fill:#000000;fill-opacity:1;fill-rule:nonzero;stroke:none"
       transform="matrix(0.16,0,0,-0.16,0,1122.6667)" />
    <path
       id="path301"
       d="m 1497,2726.67 h 492 v 8 h -492 z"
       style="fill:#000000;fill-opacity:1;fill-rule:nonzero;stroke:none"
       transform="matrix(0.16,0,0,-0.16,0,1122.6667)" />
    <path
       id="path302"
       d="m 1374,2637.67 h 121 v 4 h -121 z"
       style="fill:#000000;fill-opacity:1;fill-rule:nonzero;stroke:none"
       transform="matrix(0.16,0,0,-0.16,0,1122.6667)" />
    <path
       id="path303"
       d="m 2112,2544.67 h 492 v 8 h -492 z"
       style="fill:#000000;fill-opacity:1;fill-rule:nonzero;stroke:none"
       transform="matrix(0.16,0,0,-0.16,0,1122.6667)" />
    <path
       id="path304"
       d="m 2604,2455.67 h 121 v 4 h -121 z"
       style="fill:#000000;fill-opacity:1;fill-rule:nonzero;stroke:none"
       transform="matrix(0.16,0,0,-0.16,0,1122.6667)" />
    <path
       id="path305"
       d="m 2112,2362.67 h 492 v 8 h -492 z"
       style="fill:#000000;fill-opacity:1;fill-rule:nonzero;stroke:none"
       transform="matrix(0.16,0,0,-0.16,0,1122.6667)" />
    <path
       id="path306"
       d="m 1374,2273.67 h 121 v 4 h -121 z"
       style="fill:#000000;fill-opacity:1;fill-rule:nonzero;stroke:none"
       transform="matrix(0.16,0,0,-0.16,0,1122.6667)" />
    <path
       id="path307"
       d="m 1497,2180.67 h 492 v 8 h -492 z"
       style="fill:#000000;fill-opacity:1;fill-rule:nonzero;stroke:none"
       transform="matrix(0.16,0,0,-0.16,0,1122.6667)" />
    <path
       id="path308"
       d="m 1989,2091.67 h 121 v 4 h -121 z"
       style="fill:#000000;fill-opacity:1;fill-rule:nonzero;stroke:none"
       transform="matrix(0.16,0,0,-0.16,0,1122.6667)" />
    <path
       id="path309"
       d="m 1497,1998.67 h 492 v 8 h -492 z"
       style="fill:#000000;fill-opacity:1;fill-rule:nonzero;stroke:none"
       transform="matrix(0.16,0,0,-0.16,0,1122.6667)" />
    <path
       id="path310"
       d="m 1374,1909.67 h 121 v 4 h -121 z"
       style="fill:#000000;fill-opacity:1;fill-rule:nonzero;stroke:none"
       transform="matrix(0.16,0,0,-0.16,0,1122.6667)" />
    <path
       id="path311"
       d="m 2727,1816.67 h 492 v 8 h -492 z"
       style="fill:#000000;fill-opacity:1;fill-rule:nonzero;stroke:none"
       transform="matrix(0.16,0,0,-0.16,0,1122.6667)" />
    <path
       id="path312"
       d="m 3219,1727.67 h 121 v 4 h -121 z"
       style="fill:#000000;fill-opacity:1;fill-rule:nonzero;stroke:none"
       transform="matrix(0.16,0,0,-0.16,0,1122.6667)" />
    <path
       id="path313"
       d="m 2727,1634.67 h 492 v 8 h -492 z"
       style="fill:#000000;fill-opacity:1;fill-rule:nonzero;stroke:none"
       transform="matrix(0.16,0,0,-0.16,0,1122.6667)" />
    <path
       id="path314"
       d="m 1374,1545.67 h 121 v 4 h -121 z"
       style="fill:#000000;fill-opacity:1;fill-rule:nonzero;stroke:none"
       transform="matrix(0.16,0,0,-0.16,0,1122.6667)" />
    <path
       id="path315"
       d="m 1497,1452.67 h 492 v 8 h -492 z"
       style="fill:#000000;fill-opacity:1;fill-rule:nonzero;stroke:none"
       transform="matrix(0.16,0,0,-0.16,0,1122.6667)" />
    <path
       id="path316"
       d="m 1989,1363.67 h 121 v 4 h -121 z"
       style="fill:#000000;fill-opacity:1;fill-rule:nonzero;stroke:none"
       transform="matrix(0.16,0,0,-0.16,0,1122.6667)" />
    <path
       id="path317"
       d="m 1497,1270.67 h 492 v 8 h -492 z"
       style="fill:#000000;fill-opacity:1;fill-rule:nonzero;stroke:none"
       transform="matrix(0.16,0,0,-0.16,0,1122.6667)" />
    <path
       id="path318"
       d="m 1374,1181.67 h 121 v 4 h -121 z"
       style="fill:#000000;fill-opacity:1;fill-rule:nonzero;stroke:none"
       transform="matrix(0.16,0,0,-0.16,0,1122.6667)" />
    <path
       id="path319"
       d="m 2112,1088.67 h 492 v 8 h -492 z"
       style="fill:#000000;fill-opacity:1;fill-rule:nonzero;stroke:none"
       transform="matrix(0.16,0,0,-0.16,0,1122.6667)" />
    <path
       id="path320"
       d="m 2604,999.668 h 121 v 4 h -121 z"
       style="fill:#000000;fill-opacity:1;fill-rule:nonzero;stroke:none"
       transform="matrix(0.16,0,0,-0.16,0,1122.6667)" />
    <path
       id="path321"
       d="m 2112,906.668 h 492 v 8 h -492 z"
       style="fill:#000000;fill-opacity:1;fill-rule:nonzero;stroke:none"
       transform="matrix(0.16,0,0,-0.16,0,1122.6667)" />
    <path
       id="path322"
       d="m 1374,817.668 h 121 v 4 h -121 z"
       style="fill:#000000;fill-opacity:1;fill-rule:nonzero;stroke:none"
       transform="matrix(0.16,0,0,-0.16,0,1122.6667)" />
    <path
       id="path323"
       d="m 1497,724.668 h 492 v 8 h -492 z"
       style="fill:#000000;fill-opacity:1;fill-rule:nonzero;stroke:none"
       transform="matrix(0.16,0,0,-0.16,0,1122.6667)" />
    <path
       id="path324"
       d="m 1989,635.668 h 121 v 4 h -121 z"
       style="fill:#000000;fill-opacity:1;fill-rule:nonzero;stroke:none"
       transform="matrix(0.16,0,0,-0.16,0,1122.6667)" />
  </g>
</svg>
